<?xml version="1.0" encoding="utf-8" ?>
<svg baseProfile="full" height="320.0" version="1.1" width="480.0" xmlns="http://www.w3.org/2000/svg" xmlns:ev="http://www.w3.org/2001/xml-events" xmlns:xlink="http://www.w3.org/1999/xlink"><defs /><circle cx="120.0" cy="220.0" fill="white" id="n0_0" r="18.0" stroke="#3A86B7" stroke-width="2" /><circle cx="120.0" cy="180.0" fill="white" id="n0_1" r="18.0" stroke="#3A86B7" stroke-width="2" /><circle cx="120.0" cy="140.0" fill="white" id="n0_2" r="18.0" stroke="#3A86B7" stroke-width="2" /><circle cx="120.0" cy="100.0" fill="white" id="n0_3" r="18.0" stroke="#3A86B7" stroke-width="2" /><circle cx="240.0" cy="240.0" fill="white" id="n1_0" r="18.0" stroke="#F28E2B" stroke-width="2" /><circle cx="240.0" cy="200.0" fill="white" id="n1_1" r="18.0" stroke="#F28E2B" stroke-width="2" /><circle cx="240.0" cy="160.0" fill="white" id="n1_2" r="18.0" stroke="#F28E2B" stroke-width="2" /><circle cx="240.0" cy="120.0" fill="white" id="n1_3" r="18.0" stroke="#F28E2B" stroke-width="2" /><circle cx="240.0" cy="80.0" fill="white" id="n1_4" r="18.0" stroke="#F28E2B" stroke-width="2" /><circle cx="360.0" cy="200.0" fill="white" id="n2_0" r="18.0" stroke="#2AA198" stroke-width="2" /><circle cx="360.0" cy="160.0" fill="white" id="n2_1" r="18.0" stroke="#2AA198" stroke-width="2" /><circle cx="360.0" cy="120.0" fill="white" id="n2_2" r="18.0" stroke="#2AA198" stroke-width="2" /><line stroke="#D9D9D9" stroke-width="1" x1="138.0" x2="222.0" y1="220.0" y2="240.0" /><line stroke="#D9D9D9" stroke-width="1" x1="138.0" x2="222.0" y1="220.0" y2="200.0" /><line stroke="#D9D9D9" stroke-width="1" x1="138.0" x2="222.0" y1="220.0" y2="160.0" /><line stroke="#D9D9D9" stroke-width="1" x1="138.0" x2="222.0" y1="220.0" y2="120.0" /><line stroke="#D9D9D9" stroke-width="1" x1="138.0" x2="222.0" y1="220.0" y2="80.0" /><line stroke="#D9D9D9" stroke-width="1" x1="138.0" x2="222.0" y1="180.0" y2="240.0" /><line stroke="#D9D9D9" stroke-width="1" x1="138.0" x2="222.0" y1="180.0" y2="200.0" /><line stroke="#D9D9D9" stroke-width="1" x1="138.0" x2="222.0" y1="180.0" y2="160.0" /><line stroke="#D9D9D9" stroke-width="1" x1="138.0" x2="222.0" y1="180.0" y2="120.0" /><line stroke="#D9D9D9" stroke-width="1" x1="138.0" x2="222.0" y1="180.0" y2="80.0" /><line stroke="#D9D9D9" stroke-width="1" x1="138.0" x2="222.0" y1="140.0" y2="240.0" /><line stroke="#D9D9D9" stroke-width="1" x1="138.0" x2="222.0" y1="140.0" y2="200.0" /><line stroke="#D9D9D9" stroke-width="1" x1="138.0" x2="222.0" y1="140.0" y2="160.0" /><line stroke="#D9D9D9" stroke-width="1" x1="138.0" x2="222.0" y1="140.0" y2="120.0" /><line stroke="#D9D9D9" stroke-width="1" x1="138.0" x2="222.0" y1="140.0" y2="80.0" /><line stroke="#D9D9D9" stroke-width="1" x1="138.0" x2="222.0" y1="100.0" y2="240.0" /><line stroke="#D9D9D9" stroke-width="1" x1="138.0" x2="222.0" y1="100.0" y2="200.0" /><line stroke="#D9D9D9" stroke-width="1" x1="138.0" x2="222.0" y1="100.0" y2="160.0" /><line stroke="#D9D9D9" stroke-width="1" x1="138.0" x2="222.0" y1="100.0" y2="120.0" /><line stroke="#D9D9D9" stroke-width="1" x1="138.0" x2="222.0" y1="100.0" y2="80.0" /><line stroke="#D9D9D9" stroke-width="1" x1="258.0" x2="342.0" y1="240.0" y2="200.0" /><line stroke="#D9D9D9" stroke-width="1" x1="258.0" x2="342.0" y1="240.0" y2="160.0" /><line stroke="#D9D9D9" stroke-width="1" x1="258.0" x2="342.0" y1="240.0" y2="120.0" /><line stroke="#D9D9D9" stroke-width="1" x1="258.0" x2="342.0" y1="200.0" y2="200.0" /><line stroke="#D9D9D9" stroke-width="1" x1="258.0" x2="342.0" y1="200.0" y2="160.0" /><line stroke="#D9D9D9" stroke-width="1" x1="258.0" x2="342.0" y1="200.0" y2="120.0" /><line stroke="#D9D9D9" stroke-width="1" x1="258.0" x2="342.0" y1="160.0" y2="200.0" /><line stroke="#D9D9D9" stroke-width="1" x1="258.0" x2="342.0" y1="160.0" y2="160.0" /><line stroke="#D9D9D9" stroke-width="1" x1="258.0" x2="342.0" y1="160.0" y2="120.0" /><line stroke="#D9D9D9" stroke-width="1" x1="258.0" x2="342.0" y1="120.0" y2="200.0" /><line stroke="#D9D9D9" stroke-width="1" x1="258.0" x2="342.0" y1="120.0" y2="160.0" /><line stroke="#D9D9D9" stroke-width="1" x1="258.0" x2="342.0" y1="120.0" y2="120.0" /><line stroke="#D9D9D9" stroke-width="1" x1="258.0" x2="342.0" y1="80.0" y2="200.0" /><line stroke="#D9D9D9" stroke-width="1" x1="258.0" x2="342.0" y1="80.0" y2="160.0" /><line stroke="#D9D9D9" stroke-width="1" x1="258.0" x2="342.0" y1="80.0" y2="120.0" /><text font-size="12px" text-anchor="middle" x="120.0" y="300.0">Input
(features)</text><text font-size="12px" text-anchor="middle" x="240.0" y="300.0">Hidden
(learned)</text><text font-size="12px" text-anchor="middle" x="360.0" y="300.0">Output
(classes)</text><text font-size="16px" font-weight="bold" text-anchor="middle" x="240.0" y="20.0">Multi-Layer Perceptron (MLP)</text></svg>