<svg xmlns="http://www.w3.org/2000/svg" xmlns:ev="http://www.w3.org/2001/xml-events" xmlns:xlink="http://www.w3.org/1999/xlink" baseProfile="full" height="280.0" version="1.1" width="400"><defs/><text font-size="14px" x="55" y="204.0">x₁</text><line stroke="black" stroke-width="1.2" x1="80" x2="140" y1="200.0" y2="200.0"/><text font-size="12px" x="110.0" y="194.0">wₖ₁</text><text font-size="14px" x="55" y="164.0">x₂</text><line stroke="black" stroke-width="1.2" x1="80" x2="140" y1="160.0" y2="160.0"/><text font-size="12px" x="110.0" y="154.0">wₖ₂</text><text font-size="14px" x="55" y="124.0">x₃</text><line stroke="black" stroke-width="1.2" x1="80" x2="140" y1="120.0" y2="120.0"/><text font-size="12px" x="110.0" y="114.0">wₖ₃</text><text font-size="14px" x="55" y="84.0">x₄</text><line stroke="black" stroke-width="1.2" x1="80" x2="140" y1="80.0" y2="80.0"/><text font-size="12px" x="110.0" y="74.0">wₖ₄</text><circle cx="160" cy="140.0" fill="white" r="18" stroke="black" stroke-width="1.5"/><text font-size="18px" text-anchor="middle" x="160" y="145.0">Σ</text><text font-size="12px" text-anchor="middle" x="160" y="110.0">bₖ</text><line stroke="black" stroke-width="1" x1="160" x2="160" y1="115.0" y2="122.0"/><text font-size="12px" x="200.0" y="132.0">vₖ</text><line stroke="black" stroke-width="1.2" x1="178" x2="225" y1="140.0" y2="140.0"/><rect fill="white" height="26" stroke="black" stroke-width="1.5" width="40" x="220.0" y="127.0"/><text font-size="14px" text-anchor="middle" x="240" y="145.0">φ(·)</text><line stroke="black" stroke-width="1.4" x1="260.0" x2="320" y1="140.0" y2="140.0"/><text font-size="14px" x="330" y="145.0">yₖ</text><text font-size="18px" font-weight="bold" text-anchor="middle" x="200.0" y="25">McCulloch–Pitts Neuron</text></svg>