<?xml version="1.0" encoding="utf-8" ?>
<svg baseProfile="full" height="260px" version="1.1" width="600px" xmlns="http://www.w3.org/2000/svg" xmlns:ev="http://www.w3.org/2001/xml-events" xmlns:xlink="http://www.w3.org/1999/xlink"><defs><marker id="id9" markerHeight="10" markerWidth="10" orient="auto" refX="5" refY="3"><path d="M0,0 L0,6 L6,3 z" fill="black" /></marker></defs><rect fill="rgb(255,200,200)" height="180" rx="10" stroke="rgb(200,80,80)" stroke-width="2" width="520" x="0" y="20" /><rect fill="rgb(100,150,255)" height="40" stroke="black" width="20" x="20" y="40" /><rect fill="rgb(255,180,100)" height="50" stroke="black" width="20" x="20" y="110" /><text font-size="10px" x="10" y="125">$x_1$</text><text font-size="10px" x="20" y="155">Ich</text><line marker-end="url(#id9)" stroke="black" x1="30" x2="30" y1="110" y2="80" /><rect fill="rgb(100,150,255)" height="40" stroke="black" width="20" x="100" y="40" /><rect fill="rgb(255,180,100)" height="50" stroke="black" width="20" x="100" y="110" /><text font-size="10px" x="90" y="125">$x_2$</text><text font-size="10px" x="100" y="155">gehe</text><line marker-end="url(#id9)" stroke="black" x1="110" x2="110" y1="110" y2="80" /><rect fill="rgb(100,150,255)" height="40" stroke="black" width="20" x="180" y="40" /><rect fill="rgb(255,180,100)" height="50" stroke="black" width="20" x="180" y="110" /><text font-size="10px" x="170" y="125">$x_3$</text><text font-size="10px" x="180" y="155">nach</text><line marker-end="url(#id9)" stroke="black" x1="190" x2="190" y1="110" y2="80" /><rect fill="rgb(100,150,255)" height="40" stroke="black" width="20" x="260" y="40" /><rect fill="rgb(255,180,100)" height="50" stroke="black" width="20" x="260" y="110" /><text font-size="10px" x="250" y="125">$x_4$</text><text font-size="10px" x="260" y="155">Hause</text><line marker-end="url(#id9)" stroke="black" x1="270" x2="270" y1="110" y2="80" /><rect fill="rgb(100,150,255)" height="40" stroke="black" width="20" x="340" y="40" /><rect fill="rgb(255,180,100)" height="50" stroke="black" width="20" x="340" y="110" /><text font-size="10px" x="330" y="125">$x_5$</text><text font-size="10px" x="340" y="155">&lt;eos&gt;</text><line marker-end="url(#id9)" stroke="black" x1="350" x2="350" y1="110" y2="80" /><line marker-end="url(#id9)" stroke="black" x1="40" x2="100" y1="60" y2="60" /><line marker-end="url(#id9)" stroke="black" x1="120" x2="180" y1="60" y2="60" /><line marker-end="url(#id9)" stroke="black" x1="200" x2="260" y1="60" y2="60" /><line marker-end="url(#id9)" stroke="black" x1="280" x2="340" y1="60" y2="60" /><circle cx="200" cy="10" fill="white" r="10" stroke="black" /><text font-size="10px" x="196" y="14">+</text><line marker-end="url(#id9)" stroke="black" x1="30" x2="200" y1="40" y2="10" /><line marker-end="url(#id9)" stroke="black" x1="110" x2="200" y1="40" y2="10" /><line marker-end="url(#id9)" stroke="black" x1="190" x2="200" y1="40" y2="10" /><line marker-end="url(#id9)" stroke="black" x1="270" x2="200" y1="40" y2="10" /><line marker-end="url(#id9)" stroke="black" x1="350" x2="200" y1="40" y2="10" /><text font-size="10px" x="20" y="30">α₁,₂</text><text font-size="10px" x="100" y="30">α₂,₂</text><text font-size="10px" x="180" y="30">α₃,₂</text><text font-size="10px" x="260" y="30">α₄,₂</text><text font-size="10px" x="340" y="30">α₅,₂</text><text font-size="12px" x="230" y="15">$c_t$</text></svg>