<?xml version="1.0" encoding="utf-8" ?>
<svg baseProfile="full" height="900px" version="1.1" width="1400px" xmlns="http://www.w3.org/2000/svg" xmlns:ev="http://www.w3.org/2001/xml-events" xmlns:xlink="http://www.w3.org/1999/xlink"><defs><marker id="arrow" markerHeight="10" markerWidth="10" orient="auto" refX="10" refY="5"><path d="M 0 0 L 10 5 L 0 10 z" fill="black" /></marker></defs><g><rect fill="#f7f7f7" height="85" rx="12" ry="12" stroke="#444" stroke-width="1.5" width="300" x="100" y="40" /><text alignment-baseline="middle" font-family="Helvetica, Arial, sans-serif" font-size="18px" text-anchor="middle" x="250.0" y="82.5">Select NAICS 4-Digit Code
(Industry Classification)</text></g><g><rect fill="#f7f7f7" height="85" rx="12" ry="12" stroke="#444" stroke-width="1.5" width="300" x="100" y="160" /><text alignment-baseline="middle" font-family="Helvetica, Arial, sans-serif" font-size="18px" text-anchor="middle" x="250.0" y="202.5">Choose Specific Industry
Based on NAICS Code</text></g><g><rect fill="#f7f7f7" height="85" rx="12" ry="12" stroke="#444" stroke-width="1.5" width="300" x="100" y="280" /><text alignment-baseline="middle" font-family="Helvetica, Arial, sans-serif" font-size="18px" text-anchor="middle" x="250.0" y="322.5">Select 5–10 Major Companies
in the Industry Vertical</text></g><g><rect fill="#f7f7f7" height="85" rx="12" ry="12" stroke="#444" stroke-width="1.5" width="300" x="100" y="400" /><text alignment-baseline="middle" font-family="Helvetica, Arial, sans-serif" font-size="18px" text-anchor="middle" x="250.0" y="442.5">Step 1:
Industry + Company Selection</text></g><g><rect fill="#f7f7f7" height="85" rx="12" ry="12" stroke="#444" stroke-width="1.5" width="300" x="100" y="520" /><text alignment-baseline="middle" font-family="Helvetica, Arial, sans-serif" font-size="18px" text-anchor="middle" x="250.0" y="562.5">Download 10-K HTML Files
2015–2025</text></g><g><rect fill="#f7f7f7" height="85" rx="12" ry="12" stroke="#444" stroke-width="1.5" width="300" x="100" y="640" /><text alignment-baseline="middle" font-family="Helvetica, Arial, sans-serif" font-size="18px" text-anchor="middle" x="250.0" y="682.5">Parse SEC + XBRL Metadata</text></g><g><rect fill="#f7f7f7" height="85" rx="12" ry="12" stroke="#444" stroke-width="1.5" width="300" x="100" y="760" /><text alignment-baseline="middle" font-family="Helvetica, Arial, sans-serif" font-size="18px" text-anchor="middle" x="250.0" y="802.5">Extract All 10-K Items</text></g><g><rect fill="#f7f7f7" height="85" rx="12" ry="12" stroke="#444" stroke-width="1.5" width="300" x="100" y="880" /><text alignment-baseline="middle" font-family="Helvetica, Arial, sans-serif" font-size="18px" text-anchor="middle" x="250.0" y="922.5">Step 2:
Select Items + Clean + EDA</text></g><g><rect fill="#f7f7f7" height="85" rx="12" ry="12" stroke="#444" stroke-width="1.5" width="300" x="550" y="40" /><text alignment-baseline="middle" font-family="Helvetica, Arial, sans-serif" font-size="18px" text-anchor="middle" x="700.0" y="82.5">Yahoo Finance:
Market + Fundamentals Data</text></g><g><rect fill="#f7f7f7" height="85" rx="12" ry="12" stroke="#444" stroke-width="1.5" width="300" x="550" y="950" /><text alignment-baseline="middle" font-family="Helvetica, Arial, sans-serif" font-size="18px" text-anchor="middle" x="700.0" y="992.5">Step 3:
Chunk Text + Create Embeddings</text></g><g><rect fill="#f7f7f7" height="85" rx="12" ry="12" stroke="#444" stroke-width="1.5" width="300" x="550" y="1080" /><text alignment-baseline="middle" font-family="Helvetica, Arial, sans-serif" font-size="18px" text-anchor="middle" x="700.0" y="1122.5">Build Vector Index</text></g><g><rect fill="#f7f7f7" height="85" rx="12" ry="12" stroke="#444" stroke-width="1.5" width="300" x="1000" y="640" /><text alignment-baseline="middle" font-family="Helvetica, Arial, sans-serif" font-size="18px" text-anchor="middle" x="1150.0" y="682.5">Step 4:
RAG Generation</text></g><g><rect fill="#f7f7f7" height="85" rx="12" ry="12" stroke="#444" stroke-width="1.5" width="300" x="1000" y="760" /><text alignment-baseline="middle" font-family="Helvetica, Arial, sans-serif" font-size="18px" text-anchor="middle" x="1150.0" y="802.5">RAG Evaluation</text></g><line marker-end="url(#arrow)" stroke="#000" stroke-width="2" x1="250.0" x2="250.0" y1="125" y2="160" /><line marker-end="url(#arrow)" stroke="#000" stroke-width="2" x1="250.0" x2="250.0" y1="245" y2="280" /><line marker-end="url(#arrow)" stroke="#000" stroke-width="2" x1="250.0" x2="250.0" y1="365" y2="400" /><line marker-end="url(#arrow)" stroke="#000" stroke-width="2" x1="400" x2="400" y1="442.5" y2="562.5" /><line marker-end="url(#arrow)" stroke="#000" stroke-width="2" x1="400" x2="400" y1="562.5" y2="682.5" /><line marker-end="url(#arrow)" stroke="#000" stroke-width="2" x1="400" x2="400" y1="682.5" y2="802.5" /><line marker-end="url(#arrow)" stroke="#000" stroke-width="2" x1="400" x2="400" y1="802.5" y2="922.5" /><line marker-end="url(#arrow)" stroke="#000" stroke-width="2" x1="250.0" x2="700.0" y1="965" y2="950" /><line marker-end="url(#arrow)" stroke="#000" stroke-width="2" x1="700.0" x2="700.0" y1="125" y2="950" /><line marker-end="url(#arrow)" stroke="#000" stroke-width="2" x1="700.0" x2="700.0" y1="1035" y2="1080" /><line marker-end="url(#arrow)" stroke="#000" stroke-width="2" x1="850" x2="1000" y1="1122.5" y2="682.5" /><line marker-end="url(#arrow)" stroke="#000" stroke-width="2" x1="1150.0" x2="1150.0" y1="725" y2="760" /></svg>