<svg xmlns="http://www.w3.org/2000/svg" xmlns:ev="http://www.w3.org/2001/xml-events" xmlns:xlink="http://www.w3.org/1999/xlink" baseProfile="full" height="280.0" version="1.1" width="400.0"><defs/><text font-size="12px" x="60.0" y="204.0">x_1</text><line stroke="black" stroke-width="1" x1="80.0" x2="140.0" y1="200.0" y2="200.0"/><text font-size="10px" x="115.0" y="194.0">w_{k1}</text><text font-size="12px" x="60.0" y="164.0">x_2</text><line stroke="black" stroke-width="1" x1="80.0" x2="140.0" y1="160.0" y2="160.0"/><text font-size="10px" x="115.0" y="154.0">w_{k2}</text><text font-size="12px" x="60.0" y="124.0">x_3</text><line stroke="black" stroke-width="1" x1="80.0" x2="140.0" y1="120.0" y2="120.0"/><text font-size="10px" x="115.0" y="114.0">w_{k3}</text><text font-size="12px" x="60.0" y="84.0">x_4</text><line stroke="black" stroke-width="1" x1="80.0" x2="140.0" y1="80.0" y2="80.0"/><text font-size="10px" x="115.0" y="74.0">w_{k4}</text><circle cx="160.0" cy="140.0" fill="white" r="18" stroke="black" stroke-width="1.5"/><text font-size="16px" text-anchor="middle" x="160.0" y="144.0">Σ</text><text font-size="10px" text-anchor="middle" x="160.0" y="110.0">b_k</text><line stroke="black" stroke-width="1" x1="160.0" x2="160.0" y1="115.0" y2="122.0"/><line stroke="black" stroke-width="1" x1="178.0" x2="225.0" y1="140.0" y2="140.0"/><text font-size="10px" x="200.0" y="134.0">v_k</text><rect fill="white" height="26" stroke="black" stroke-width="1.5" width="40" x="220.0" y="127.0"/><text font-size="12px" text-anchor="middle" x="240.0" y="144.0">φ(·)</text><line stroke="black" stroke-width="1.2" x1="260.0" x2="320.0" y1="140.0" y2="140.0"/><text font-size="12px" x="330.0" y="144.0">y_k</text><text font-size="16px" font-weight="bold" text-anchor="middle" x="200.0" y="25">McCulloch–Pitts Neuron</text></svg>