<?xml version="1.0" encoding="utf-8" standalone="no"?>
<!DOCTYPE svg PUBLIC "-//W3C//DTD SVG 1.1//EN"
  "http://www.w3.org/Graphics/SVG/1.1/DTD/svg11.dtd">
<svg xmlns:xlink="http://www.w3.org/1999/xlink" width="265.5pt" height="295.735313pt" viewBox="0 0 265.5 295.735313" xmlns="http://www.w3.org/2000/svg" version="1.1">
 <metadata>
  <rdf:RDF xmlns:dc="http://purl.org/dc/elements/1.1/" xmlns:cc="http://creativecommons.org/ns#" xmlns:rdf="http://www.w3.org/1999/02/22-rdf-syntax-ns#">
   <cc:Work>
    <dc:type rdf:resource="http://purl.org/dc/dcmitype/StillImage"/>
    <dc:date>2026-03-23T15:54:11.172499</dc:date>
    <dc:format>image/svg+xml</dc:format>
    <dc:creator>
     <cc:Agent>
      <dc:title>Matplotlib v3.10.8, https://matplotlib.org/</dc:title>
     </cc:Agent>
    </dc:creator>
   </cc:Work>
  </rdf:RDF>
 </metadata>
 <defs>
  <style type="text/css">*{stroke-linejoin: round; stroke-linecap: butt}</style>
 </defs>
 <g id="figure_1">
  <g id="patch_1">
   <path d="M 0 295.735313 
L 265.5 295.735313 
L 265.5 0 
L 0 0 
z
" style="fill: #ffffff"/>
  </g>
  <g id="axes_1">
   <g id="patch_2">
    <path d="M 50.869565 80.635312 
L 61.786957 80.635312 
L 61.786957 28.660312 
L 50.869565 28.660312 
z
" clip-path="url(#p5d49c85772)" style="fill: #33cc66; stroke: #000000; stroke-linejoin: miter"/>
   </g>
   <g id="patch_3">
    <path d="M 50.869565 158.597813 
L 61.786957 158.597813 
L 61.786957 106.622812 
L 50.869565 106.622812 
z
" clip-path="url(#p5d49c85772)" style="fill: #3366ff; stroke: #000000; stroke-linejoin: miter"/>
   </g>
   <g id="patch_4">
    <path d="M 50.869565 236.560313 
L 61.786957 236.560313 
L 61.786957 184.585312 
L 50.869565 184.585312 
z
" clip-path="url(#p5d49c85772)" style="fill: #ff9933; stroke: #000000; stroke-linejoin: miter"/>
   </g>
   <g id="patch_5">
    <path d="M 56.328261 83.978676 
Q 56.328261 93.630028 56.328261 104.623022 
" clip-path="url(#p5d49c85772)" style="fill: none; stroke: #000000; stroke-width: 1.2; stroke-linecap: round"/>
    <path d="M 53.928261 88.778676 
L 56.328261 83.978676 
L 58.728261 88.778676 
" clip-path="url(#p5d49c85772)" style="fill: none; stroke: #000000; stroke-width: 1.2; stroke-linecap: round"/>
   </g>
   <g id="patch_6">
    <path d="M 56.328261 161.941176 
Q 56.328261 171.592528 56.328261 182.585522 
" clip-path="url(#p5d49c85772)" style="fill: none; stroke: #000000; stroke-width: 1.2; stroke-linecap: round"/>
    <path d="M 53.928261 166.741176 
L 56.328261 161.941176 
L 58.728261 166.741176 
" clip-path="url(#p5d49c85772)" style="fill: none; stroke: #000000; stroke-width: 1.2; stroke-linecap: round"/>
   </g>
   <g id="patch_7">
    <path d="M 105.456522 80.635312 
L 116.373913 80.635312 
L 116.373913 28.660312 
L 105.456522 28.660312 
z
" clip-path="url(#p5d49c85772)" style="fill: #33cc66; stroke: #000000; stroke-linejoin: miter"/>
   </g>
   <g id="patch_8">
    <path d="M 105.456522 158.597813 
L 116.373913 158.597813 
L 116.373913 106.622812 
L 105.456522 106.622812 
z
" clip-path="url(#p5d49c85772)" style="fill: #3366ff; stroke: #000000; stroke-linejoin: miter"/>
   </g>
   <g id="patch_9">
    <path d="M 105.456522 236.560313 
L 116.373913 236.560313 
L 116.373913 184.585312 
L 105.456522 184.585312 
z
" clip-path="url(#p5d49c85772)" style="fill: #ff9933; stroke: #000000; stroke-linejoin: miter"/>
   </g>
   <g id="patch_10">
    <path d="M 110.915217 83.978676 
Q 110.915217 93.630028 110.915217 104.623022 
" clip-path="url(#p5d49c85772)" style="fill: none; stroke: #000000; stroke-width: 1.2; stroke-linecap: round"/>
    <path d="M 108.515217 88.778676 
L 110.915217 83.978676 
L 113.315217 88.778676 
" clip-path="url(#p5d49c85772)" style="fill: none; stroke: #000000; stroke-width: 1.2; stroke-linecap: round"/>
   </g>
   <g id="patch_11">
    <path d="M 110.915217 161.941176 
Q 110.915217 171.592528 110.915217 182.585522 
" clip-path="url(#p5d49c85772)" style="fill: none; stroke: #000000; stroke-width: 1.2; stroke-linecap: round"/>
    <path d="M 108.515217 166.741176 
L 110.915217 161.941176 
L 113.315217 166.741176 
" clip-path="url(#p5d49c85772)" style="fill: none; stroke: #000000; stroke-width: 1.2; stroke-linecap: round"/>
   </g>
   <g id="patch_12">
    <path d="M 160.043478 80.635312 
L 170.96087 80.635312 
L 170.96087 28.660312 
L 160.043478 28.660312 
z
" clip-path="url(#p5d49c85772)" style="fill: #33cc66; stroke: #000000; stroke-linejoin: miter"/>
   </g>
   <g id="patch_13">
    <path d="M 160.043478 158.597813 
L 170.96087 158.597813 
L 170.96087 106.622812 
L 160.043478 106.622812 
z
" clip-path="url(#p5d49c85772)" style="fill: #3366ff; stroke: #000000; stroke-linejoin: miter"/>
   </g>
   <g id="patch_14">
    <path d="M 160.043478 236.560313 
L 170.96087 236.560313 
L 170.96087 184.585312 
L 160.043478 184.585312 
z
" clip-path="url(#p5d49c85772)" style="fill: #ff9933; stroke: #000000; stroke-linejoin: miter"/>
   </g>
   <g id="patch_15">
    <path d="M 165.502174 83.978676 
Q 165.502174 93.630028 165.502174 104.623022 
" clip-path="url(#p5d49c85772)" style="fill: none; stroke: #000000; stroke-width: 1.2; stroke-linecap: round"/>
    <path d="M 163.102174 88.778676 
L 165.502174 83.978676 
L 167.902174 88.778676 
" clip-path="url(#p5d49c85772)" style="fill: none; stroke: #000000; stroke-width: 1.2; stroke-linecap: round"/>
   </g>
   <g id="patch_16">
    <path d="M 165.502174 161.941176 
Q 165.502174 171.592528 165.502174 182.585522 
" clip-path="url(#p5d49c85772)" style="fill: none; stroke: #000000; stroke-width: 1.2; stroke-linecap: round"/>
    <path d="M 163.102174 166.741176 
L 165.502174 161.941176 
L 167.902174 166.741176 
" clip-path="url(#p5d49c85772)" style="fill: none; stroke: #000000; stroke-width: 1.2; stroke-linecap: round"/>
   </g>
   <g id="text_1">
    <!-- y_1 -->
    <g transform="translate(45.959511 16.045313) scale(0.12 -0.12)">
     <defs>
      <path id="DejaVuSans-79" d="M 2059 -325 
Q 1816 -950 1584 -1140 
Q 1353 -1331 966 -1331 
L 506 -1331 
L 506 -850 
L 844 -850 
Q 1081 -850 1212 -737 
Q 1344 -625 1503 -206 
L 1606 56 
L 191 3500 
L 800 3500 
L 1894 763 
L 2988 3500 
L 3597 3500 
L 2059 -325 
z
" transform="scale(0.015625)"/>
      <path id="DejaVuSans-5f" d="M 3263 -1063 
L 3263 -1509 
L -63 -1509 
L -63 -1063 
L 3263 -1063 
z
" transform="scale(0.015625)"/>
      <path id="DejaVuSans-31" d="M 794 531 
L 1825 531 
L 1825 4091 
L 703 3866 
L 703 4441 
L 1819 4666 
L 2450 4666 
L 2450 531 
L 3481 531 
L 3481 0 
L 794 0 
L 794 531 
z
" transform="scale(0.015625)"/>
     </defs>
     <use xlink:href="#DejaVuSans-79"/>
     <use xlink:href="#DejaVuSans-5f" transform="translate(59.179688 0)"/>
     <use xlink:href="#DejaVuSans-31" transform="translate(109.179688 0)"/>
    </g>
   </g>
   <g id="text_2">
    <!-- x_1 -->
    <g transform="translate(45.959511 255.130313) scale(0.12 -0.12)">
     <defs>
      <path id="DejaVuSans-78" d="M 3513 3500 
L 2247 1797 
L 3578 0 
L 2900 0 
L 1881 1375 
L 863 0 
L 184 0 
L 1544 1831 
L 300 3500 
L 978 3500 
L 1906 2253 
L 2834 3500 
L 3513 3500 
z
" transform="scale(0.015625)"/>
     </defs>
     <use xlink:href="#DejaVuSans-78"/>
     <use xlink:href="#DejaVuSans-5f" transform="translate(59.179688 0)"/>
     <use xlink:href="#DejaVuSans-31" transform="translate(109.179688 0)"/>
    </g>
   </g>
   <g id="text_3">
    <!-- y_2 -->
    <g transform="translate(100.546467 16.10625) scale(0.12 -0.12)">
     <defs>
      <path id="DejaVuSans-32" d="M 1228 531 
L 3431 531 
L 3431 0 
L 469 0 
L 469 531 
Q 828 903 1448 1529 
Q 2069 2156 2228 2338 
Q 2531 2678 2651 2914 
Q 2772 3150 2772 3378 
Q 2772 3750 2511 3984 
Q 2250 4219 1831 4219 
Q 1534 4219 1204 4116 
Q 875 4013 500 3803 
L 500 4441 
Q 881 4594 1212 4672 
Q 1544 4750 1819 4750 
Q 2544 4750 2975 4387 
Q 3406 4025 3406 3419 
Q 3406 3131 3298 2873 
Q 3191 2616 2906 2266 
Q 2828 2175 2409 1742 
Q 1991 1309 1228 531 
z
" transform="scale(0.015625)"/>
     </defs>
     <use xlink:href="#DejaVuSans-79"/>
     <use xlink:href="#DejaVuSans-5f" transform="translate(59.179688 0)"/>
     <use xlink:href="#DejaVuSans-32" transform="translate(109.179688 0)"/>
    </g>
   </g>
   <g id="text_4">
    <!-- x_2 -->
    <g transform="translate(100.546467 255.19125) scale(0.12 -0.12)">
     <use xlink:href="#DejaVuSans-78"/>
     <use xlink:href="#DejaVuSans-5f" transform="translate(59.179688 0)"/>
     <use xlink:href="#DejaVuSans-32" transform="translate(109.179688 0)"/>
    </g>
   </g>
   <g id="text_5">
    <!-- y_3 -->
    <g transform="translate(155.133424 16.10625) scale(0.12 -0.12)">
     <defs>
      <path id="DejaVuSans-33" d="M 2597 2516 
Q 3050 2419 3304 2112 
Q 3559 1806 3559 1356 
Q 3559 666 3084 287 
Q 2609 -91 1734 -91 
Q 1441 -91 1130 -33 
Q 819 25 488 141 
L 488 750 
Q 750 597 1062 519 
Q 1375 441 1716 441 
Q 2309 441 2620 675 
Q 2931 909 2931 1356 
Q 2931 1769 2642 2001 
Q 2353 2234 1838 2234 
L 1294 2234 
L 1294 2753 
L 1863 2753 
Q 2328 2753 2575 2939 
Q 2822 3125 2822 3475 
Q 2822 3834 2567 4026 
Q 2313 4219 1838 4219 
Q 1578 4219 1281 4162 
Q 984 4106 628 3988 
L 628 4550 
Q 988 4650 1302 4700 
Q 1616 4750 1894 4750 
Q 2613 4750 3031 4423 
Q 3450 4097 3450 3541 
Q 3450 3153 3228 2886 
Q 3006 2619 2597 2516 
z
" transform="scale(0.015625)"/>
     </defs>
     <use xlink:href="#DejaVuSans-79"/>
     <use xlink:href="#DejaVuSans-5f" transform="translate(59.179688 0)"/>
     <use xlink:href="#DejaVuSans-33" transform="translate(109.179688 0)"/>
    </g>
   </g>
   <g id="text_6">
    <!-- x_3 -->
    <g transform="translate(155.133424 255.19125) scale(0.12 -0.12)">
     <use xlink:href="#DejaVuSans-78"/>
     <use xlink:href="#DejaVuSans-5f" transform="translate(59.179688 0)"/>
     <use xlink:href="#DejaVuSans-33" transform="translate(109.179688 0)"/>
    </g>
   </g>
  </g>
 </g>
 <defs>
  <clipPath id="p5d49c85772">
   <rect x="7.2" y="11.335312" width="251.1" height="277.2"/>
  </clipPath>
 </defs>
</svg>
