<?xml version="1.0" encoding="utf-8" standalone="no"?>
<!DOCTYPE svg PUBLIC "-//W3C//DTD SVG 1.1//EN"
  "http://www.w3.org/Graphics/SVG/1.1/DTD/svg11.dtd">
<svg xmlns:xlink="http://www.w3.org/1999/xlink" width="432.9pt" height="295.674375pt" viewBox="0 0 432.9 295.674375" xmlns="http://www.w3.org/2000/svg" version="1.1">
 <metadata>
  <rdf:RDF xmlns:dc="http://purl.org/dc/elements/1.1/" xmlns:cc="http://creativecommons.org/ns#" xmlns:rdf="http://www.w3.org/1999/02/22-rdf-syntax-ns#">
   <cc:Work>
    <dc:type rdf:resource="http://purl.org/dc/dcmitype/StillImage"/>
    <dc:date>2026-03-30T13:02:32.448361</dc:date>
    <dc:format>image/svg+xml</dc:format>
    <dc:creator>
     <cc:Agent>
      <dc:title>Matplotlib v3.10.8, https://matplotlib.org/</dc:title>
     </cc:Agent>
    </dc:creator>
   </cc:Work>
  </rdf:RDF>
 </metadata>
 <defs>
  <style type="text/css">*{stroke-linejoin: round; stroke-linecap: butt}</style>
 </defs>
 <g id="figure_1">
  <g id="patch_1">
   <path d="M 0 295.674375 
L 432.9 295.674375 
L 432.9 0 
L 0 0 
z
" style="fill: #ffffff"/>
  </g>
  <g id="axes_1">
   <g id="patch_2">
    <path d="M 57.927273 80.574375 
L 70.609091 80.574375 
L 70.609091 28.599375 
L 57.927273 28.599375 
z
" clip-path="url(#pd288b681d0)" style="fill: #33cc66; stroke: #000000; stroke-linejoin: miter"/>
   </g>
   <g id="patch_3">
    <path d="M 57.927273 158.536875 
L 70.609091 158.536875 
L 70.609091 106.561875 
L 57.927273 106.561875 
z
" clip-path="url(#pd288b681d0)" style="fill: #3366ff; stroke: #000000; stroke-linejoin: miter"/>
   </g>
   <g id="patch_4">
    <path d="M 57.927273 236.499375 
L 70.609091 236.499375 
L 70.609091 184.524375 
L 57.927273 184.524375 
z
" clip-path="url(#pd288b681d0)" style="fill: #ff9933; stroke: #000000; stroke-linejoin: miter"/>
   </g>
   <g id="patch_5">
    <path d="M 64.268182 83.917739 
Q 64.268182 93.569091 64.268182 104.562084 
" clip-path="url(#pd288b681d0)" style="fill: none; stroke: #000000; stroke-width: 1.2; stroke-linecap: round"/>
    <path d="M 61.868182 88.717739 
L 64.268182 83.917739 
L 66.668182 88.717739 
" clip-path="url(#pd288b681d0)" style="fill: none; stroke: #000000; stroke-width: 1.2; stroke-linecap: round"/>
   </g>
   <g id="patch_6">
    <path d="M 64.268182 161.880239 
Q 64.268182 171.531591 64.268182 182.524584 
" clip-path="url(#pd288b681d0)" style="fill: none; stroke: #000000; stroke-width: 1.2; stroke-linecap: round"/>
    <path d="M 61.868182 166.680239 
L 64.268182 161.880239 
L 66.668182 166.680239 
" clip-path="url(#pd288b681d0)" style="fill: none; stroke: #000000; stroke-width: 1.2; stroke-linecap: round"/>
   </g>
   <g id="patch_7">
    <path d="M 121.336364 80.574375 
L 134.018182 80.574375 
L 134.018182 28.599375 
L 121.336364 28.599375 
z
" clip-path="url(#pd288b681d0)" style="fill: #33cc66; stroke: #000000; stroke-linejoin: miter"/>
   </g>
   <g id="patch_8">
    <path d="M 121.336364 158.536875 
L 134.018182 158.536875 
L 134.018182 106.561875 
L 121.336364 106.561875 
z
" clip-path="url(#pd288b681d0)" style="fill: #3366ff; stroke: #000000; stroke-linejoin: miter"/>
   </g>
   <g id="patch_9">
    <path d="M 121.336364 236.499375 
L 134.018182 236.499375 
L 134.018182 184.524375 
L 121.336364 184.524375 
z
" clip-path="url(#pd288b681d0)" style="fill: #ff9933; stroke: #000000; stroke-linejoin: miter"/>
   </g>
   <g id="patch_10">
    <path d="M 127.677273 83.917739 
Q 127.677273 93.569091 127.677273 104.562084 
" clip-path="url(#pd288b681d0)" style="fill: none; stroke: #000000; stroke-width: 1.2; stroke-linecap: round"/>
    <path d="M 125.277273 88.717739 
L 127.677273 83.917739 
L 130.077273 88.717739 
" clip-path="url(#pd288b681d0)" style="fill: none; stroke: #000000; stroke-width: 1.2; stroke-linecap: round"/>
   </g>
   <g id="patch_11">
    <path d="M 127.677273 161.880239 
Q 127.677273 171.531591 127.677273 182.524584 
" clip-path="url(#pd288b681d0)" style="fill: none; stroke: #000000; stroke-width: 1.2; stroke-linecap: round"/>
    <path d="M 125.277273 166.680239 
L 127.677273 161.880239 
L 130.077273 166.680239 
" clip-path="url(#pd288b681d0)" style="fill: none; stroke: #000000; stroke-width: 1.2; stroke-linecap: round"/>
   </g>
   <g id="patch_12">
    <path d="M 184.745455 80.574375 
L 197.427273 80.574375 
L 197.427273 28.599375 
L 184.745455 28.599375 
z
" clip-path="url(#pd288b681d0)" style="fill: #33cc66; stroke: #000000; stroke-linejoin: miter"/>
   </g>
   <g id="patch_13">
    <path d="M 184.745455 158.536875 
L 197.427273 158.536875 
L 197.427273 106.561875 
L 184.745455 106.561875 
z
" clip-path="url(#pd288b681d0)" style="fill: #3366ff; stroke: #000000; stroke-linejoin: miter"/>
   </g>
   <g id="patch_14">
    <path d="M 184.745455 236.499375 
L 197.427273 236.499375 
L 197.427273 184.524375 
L 184.745455 184.524375 
z
" clip-path="url(#pd288b681d0)" style="fill: #ff9933; stroke: #000000; stroke-linejoin: miter"/>
   </g>
   <g id="patch_15">
    <path d="M 191.086364 83.917739 
Q 191.086364 93.569091 191.086364 104.562084 
" clip-path="url(#pd288b681d0)" style="fill: none; stroke: #000000; stroke-width: 1.2; stroke-linecap: round"/>
    <path d="M 188.686364 88.717739 
L 191.086364 83.917739 
L 193.486364 88.717739 
" clip-path="url(#pd288b681d0)" style="fill: none; stroke: #000000; stroke-width: 1.2; stroke-linecap: round"/>
   </g>
   <g id="patch_16">
    <path d="M 191.086364 161.880239 
Q 191.086364 171.531591 191.086364 182.524584 
" clip-path="url(#pd288b681d0)" style="fill: none; stroke: #000000; stroke-width: 1.2; stroke-linecap: round"/>
    <path d="M 188.686364 166.680239 
L 191.086364 161.880239 
L 193.486364 166.680239 
" clip-path="url(#pd288b681d0)" style="fill: none; stroke: #000000; stroke-width: 1.2; stroke-linecap: round"/>
   </g>
   <g id="patch_17">
    <path d="M 248.154545 80.574375 
L 260.836364 80.574375 
L 260.836364 28.599375 
L 248.154545 28.599375 
z
" clip-path="url(#pd288b681d0)" style="fill: #33cc66; stroke: #000000; stroke-linejoin: miter"/>
   </g>
   <g id="patch_18">
    <path d="M 248.154545 158.536875 
L 260.836364 158.536875 
L 260.836364 106.561875 
L 248.154545 106.561875 
z
" clip-path="url(#pd288b681d0)" style="fill: #3366ff; stroke: #000000; stroke-linejoin: miter"/>
   </g>
   <g id="patch_19">
    <path d="M 248.154545 236.499375 
L 260.836364 236.499375 
L 260.836364 184.524375 
L 248.154545 184.524375 
z
" clip-path="url(#pd288b681d0)" style="fill: #ff9933; stroke: #000000; stroke-linejoin: miter"/>
   </g>
   <g id="patch_20">
    <path d="M 254.495455 83.917739 
Q 254.495455 93.569091 254.495455 104.562084 
" clip-path="url(#pd288b681d0)" style="fill: none; stroke: #000000; stroke-width: 1.2; stroke-linecap: round"/>
    <path d="M 252.095455 88.717739 
L 254.495455 83.917739 
L 256.895455 88.717739 
" clip-path="url(#pd288b681d0)" style="fill: none; stroke: #000000; stroke-width: 1.2; stroke-linecap: round"/>
   </g>
   <g id="patch_21">
    <path d="M 254.495455 161.880239 
Q 254.495455 171.531591 254.495455 182.524584 
" clip-path="url(#pd288b681d0)" style="fill: none; stroke: #000000; stroke-width: 1.2; stroke-linecap: round"/>
    <path d="M 252.095455 166.680239 
L 254.495455 161.880239 
L 256.895455 166.680239 
" clip-path="url(#pd288b681d0)" style="fill: none; stroke: #000000; stroke-width: 1.2; stroke-linecap: round"/>
   </g>
   <g id="patch_22">
    <path d="M 311.563636 80.574375 
L 324.245455 80.574375 
L 324.245455 28.599375 
L 311.563636 28.599375 
z
" clip-path="url(#pd288b681d0)" style="fill: #33cc66; stroke: #000000; stroke-linejoin: miter"/>
   </g>
   <g id="patch_23">
    <path d="M 311.563636 158.536875 
L 324.245455 158.536875 
L 324.245455 106.561875 
L 311.563636 106.561875 
z
" clip-path="url(#pd288b681d0)" style="fill: #3366ff; stroke: #000000; stroke-linejoin: miter"/>
   </g>
   <g id="patch_24">
    <path d="M 311.563636 236.499375 
L 324.245455 236.499375 
L 324.245455 184.524375 
L 311.563636 184.524375 
z
" clip-path="url(#pd288b681d0)" style="fill: #ff9933; stroke: #000000; stroke-linejoin: miter"/>
   </g>
   <g id="patch_25">
    <path d="M 317.904545 83.917739 
Q 317.904545 93.569091 317.904545 104.562084 
" clip-path="url(#pd288b681d0)" style="fill: none; stroke: #000000; stroke-width: 1.2; stroke-linecap: round"/>
    <path d="M 315.504545 88.717739 
L 317.904545 83.917739 
L 320.304545 88.717739 
" clip-path="url(#pd288b681d0)" style="fill: none; stroke: #000000; stroke-width: 1.2; stroke-linecap: round"/>
   </g>
   <g id="patch_26">
    <path d="M 317.904545 161.880239 
Q 317.904545 171.531591 317.904545 182.524584 
" clip-path="url(#pd288b681d0)" style="fill: none; stroke: #000000; stroke-width: 1.2; stroke-linecap: round"/>
    <path d="M 315.504545 166.680239 
L 317.904545 161.880239 
L 320.304545 166.680239 
" clip-path="url(#pd288b681d0)" style="fill: none; stroke: #000000; stroke-width: 1.2; stroke-linecap: round"/>
   </g>
   <g id="text_1">
    <!-- NOUN -->
    <g transform="translate(46.176307 16.318125) scale(0.12 -0.12)">
     <defs>
      <path id="DejaVuSans-4e" d="M 628 4666 
L 1478 4666 
L 3547 763 
L 3547 4666 
L 4159 4666 
L 4159 0 
L 3309 0 
L 1241 3903 
L 1241 0 
L 628 0 
L 628 4666 
z
" transform="scale(0.015625)"/>
      <path id="DejaVuSans-4f" d="M 2522 4238 
Q 1834 4238 1429 3725 
Q 1025 3213 1025 2328 
Q 1025 1447 1429 934 
Q 1834 422 2522 422 
Q 3209 422 3611 934 
Q 4013 1447 4013 2328 
Q 4013 3213 3611 3725 
Q 3209 4238 2522 4238 
z
M 2522 4750 
Q 3503 4750 4090 4092 
Q 4678 3434 4678 2328 
Q 4678 1225 4090 567 
Q 3503 -91 2522 -91 
Q 1538 -91 948 565 
Q 359 1222 359 2328 
Q 359 3434 948 4092 
Q 1538 4750 2522 4750 
z
" transform="scale(0.015625)"/>
      <path id="DejaVuSans-55" d="M 556 4666 
L 1191 4666 
L 1191 1831 
Q 1191 1081 1462 751 
Q 1734 422 2344 422 
Q 2950 422 3222 751 
Q 3494 1081 3494 1831 
L 3494 4666 
L 4128 4666 
L 4128 1753 
Q 4128 841 3676 375 
Q 3225 -91 2344 -91 
Q 1459 -91 1007 375 
Q 556 841 556 1753 
L 556 4666 
z
" transform="scale(0.015625)"/>
     </defs>
     <use xlink:href="#DejaVuSans-4e"/>
     <use xlink:href="#DejaVuSans-4f" transform="translate(74.804688 0)"/>
     <use xlink:href="#DejaVuSans-55" transform="translate(153.515625 0)"/>
     <use xlink:href="#DejaVuSans-4e" transform="translate(226.708984 0)"/>
    </g>
   </g>
   <g id="text_2">
    <!-- man -->
    <g transform="translate(50.944432 255.403125) scale(0.12 -0.12)">
     <defs>
      <path id="DejaVuSans-6d" d="M 3328 2828 
Q 3544 3216 3844 3400 
Q 4144 3584 4550 3584 
Q 5097 3584 5394 3201 
Q 5691 2819 5691 2113 
L 5691 0 
L 5113 0 
L 5113 2094 
Q 5113 2597 4934 2840 
Q 4756 3084 4391 3084 
Q 3944 3084 3684 2787 
Q 3425 2491 3425 1978 
L 3425 0 
L 2847 0 
L 2847 2094 
Q 2847 2600 2669 2842 
Q 2491 3084 2119 3084 
Q 1678 3084 1418 2786 
Q 1159 2488 1159 1978 
L 1159 0 
L 581 0 
L 581 3500 
L 1159 3500 
L 1159 2956 
Q 1356 3278 1631 3431 
Q 1906 3584 2284 3584 
Q 2666 3584 2933 3390 
Q 3200 3197 3328 2828 
z
" transform="scale(0.015625)"/>
      <path id="DejaVuSans-61" d="M 2194 1759 
Q 1497 1759 1228 1600 
Q 959 1441 959 1056 
Q 959 750 1161 570 
Q 1363 391 1709 391 
Q 2188 391 2477 730 
Q 2766 1069 2766 1631 
L 2766 1759 
L 2194 1759 
z
M 3341 1997 
L 3341 0 
L 2766 0 
L 2766 531 
Q 2569 213 2275 61 
Q 1981 -91 1556 -91 
Q 1019 -91 701 211 
Q 384 513 384 1019 
Q 384 1609 779 1909 
Q 1175 2209 1959 2209 
L 2766 2209 
L 2766 2266 
Q 2766 2663 2505 2880 
Q 2244 3097 1772 3097 
Q 1472 3097 1187 3025 
Q 903 2953 641 2809 
L 641 3341 
Q 956 3463 1253 3523 
Q 1550 3584 1831 3584 
Q 2591 3584 2966 3190 
Q 3341 2797 3341 1997 
z
" transform="scale(0.015625)"/>
      <path id="DejaVuSans-6e" d="M 3513 2113 
L 3513 0 
L 2938 0 
L 2938 2094 
Q 2938 2591 2744 2837 
Q 2550 3084 2163 3084 
Q 1697 3084 1428 2787 
Q 1159 2491 1159 1978 
L 1159 0 
L 581 0 
L 581 3500 
L 1159 3500 
L 1159 2956 
Q 1366 3272 1645 3428 
Q 1925 3584 2291 3584 
Q 2894 3584 3203 3211 
Q 3513 2838 3513 2113 
z
" transform="scale(0.015625)"/>
     </defs>
     <use xlink:href="#DejaVuSans-6d"/>
     <use xlink:href="#DejaVuSans-61" transform="translate(97.412109 0)"/>
     <use xlink:href="#DejaVuSans-6e" transform="translate(158.691406 0)"/>
    </g>
   </g>
   <g id="text_3">
    <!-- VERB -->
    <g transform="translate(111.496023 16.318125) scale(0.12 -0.12)">
     <defs>
      <path id="DejaVuSans-56" d="M 1831 0 
L 50 4666 
L 709 4666 
L 2188 738 
L 3669 4666 
L 4325 4666 
L 2547 0 
L 1831 0 
z
" transform="scale(0.015625)"/>
      <path id="DejaVuSans-45" d="M 628 4666 
L 3578 4666 
L 3578 4134 
L 1259 4134 
L 1259 2753 
L 3481 2753 
L 3481 2222 
L 1259 2222 
L 1259 531 
L 3634 531 
L 3634 0 
L 628 0 
L 628 4666 
z
" transform="scale(0.015625)"/>
      <path id="DejaVuSans-52" d="M 2841 2188 
Q 3044 2119 3236 1894 
Q 3428 1669 3622 1275 
L 4263 0 
L 3584 0 
L 2988 1197 
Q 2756 1666 2539 1819 
Q 2322 1972 1947 1972 
L 1259 1972 
L 1259 0 
L 628 0 
L 628 4666 
L 2053 4666 
Q 2853 4666 3247 4331 
Q 3641 3997 3641 3322 
Q 3641 2881 3436 2590 
Q 3231 2300 2841 2188 
z
M 1259 4147 
L 1259 2491 
L 2053 2491 
Q 2509 2491 2742 2702 
Q 2975 2913 2975 3322 
Q 2975 3731 2742 3939 
Q 2509 4147 2053 4147 
L 1259 4147 
z
" transform="scale(0.015625)"/>
      <path id="DejaVuSans-42" d="M 1259 2228 
L 1259 519 
L 2272 519 
Q 2781 519 3026 730 
Q 3272 941 3272 1375 
Q 3272 1813 3026 2020 
Q 2781 2228 2272 2228 
L 1259 2228 
z
M 1259 4147 
L 1259 2741 
L 2194 2741 
Q 2656 2741 2882 2914 
Q 3109 3088 3109 3444 
Q 3109 3797 2882 3972 
Q 2656 4147 2194 4147 
L 1259 4147 
z
M 628 4666 
L 2241 4666 
Q 2963 4666 3353 4366 
Q 3744 4066 3744 3513 
Q 3744 3084 3544 2831 
Q 3344 2578 2956 2516 
Q 3422 2416 3680 2098 
Q 3938 1781 3938 1306 
Q 3938 681 3513 340 
Q 3088 0 2303 0 
L 628 0 
L 628 4666 
z
" transform="scale(0.015625)"/>
     </defs>
     <use xlink:href="#DejaVuSans-56"/>
     <use xlink:href="#DejaVuSans-45" transform="translate(68.408203 0)"/>
     <use xlink:href="#DejaVuSans-52" transform="translate(131.591797 0)"/>
     <use xlink:href="#DejaVuSans-42" transform="translate(201.074219 0)"/>
    </g>
   </g>
   <g id="text_4">
    <!-- is -->
    <g transform="translate(122.884773 255.403125) scale(0.12 -0.12)">
     <defs>
      <path id="DejaVuSans-69" d="M 603 3500 
L 1178 3500 
L 1178 0 
L 603 0 
L 603 3500 
z
M 603 4863 
L 1178 4863 
L 1178 4134 
L 603 4134 
L 603 4863 
z
" transform="scale(0.015625)"/>
      <path id="DejaVuSans-73" d="M 2834 3397 
L 2834 2853 
Q 2591 2978 2328 3040 
Q 2066 3103 1784 3103 
Q 1356 3103 1142 2972 
Q 928 2841 928 2578 
Q 928 2378 1081 2264 
Q 1234 2150 1697 2047 
L 1894 2003 
Q 2506 1872 2764 1633 
Q 3022 1394 3022 966 
Q 3022 478 2636 193 
Q 2250 -91 1575 -91 
Q 1294 -91 989 -36 
Q 684 19 347 128 
L 347 722 
Q 666 556 975 473 
Q 1284 391 1588 391 
Q 1994 391 2212 530 
Q 2431 669 2431 922 
Q 2431 1156 2273 1281 
Q 2116 1406 1581 1522 
L 1381 1569 
Q 847 1681 609 1914 
Q 372 2147 372 2553 
Q 372 3047 722 3315 
Q 1072 3584 1716 3584 
Q 2034 3584 2315 3537 
Q 2597 3491 2834 3397 
z
" transform="scale(0.015625)"/>
     </defs>
     <use xlink:href="#DejaVuSans-69"/>
     <use xlink:href="#DejaVuSans-73" transform="translate(27.783203 0)"/>
    </g>
   </g>
   <g id="text_5">
    <!-- ARTICLE -->
    <g transform="translate(166.489176 16.318125) scale(0.12 -0.12)">
     <defs>
      <path id="DejaVuSans-41" d="M 2188 4044 
L 1331 1722 
L 3047 1722 
L 2188 4044 
z
M 1831 4666 
L 2547 4666 
L 4325 0 
L 3669 0 
L 3244 1197 
L 1141 1197 
L 716 0 
L 50 0 
L 1831 4666 
z
" transform="scale(0.015625)"/>
      <path id="DejaVuSans-54" d="M -19 4666 
L 3928 4666 
L 3928 4134 
L 2272 4134 
L 2272 0 
L 1638 0 
L 1638 4134 
L -19 4134 
L -19 4666 
z
" transform="scale(0.015625)"/>
      <path id="DejaVuSans-49" d="M 628 4666 
L 1259 4666 
L 1259 0 
L 628 0 
L 628 4666 
z
" transform="scale(0.015625)"/>
      <path id="DejaVuSans-43" d="M 4122 4306 
L 4122 3641 
Q 3803 3938 3442 4084 
Q 3081 4231 2675 4231 
Q 1875 4231 1450 3742 
Q 1025 3253 1025 2328 
Q 1025 1406 1450 917 
Q 1875 428 2675 428 
Q 3081 428 3442 575 
Q 3803 722 4122 1019 
L 4122 359 
Q 3791 134 3420 21 
Q 3050 -91 2638 -91 
Q 1578 -91 968 557 
Q 359 1206 359 2328 
Q 359 3453 968 4101 
Q 1578 4750 2638 4750 
Q 3056 4750 3426 4639 
Q 3797 4528 4122 4306 
z
" transform="scale(0.015625)"/>
      <path id="DejaVuSans-4c" d="M 628 4666 
L 1259 4666 
L 1259 531 
L 3531 531 
L 3531 0 
L 628 0 
L 628 4666 
z
" transform="scale(0.015625)"/>
     </defs>
     <use xlink:href="#DejaVuSans-41"/>
     <use xlink:href="#DejaVuSans-52" transform="translate(68.408203 0)"/>
     <use xlink:href="#DejaVuSans-54" transform="translate(130.640625 0)"/>
     <use xlink:href="#DejaVuSans-49" transform="translate(191.724609 0)"/>
     <use xlink:href="#DejaVuSans-43" transform="translate(221.216797 0)"/>
     <use xlink:href="#DejaVuSans-4c" transform="translate(291.041016 0)"/>
     <use xlink:href="#DejaVuSans-45" transform="translate(346.753906 0)"/>
    </g>
   </g>
   <g id="text_6">
    <!-- a -->
    <g transform="translate(187.409489 255.403125) scale(0.12 -0.12)">
     <use xlink:href="#DejaVuSans-61"/>
    </g>
   </g>
   <g id="text_7">
    <!-- ADJECTIVE -->
    <g transform="translate(222.68983 16.318125) scale(0.12 -0.12)">
     <defs>
      <path id="DejaVuSans-44" d="M 1259 4147 
L 1259 519 
L 2022 519 
Q 2988 519 3436 956 
Q 3884 1394 3884 2338 
Q 3884 3275 3436 3711 
Q 2988 4147 2022 4147 
L 1259 4147 
z
M 628 4666 
L 1925 4666 
Q 3281 4666 3915 4102 
Q 4550 3538 4550 2338 
Q 4550 1131 3912 565 
Q 3275 0 1925 0 
L 628 0 
L 628 4666 
z
" transform="scale(0.015625)"/>
      <path id="DejaVuSans-4a" d="M 628 4666 
L 1259 4666 
L 1259 325 
Q 1259 -519 939 -900 
Q 619 -1281 -91 -1281 
L -331 -1281 
L -331 -750 
L -134 -750 
Q 284 -750 456 -515 
Q 628 -281 628 325 
L 628 4666 
z
" transform="scale(0.015625)"/>
     </defs>
     <use xlink:href="#DejaVuSans-41"/>
     <use xlink:href="#DejaVuSans-44" transform="translate(68.408203 0)"/>
     <use xlink:href="#DejaVuSans-4a" transform="translate(145.410156 0)"/>
     <use xlink:href="#DejaVuSans-45" transform="translate(174.902344 0)"/>
     <use xlink:href="#DejaVuSans-43" transform="translate(238.085938 0)"/>
     <use xlink:href="#DejaVuSans-54" transform="translate(307.910156 0)"/>
     <use xlink:href="#DejaVuSans-49" transform="translate(368.994141 0)"/>
     <use xlink:href="#DejaVuSans-56" transform="translate(398.486328 0)"/>
     <use xlink:href="#DejaVuSans-45" transform="translate(466.894531 0)"/>
    </g>
   </g>
   <g id="text_8">
    <!-- social -->
    <g transform="translate(237.388892 255.403125) scale(0.12 -0.12)">
     <defs>
      <path id="DejaVuSans-6f" d="M 1959 3097 
Q 1497 3097 1228 2736 
Q 959 2375 959 1747 
Q 959 1119 1226 758 
Q 1494 397 1959 397 
Q 2419 397 2687 759 
Q 2956 1122 2956 1747 
Q 2956 2369 2687 2733 
Q 2419 3097 1959 3097 
z
M 1959 3584 
Q 2709 3584 3137 3096 
Q 3566 2609 3566 1747 
Q 3566 888 3137 398 
Q 2709 -91 1959 -91 
Q 1206 -91 779 398 
Q 353 888 353 1747 
Q 353 2609 779 3096 
Q 1206 3584 1959 3584 
z
" transform="scale(0.015625)"/>
      <path id="DejaVuSans-63" d="M 3122 3366 
L 3122 2828 
Q 2878 2963 2633 3030 
Q 2388 3097 2138 3097 
Q 1578 3097 1268 2742 
Q 959 2388 959 1747 
Q 959 1106 1268 751 
Q 1578 397 2138 397 
Q 2388 397 2633 464 
Q 2878 531 3122 666 
L 3122 134 
Q 2881 22 2623 -34 
Q 2366 -91 2075 -91 
Q 1284 -91 818 406 
Q 353 903 353 1747 
Q 353 2603 823 3093 
Q 1294 3584 2113 3584 
Q 2378 3584 2631 3529 
Q 2884 3475 3122 3366 
z
" transform="scale(0.015625)"/>
      <path id="DejaVuSans-6c" d="M 603 4863 
L 1178 4863 
L 1178 0 
L 603 0 
L 603 4863 
z
" transform="scale(0.015625)"/>
     </defs>
     <use xlink:href="#DejaVuSans-73"/>
     <use xlink:href="#DejaVuSans-6f" transform="translate(52.099609 0)"/>
     <use xlink:href="#DejaVuSans-63" transform="translate(113.28125 0)"/>
     <use xlink:href="#DejaVuSans-69" transform="translate(168.261719 0)"/>
     <use xlink:href="#DejaVuSans-61" transform="translate(196.044922 0)"/>
     <use xlink:href="#DejaVuSans-6c" transform="translate(257.324219 0)"/>
    </g>
   </g>
   <g id="text_9">
    <!-- NOUN -->
    <g transform="translate(299.81267 16.318125) scale(0.12 -0.12)">
     <use xlink:href="#DejaVuSans-4e"/>
     <use xlink:href="#DejaVuSans-4f" transform="translate(74.804688 0)"/>
     <use xlink:href="#DejaVuSans-55" transform="translate(153.515625 0)"/>
     <use xlink:href="#DejaVuSans-4e" transform="translate(226.708984 0)"/>
    </g>
   </g>
   <g id="text_10">
    <!-- animal -->
    <g transform="translate(297.57017 255.403125) scale(0.12 -0.12)">
     <use xlink:href="#DejaVuSans-61"/>
     <use xlink:href="#DejaVuSans-6e" transform="translate(61.279297 0)"/>
     <use xlink:href="#DejaVuSans-69" transform="translate(124.658203 0)"/>
     <use xlink:href="#DejaVuSans-6d" transform="translate(152.441406 0)"/>
     <use xlink:href="#DejaVuSans-61" transform="translate(249.853516 0)"/>
     <use xlink:href="#DejaVuSans-6c" transform="translate(311.132812 0)"/>
    </g>
   </g>
  </g>
 </g>
 <defs>
  <clipPath id="pd288b681d0">
   <rect x="7.2" y="11.274375" width="418.5" height="277.2"/>
  </clipPath>
 </defs>
</svg>
