<svg xmlns="http://www.w3.org/2000/svg" xmlns:ev="http://www.w3.org/2001/xml-events" xmlns:xlink="http://www.w3.org/1999/xlink" baseProfile="full" height="500px" version="1.1" width="900px"><defs><marker id="arrow" markerHeight="10" markerWidth="10" orient="auto" refX="10" refY="5"><path d="M0,0 L10,5 L0,10 z" fill="gray"/></marker></defs><text font-family="Arial" font-size="22px" text-anchor="middle" x="50%" y="40">Linear Regression as a Single-Layer Neural Network</text><text font-size="16px" text-anchor="middle" x="150" y="80">Input Layer (d features)</text><text font-size="16px" text-anchor="middle" x="750" y="80">Output Layer (linear act.)</text><circle cx="150" cy="180" fill="steelblue" r="22"/><text font-family="Arial" font-size="18px" x="110" y="185">$x_1$</text><line marker-end="url(#arrow)" stroke="gray" stroke-width="2" x1="172" x2="728" y1="180" y2="300"/><text fill="gray" font-size="14px" x="450.0" y="235.0">$w_i$</text><circle cx="150" cy="260" fill="steelblue" r="22"/><text font-family="Arial" font-size="18px" x="110" y="265">$x_2$</text><line marker-end="url(#arrow)" stroke="gray" stroke-width="2" x1="172" x2="728" y1="260" y2="300"/><text fill="gray" font-size="14px" x="450.0" y="275.0">$w_i$</text><circle cx="150" cy="340" fill="steelblue" r="22"/><text font-family="Arial" font-size="18px" x="110" y="345">$x_3$</text><line marker-end="url(#arrow)" stroke="gray" stroke-width="2" x1="172" x2="728" y1="340" y2="300"/><text fill="gray" font-size="14px" x="450.0" y="315.0">$w_i$</text><circle cx="150" cy="420" fill="steelblue" r="22"/><text font-family="Arial" font-size="18px" x="110" y="425">$x_d$</text><line marker-end="url(#arrow)" stroke="gray" stroke-width="2" x1="172" x2="728" y1="420" y2="300"/><text fill="gray" font-size="14px" x="450.0" y="355.0">$w_i$</text><circle cx="750" cy="300" fill="tomato" r="27"/><text fill="white" font-family="Arial" font-size="20px" text-anchor="middle" x="750" y="306">$\hat{y}$</text><text fill="dimgray" font-size="18px" text-anchor="middle" x="750" y="360">$+b$</text></svg>