<?xml version="1.0" encoding="utf-8" ?>
<svg baseProfile="full" height="500px" version="1.1" width="900px" xmlns="http://www.w3.org/2000/svg" xmlns:ev="http://www.w3.org/2001/xml-events" xmlns:xlink="http://www.w3.org/1999/xlink"><defs><marker id="id9" markerHeight="10" markerWidth="10" orient="auto" refX="5" refY="3"><path d="M0,0 L0,6 L6,3 z" fill="#2E4053" /></marker></defs><text alignment-baseline="middle" fill="#2E4053" font-family="sans-serif" font-size="14px" font-weight="bold" text-anchor="middle" x="190.0" y="80">Ich</text><text alignment-baseline="middle" fill="#2E4053" font-family="sans-serif" font-size="14px" font-weight="bold" text-anchor="middle" x="270.0" y="80">gehe</text><text alignment-baseline="middle" fill="#2E4053" font-family="sans-serif" font-size="14px" font-weight="bold" text-anchor="middle" x="350.0" y="80">nach</text><text alignment-baseline="middle" fill="#2E4053" font-family="sans-serif" font-size="14px" font-weight="bold" text-anchor="middle" x="430.0" y="80">Hause</text><text alignment-baseline="middle" fill="#2E4053" font-family="sans-serif" font-size="14px" font-weight="bold" text-anchor="middle" x="510.0" y="80">&lt;eos&gt;</text><text alignment-baseline="middle" fill="#2E4053" font-family="sans-serif" font-size="14px" font-weight="bold" text-anchor="middle" x="110" y="125.0">t1</text><text alignment-baseline="middle" fill="#2E4053" font-family="sans-serif" font-size="14px" font-weight="bold" text-anchor="middle" x="110" y="175.0">t2</text><text alignment-baseline="middle" fill="#2E4053" font-family="sans-serif" font-size="14px" font-weight="bold" text-anchor="middle" x="110" y="225.0">t3</text><rect fill="#fee7dd" height="50" stroke="#2E4053" stroke-width="1" width="80" x="150" y="100" /><rect fill="#fee7dd" height="50" stroke="#2E4053" stroke-width="1" width="80" x="230" y="100" /><rect fill="#fee7dd" height="50" stroke="#2E4053" stroke-width="1" width="80" x="310" y="100" /><rect fill="#67000c" height="50" stroke="#2E4053" stroke-width="1" width="80" x="390" y="100" /><rect fill="#fee7dd" height="50" stroke="#2E4053" stroke-width="1" width="80" x="150" y="150" /><rect fill="#fee7dd" height="50" stroke="#2E4053" stroke-width="1" width="80" x="230" y="150" /><rect fill="#fee7dd" height="50" stroke="#2E4053" stroke-width="1" width="80" x="310" y="150" /><rect fill="#67000c" height="50" stroke="#2E4053" stroke-width="1" width="80" x="390" y="150" /><rect fill="#fb8666" height="50" stroke="#2E4053" stroke-width="1" width="80" x="150" y="200" /><rect fill="#fb8666" height="50" stroke="#2E4053" stroke-width="1" width="80" x="230" y="200" /><rect fill="#fb8666" height="50" stroke="#2E4053" stroke-width="1" width="80" x="310" y="200" /><rect fill="#fff5f0" height="50" stroke="#2E4053" stroke-width="1" width="80" x="390" y="200" /></svg>