<?xml version="1.0" encoding="utf-8" ?>
<svg baseProfile="full" height="300px" version="1.1" width="900px" xmlns="http://www.w3.org/2000/svg" xmlns:ev="http://www.w3.org/2001/xml-events" xmlns:xlink="http://www.w3.org/1999/xlink"><defs><marker id="id17" markerHeight="10" markerWidth="10" orient="auto" refX="5" refY="3"><path d="M0,0 L0,6 L6,3 z" fill="#2E4053" /></marker></defs><rect fill="#AED6F1" height="50" stroke="#2E4053" stroke-width="2" width="60" x="60" y="60" /><text alignment-baseline="middle" fill="#2E4053" font-family="sans-serif" font-size="14px" font-weight="bold" text-anchor="middle" x="90" y="85">h1</text><rect fill="#F9E79F" height="60" stroke="#2E4053" stroke-width="2" width="60" x="60" y="140" /><text alignment-baseline="middle" fill="#2E4053" font-family="sans-serif" font-size="14px" font-weight="bold" text-anchor="middle" x="90" y="170">Ich</text><line marker-end="url(#id17)" stroke="#2E4053" stroke-width="2" x1="90" x2="90" y1="140" y2="110" /><rect fill="#AED6F1" height="50" stroke="#2E4053" stroke-width="2" width="60" x="200" y="60" /><text alignment-baseline="middle" fill="#2E4053" font-family="sans-serif" font-size="14px" font-weight="bold" text-anchor="middle" x="230" y="85">h2</text><rect fill="#F9E79F" height="60" stroke="#2E4053" stroke-width="2" width="60" x="200" y="140" /><text alignment-baseline="middle" fill="#2E4053" font-family="sans-serif" font-size="14px" font-weight="bold" text-anchor="middle" x="230" y="170">gehe</text><line marker-end="url(#id17)" stroke="#2E4053" stroke-width="2" x1="230" x2="230" y1="140" y2="110" /><rect fill="#AED6F1" height="50" stroke="#2E4053" stroke-width="2" width="60" x="340" y="60" /><text alignment-baseline="middle" fill="#2E4053" font-family="sans-serif" font-size="14px" font-weight="bold" text-anchor="middle" x="370" y="85">h3</text><rect fill="#F9E79F" height="60" stroke="#2E4053" stroke-width="2" width="60" x="340" y="140" /><text alignment-baseline="middle" fill="#2E4053" font-family="sans-serif" font-size="14px" font-weight="bold" text-anchor="middle" x="370" y="170">nach</text><line marker-end="url(#id17)" stroke="#2E4053" stroke-width="2" x1="370" x2="370" y1="140" y2="110" /><rect fill="#AED6F1" height="50" stroke="#2E4053" stroke-width="2" width="60" x="480" y="60" /><text alignment-baseline="middle" fill="#2E4053" font-family="sans-serif" font-size="14px" font-weight="bold" text-anchor="middle" x="510" y="85">h4</text><rect fill="#F9E79F" height="60" stroke="#2E4053" stroke-width="2" width="60" x="480" y="140" /><text alignment-baseline="middle" fill="#2E4053" font-family="sans-serif" font-size="14px" font-weight="bold" text-anchor="middle" x="510" y="170">Hause</text><line marker-end="url(#id17)" stroke="#2E4053" stroke-width="2" x1="510" x2="510" y1="140" y2="110" /><rect fill="#AED6F1" height="50" stroke="#2E4053" stroke-width="2" width="60" x="620" y="60" /><text alignment-baseline="middle" fill="#2E4053" font-family="sans-serif" font-size="14px" font-weight="bold" text-anchor="middle" x="650" y="85">h5</text><rect fill="#F9E79F" height="60" stroke="#2E4053" stroke-width="2" width="60" x="620" y="140" /><text alignment-baseline="middle" fill="#2E4053" font-family="sans-serif" font-size="14px" font-weight="bold" text-anchor="middle" x="650" y="170">&lt;eos&gt;</text><line marker-end="url(#id17)" stroke="#2E4053" stroke-width="2" x1="650" x2="650" y1="140" y2="110" /><line marker-end="url(#id17)" stroke="#2E4053" stroke-width="2" x1="120" x2="200" y1="85" y2="85" /><line marker-end="url(#id17)" stroke="#2E4053" stroke-width="2" x1="260" x2="340" y1="85" y2="85" /><line marker-end="url(#id17)" stroke="#2E4053" stroke-width="2" x1="400" x2="480" y1="85" y2="85" /><line marker-end="url(#id17)" stroke="#2E4053" stroke-width="2" x1="540" x2="620" y1="85" y2="85" /><circle cx="720" cy="85" fill="white" r="20" stroke="#2E4053" stroke-width="2" /><text alignment-baseline="middle" fill="#2E4053" font-family="sans-serif" font-size="16px" font-weight="bold" text-anchor="middle" x="720" y="90">z</text><rect fill="#FAD7A0" height="120" stroke="#2E4053" stroke-width="2" width="120" x="780" y="40" /><text alignment-baseline="middle" fill="#2E4053" font-family="sans-serif" font-size="16px" font-weight="bold" text-anchor="middle" x="840" y="100">Decoder</text><line marker-end="url(#id17)" stroke="#2E4053" stroke-width="2" x1="740" x2="780" y1="85" y2="100" /></svg>