<?xml version="1.0" encoding="utf-8" ?>
<svg baseProfile="full" height="260px" version="1.1" width="800px" xmlns="http://www.w3.org/2000/svg" xmlns:ev="http://www.w3.org/2001/xml-events" xmlns:xlink="http://www.w3.org/1999/xlink"><defs><marker id="id2" markerHeight="10" markerWidth="10" orient="auto" refX="5" refY="3"><path d="M0,0 L0,6 L6,3 z" fill="black" /></marker></defs><rect fill="rgb(100,150,255)" height="40" stroke="black" width="40" x="40" y="40" /><text font-size="10px" x="50" y="65">h1</text><rect fill="rgb(255,180,100)" height="50" stroke="black" width="40" x="40" y="110" /><text font-size="12px" x="45" y="145">Ich</text><line marker-end="url(#id2)" stroke="black" x1="60" x2="60" y1="110" y2="80" /><rect fill="rgb(100,150,255)" height="40" stroke="black" width="40" x="160" y="40" /><text font-size="10px" x="170" y="65">h2</text><rect fill="rgb(255,180,100)" height="50" stroke="black" width="40" x="160" y="110" /><text font-size="12px" x="165" y="145">gehe</text><line marker-end="url(#id2)" stroke="black" x1="180" x2="180" y1="110" y2="80" /><rect fill="rgb(100,150,255)" height="40" stroke="black" width="40" x="280" y="40" /><text font-size="10px" x="290" y="65">h3</text><rect fill="rgb(255,180,100)" height="50" stroke="black" width="40" x="280" y="110" /><text font-size="12px" x="285" y="145">nach</text><line marker-end="url(#id2)" stroke="black" x1="300" x2="300" y1="110" y2="80" /><rect fill="rgb(100,150,255)" height="40" stroke="black" width="40" x="400" y="40" /><text font-size="10px" x="410" y="65">h4</text><rect fill="rgb(255,180,100)" height="50" stroke="black" width="40" x="400" y="110" /><text font-size="12px" x="405" y="145">Hause</text><line marker-end="url(#id2)" stroke="black" x1="420" x2="420" y1="110" y2="80" /><rect fill="rgb(100,150,255)" height="40" stroke="black" width="40" x="520" y="40" /><text font-size="10px" x="530" y="65">h5</text><rect fill="rgb(255,180,100)" height="50" stroke="black" width="40" x="520" y="110" /><text font-size="12px" x="525" y="145">&lt;eos&gt;</text><line marker-end="url(#id2)" stroke="black" x1="540" x2="540" y1="110" y2="80" /><line marker-end="url(#id2)" stroke="black" x1="80" x2="160" y1="60" y2="60" /><line marker-end="url(#id2)" stroke="black" x1="200" x2="280" y1="60" y2="60" /><line marker-end="url(#id2)" stroke="black" x1="320" x2="400" y1="60" y2="60" /><line marker-end="url(#id2)" stroke="black" x1="440" x2="520" y1="60" y2="60" /><circle cx="600" cy="60" fill="white" r="15" stroke="black" /><text font-size="12px" x="595" y="65">z</text><rect fill="rgb(180,220,255)" height="80" stroke="black" width="80" x="640" y="40" /><text font-size="12px" x="650" y="85">Decoder</text><line marker-end="url(#id2)" stroke="black" x1="615" x2="640" y1="60" y2="80" /></svg>