<?xml version="1.0" encoding="utf-8" ?>
<svg baseProfile="full" height="420" version="1.1" viewBox="0 0 960 420" width="960" xmlns="http://www.w3.org/2000/svg" xmlns:ev="http://www.w3.org/2001/xml-events" xmlns:xlink="http://www.w3.org/1999/xlink"><defs><marker id="arrow" markerHeight="10" markerUnits="strokeWidth" markerWidth="10" orient="auto" refX="9" refY="5"><path d="M 0 0 L 10 5 L 0 10 z" fill="#4b5563" /></marker><style type="text/css"><![CDATA[
    .label { font-family: Arial, Helvetica, sans-serif; fill: #111827; }
    .small { font-size: 20px; }
    .medium { font-size: 24px; font-weight: 600; }
    .large { font-size: 28px; font-weight: 700; }
    .token { font-size: 26px; }
    .math { font-style: italic; font-size: 24px; }
    .caption { font-size: 18px; fill: #4b5563; }
    .edge { stroke: #4b5563; stroke-width: 3; fill: none; marker-end: url(#arrow); }
    .recur { stroke: #4b5563; stroke-width: 3; fill: none; marker-end: url(#arrow); }
    .input-box { fill: #fde68a; stroke: #b45309; stroke-width: 2; rx: 10; }
    .state-box { fill: #c7d2fe; stroke: #4338ca; stroke-width: 2; rx: 10; }
    .output-box { fill: #bbf7d0; stroke: #15803d; stroke-width: 2; rx: 10; }
    .dash { stroke-dasharray: 8 8; }
    ]]></style></defs><text class="label large" text-anchor="middle" x="480" y="38">RNN Language Model</text><text class="label caption" text-anchor="middle" x="480" y="68">Each hidden state summarizes the prefix and predicts the next token.</text><text class="label medium" x="78" y="316">Input tokens</text><text class="label medium" x="64" y="196">Hidden states</text><text class="label medium" x="72" y="96">Predictions</text><line class="recur" marker-end="url(#arrow)" x1="175" x2="305" y1="250" y2="250" /><line class="recur" marker-end="url(#arrow)" x1="345" x2="475" y1="250" y2="250" /><line class="recur" marker-end="url(#arrow)" x1="515" x2="645" y1="250" y2="250" /><line class="recur dash" marker-end="url(#arrow)" x1="685" x2="815" y1="250" y2="250" /><rect class="input-box" height="60" width="120" x="180" y="300" /><rect class="state-box" height="60" width="120" x="180" y="220" /><rect class="output-box" height="60" width="120" x="180" y="110" /><rect class="input-box" height="60" width="120" x="350" y="300" /><rect class="state-box" height="60" width="120" x="350" y="220" /><rect class="output-box" height="60" width="120" x="350" y="110" /><rect class="input-box" height="60" width="120" x="520" y="300" /><rect class="state-box" height="60" width="120" x="520" y="220" /><rect class="output-box" height="60" width="120" x="520" y="110" /><rect class="input-box" height="60" width="120" x="690" y="300" /><rect class="state-box" height="60" width="120" x="690" y="220" /><rect class="output-box" height="60" width="120" x="690" y="110" /><line class="edge" marker-end="url(#arrow)" x1="240" x2="240" y1="300" y2="282" /><line class="edge" marker-end="url(#arrow)" x1="240" x2="240" y1="220" y2="172" /><line class="edge" marker-end="url(#arrow)" x1="410" x2="410" y1="300" y2="282" /><line class="edge" marker-end="url(#arrow)" x1="410" x2="410" y1="220" y2="172" /><line class="edge" marker-end="url(#arrow)" x1="580" x2="580" y1="300" y2="282" /><line class="edge" marker-end="url(#arrow)" x1="580" x2="580" y1="220" y2="172" /><line class="edge" marker-end="url(#arrow)" x1="750" x2="750" y1="300" y2="282" /><line class="edge" marker-end="url(#arrow)" x1="750" x2="750" y1="220" y2="172" /><text class="label token" text-anchor="middle" x="240" y="338">&lt;GO&gt;</text><text class="label token" text-anchor="middle" x="410" y="338">I</text><text class="label token" text-anchor="middle" x="580" y="338">am</text><text class="label token" text-anchor="middle" x="750" y="338">home</text><text class="label math" text-anchor="middle" x="240" y="257">s₁</text><text class="label math" text-anchor="middle" x="410" y="257">s₂</text><text class="label math" text-anchor="middle" x="580" y="257">s₃</text><text class="label math" text-anchor="middle" x="750" y="257">s₄</text><text class="label token" text-anchor="middle" x="240" y="146">I</text><text class="label token" text-anchor="middle" x="410" y="146">am</text><text class="label token" text-anchor="middle" x="580" y="146">home</text><text class="label token" text-anchor="middle" x="750" y="146">today</text><text class="label small" x="136" y="336">xₜ</text><text class="label small" x="136" y="256">sₜ</text><text class="label small" x="126" y="146">ŷₜ</text><text class="label caption" x="216" y="205">summarize prefix</text><text class="label caption" x="700" y="205">predict next word</text><text class="label caption" x="826" y="255">repeat...</text></svg>