<?xml version="1.0" encoding="utf-8" ?>
<svg baseProfile="full" height="350" version="1.1" viewBox="0 0 985 350" width="985" xmlns="http://www.w3.org/2000/svg" xmlns:ev="http://www.w3.org/2001/xml-events" xmlns:xlink="http://www.w3.org/1999/xlink"><defs><marker id="rnn_cell_arrow" markerHeight="10" markerUnits="strokeWidth" markerWidth="10" orient="auto" refX="9" refY="5"><path d="M 0 0 L 10 5 L 0 10 z" fill="#111827" /></marker><style type="text/css"><![CDATA[
.rnn-label { font-family: Georgia, 'Times New Roman', serif; fill: #111827; font-size: 24px; font-style: italic; }
.rnn-small { font-size: 20px; }
.rnn-edge { stroke: #111827; stroke-width: 2.2; fill: none; marker-end: url(#rnn_cell_arrow); }
.rnn-box { stroke: #111827; stroke-width: 1.8; }
.rnn-input { fill: #f3b36f; }
.rnn-state { fill: #6f7ee8; }
.rnn-output { fill: #98f391; }
]]></style></defs><rect class="rnn-box rnn-output" height="80" width="36" x="52.0" y="50.0" /><rect class="rnn-box rnn-state" height="82" width="42" x="49.0" y="169.0" /><rect class="rnn-box rnn-input" height="62" width="36" x="52.0" y="294.0" /><text class="rnn-label rnn-small" text-anchor="middle" x="70" y="35">ŷ₁</text><text class="rnn-label" text-anchor="middle" x="92" y="145">V</text><text class="rnn-label" text-anchor="middle" x="104" y="215">s₁</text><text class="rnn-label" text-anchor="middle" x="94" y="282">U</text><text class="rnn-label rnn-small" text-anchor="middle" x="70" y="373">x₁</text><line class="rnn-edge" marker-end="url(#rnn_cell_arrow)" x1="70" x2="70" y1="294.0" y2="254.0" /><line class="rnn-edge" marker-end="url(#rnn_cell_arrow)" x1="70" x2="70" y1="169.0" y2="133.0" /><rect class="rnn-box rnn-output" height="80" width="36" x="197.0" y="50.0" /><rect class="rnn-box rnn-state" height="82" width="42" x="194.0" y="169.0" /><rect class="rnn-box rnn-input" height="62" width="36" x="197.0" y="294.0" /><text class="rnn-label rnn-small" text-anchor="middle" x="215" y="35">ŷ₂</text><text class="rnn-label" text-anchor="middle" x="237" y="145">V</text><text class="rnn-label" text-anchor="middle" x="249" y="215">s₂</text><text class="rnn-label" text-anchor="middle" x="239" y="282">U</text><text class="rnn-label rnn-small" text-anchor="middle" x="215" y="373">x₂</text><line class="rnn-edge" marker-end="url(#rnn_cell_arrow)" x1="215" x2="215" y1="294.0" y2="254.0" /><line class="rnn-edge" marker-end="url(#rnn_cell_arrow)" x1="215" x2="215" y1="169.0" y2="133.0" /><rect class="rnn-box rnn-output" height="80" width="36" x="342.0" y="50.0" /><rect class="rnn-box rnn-state" height="82" width="42" x="339.0" y="169.0" /><rect class="rnn-box rnn-input" height="62" width="36" x="342.0" y="294.0" /><text class="rnn-label rnn-small" text-anchor="middle" x="360" y="35">ŷ₃</text><text class="rnn-label" text-anchor="middle" x="382" y="145">V</text><text class="rnn-label" text-anchor="middle" x="394" y="215">s₃</text><text class="rnn-label" text-anchor="middle" x="384" y="282">U</text><text class="rnn-label rnn-small" text-anchor="middle" x="360" y="373">x₃</text><line class="rnn-edge" marker-end="url(#rnn_cell_arrow)" x1="360" x2="360" y1="294.0" y2="254.0" /><line class="rnn-edge" marker-end="url(#rnn_cell_arrow)" x1="360" x2="360" y1="169.0" y2="133.0" /><rect class="rnn-box rnn-output" height="80" width="36" x="487.0" y="50.0" /><rect class="rnn-box rnn-state" height="82" width="42" x="484.0" y="169.0" /><rect class="rnn-box rnn-input" height="62" width="36" x="487.0" y="294.0" /><text class="rnn-label rnn-small" text-anchor="middle" x="505" y="35">ŷ₄</text><text class="rnn-label" text-anchor="middle" x="527" y="145">V</text><text class="rnn-label" text-anchor="middle" x="539" y="215">s₄</text><text class="rnn-label" text-anchor="middle" x="529" y="282">U</text><text class="rnn-label rnn-small" text-anchor="middle" x="505" y="373">x₄</text><line class="rnn-edge" marker-end="url(#rnn_cell_arrow)" x1="505" x2="505" y1="294.0" y2="254.0" /><line class="rnn-edge" marker-end="url(#rnn_cell_arrow)" x1="505" x2="505" y1="169.0" y2="133.0" /><rect class="rnn-box rnn-output" height="80" width="36" x="632.0" y="50.0" /><rect class="rnn-box rnn-state" height="82" width="42" x="629.0" y="169.0" /><rect class="rnn-box rnn-input" height="62" width="36" x="632.0" y="294.0" /><text class="rnn-label rnn-small" text-anchor="middle" x="650" y="35">ŷ₅</text><text class="rnn-label" text-anchor="middle" x="672" y="145">V</text><text class="rnn-label" text-anchor="middle" x="684" y="215">s₅</text><text class="rnn-label" text-anchor="middle" x="674" y="282">U</text><text class="rnn-label rnn-small" text-anchor="middle" x="650" y="373">x₅</text><line class="rnn-edge" marker-end="url(#rnn_cell_arrow)" x1="650" x2="650" y1="294.0" y2="254.0" /><line class="rnn-edge" marker-end="url(#rnn_cell_arrow)" x1="650" x2="650" y1="169.0" y2="133.0" /><rect class="rnn-box rnn-output" height="80" width="36" x="777.0" y="50.0" /><rect class="rnn-box rnn-state" height="82" width="42" x="774.0" y="169.0" /><rect class="rnn-box rnn-input" height="62" width="36" x="777.0" y="294.0" /><text class="rnn-label rnn-small" text-anchor="middle" x="795" y="35">ŷ₆</text><text class="rnn-label" text-anchor="middle" x="817" y="145">V</text><text class="rnn-label" text-anchor="middle" x="829" y="215">s₆</text><text class="rnn-label" text-anchor="middle" x="819" y="282">U</text><text class="rnn-label rnn-small" text-anchor="middle" x="795" y="373">x₆</text><line class="rnn-edge" marker-end="url(#rnn_cell_arrow)" x1="795" x2="795" y1="294.0" y2="254.0" /><line class="rnn-edge" marker-end="url(#rnn_cell_arrow)" x1="795" x2="795" y1="169.0" y2="133.0" /><rect class="rnn-box rnn-output" height="80" width="36" x="897.0" y="50.0" /><rect class="rnn-box rnn-state" height="82" width="42" x="894.0" y="169.0" /><rect class="rnn-box rnn-input" height="62" width="36" x="897.0" y="294.0" /><text class="rnn-label rnn-small" text-anchor="middle" x="915" y="35">ŷₙ</text><text class="rnn-label" text-anchor="middle" x="937" y="145">V</text><text class="rnn-label" text-anchor="middle" x="949" y="215">sₙ</text><text class="rnn-label" text-anchor="middle" x="939" y="282">U</text><text class="rnn-label rnn-small" text-anchor="middle" x="915" y="373">xₙ</text><line class="rnn-edge" marker-end="url(#rnn_cell_arrow)" x1="915" x2="915" y1="294.0" y2="254.0" /><line class="rnn-edge" marker-end="url(#rnn_cell_arrow)" x1="915" x2="915" y1="169.0" y2="133.0" /><line class="rnn-edge" marker-end="url(#rnn_cell_arrow)" x1="101.0" x2="184.0" y1="210" y2="210" /><line class="rnn-edge" marker-end="url(#rnn_cell_arrow)" x1="246.0" x2="329.0" y1="210" y2="210" /><line class="rnn-edge" marker-end="url(#rnn_cell_arrow)" x1="391.0" x2="474.0" y1="210" y2="210" /><line class="rnn-edge" marker-end="url(#rnn_cell_arrow)" x1="536.0" x2="619.0" y1="210" y2="210" /><line class="rnn-edge" marker-end="url(#rnn_cell_arrow)" x1="681.0" x2="764.0" y1="210" y2="210" /><line class="rnn-edge" marker-end="url(#rnn_cell_arrow)" x1="826.0" x2="884.0" y1="210" y2="210" /><text class="rnn-label" text-anchor="middle" x="850.0" y="215">s₆ ...</text></svg>