<svg version="1.1" xmlns="http://www.w3.org/2000/svg" xmlns:xlink="http://www.w3.org/1999/xlink" width="161.785654pt" height="161.069608pt" viewBox="19.92528 -.000004 161.785654 161.069608">
<defs>
<path id="g0-116" d="M5.389788-5.061021H.498132L.358655-3.377335H.607721C.697385-4.632628 .896638-4.811955 2.002491-4.811955C2.560399-4.811955 2.590286-4.811955 2.590286-4.383562V-.757161C2.590286-.358655 2.550436-.249066 1.783313-.249066H1.574097V0C1.96264-.029888 2.550436-.029888 2.948941-.029888S3.935243-.029888 4.323786 0V-.249066H4.11457C3.347447-.249066 3.307597-.358655 3.307597-.757161V-4.383562C3.307597-4.811955 3.337484-4.811955 3.895392-4.811955C4.971357-4.811955 5.190535-4.64259 5.280199-3.377335H5.529265L5.389788-5.061021Z"/>
<path id="g2-47" d="M4.363636-7.0934C4.41345-7.222914 4.41345-7.252802 4.41345-7.272727C4.41345-7.382316 4.323786-7.47198 4.214197-7.47198C4.07472-7.47198 4.034869-7.372354 4.004981-7.272727L.607721 2.11208C.557908 2.241594 .557908 2.271482 .557908 2.291407C.557908 2.400996 .647572 2.49066 .757161 2.49066C.896638 2.49066 .936488 2.391034 .966376 2.291407L4.363636-7.0934Z"/>
<path id="g2-48" d="M4.582814-3.188045C4.582814-3.985056 4.533001-4.782067 4.184309-5.519303C3.726027-6.475716 2.909091-6.635118 2.49066-6.635118C1.892902-6.635118 1.165629-6.37609 .757161-5.449564C.438356-4.762142 .388543-3.985056 .388543-3.188045C.388543-2.440847 .428394-1.544209 .836862-.787049C1.265255 .019925 1.992528 .219178 2.480697 .219178C3.01868 .219178 3.775841 .009963 4.214197-.936488C4.533001-1.62391 4.582814-2.400996 4.582814-3.188045ZM2.480697 0C2.092154 0 1.504359-.249066 1.325031-1.205479C1.215442-1.803238 1.215442-2.719801 1.215442-3.307597C1.215442-3.945205 1.215442-4.60274 1.295143-5.140722C1.484433-6.326276 2.231631-6.41594 2.480697-6.41594C2.809465-6.41594 3.466999-6.236613 3.656289-5.250311C3.755915-4.692403 3.755915-3.935243 3.755915-3.307597C3.755915-2.560399 3.755915-1.882939 3.646326-1.24533C3.496887-.298879 2.929016 0 2.480697 0Z"/>
<path id="g2-49" d="M2.929016-6.37609C2.929016-6.615193 2.929016-6.635118 2.699875-6.635118C2.082192-5.997509 1.205479-5.997509 .886675-5.997509V-5.688667C1.085928-5.688667 1.673724-5.688667 2.191781-5.947696V-.787049C2.191781-.428394 2.161893-.308842 1.265255-.308842H.946451V0C1.295143-.029888 2.161893-.029888 2.560399-.029888S3.825654-.029888 4.174346 0V-.308842H3.855542C2.958904-.308842 2.929016-.418431 2.929016-.787049V-6.37609Z"/>
<path id="g2-58" d="M1.912827-3.765878C1.912827-4.054795 1.673724-4.293898 1.384807-4.293898S.856787-4.054795 .856787-3.765878S1.09589-3.237858 1.384807-3.237858S1.912827-3.476961 1.912827-3.765878ZM1.912827-.52802C1.912827-.816936 1.673724-1.05604 1.384807-1.05604S.856787-.816936 .856787-.52802S1.09589 0 1.384807 0S1.912827-.239103 1.912827-.52802Z"/>
<path id="g2-71" d="M5.907846-.627646C6.03736-.408468 6.435866-.009963 6.545455-.009963C6.635118-.009963 6.635118-.089664 6.635118-.239103V-1.972603C6.635118-2.361146 6.674969-2.410959 7.32254-2.410959V-2.719801C6.953923-2.709838 6.405978-2.689913 6.107098-2.689913C5.708593-2.689913 4.861768-2.689913 4.503113-2.719801V-2.410959H4.821918C5.718555-2.410959 5.748443-2.30137 5.748443-1.932752V-1.295143C5.748443-.179328 4.483188-.089664 4.204234-.089664C3.556663-.089664 1.58406-.438356 1.58406-3.407223C1.58406-6.386052 3.5467-6.714819 4.144458-6.714819C5.210461-6.714819 6.117061-5.818182 6.316314-4.353674C6.336239-4.214197 6.336239-4.184309 6.475716-4.184309C6.635118-4.184309 6.635118-4.214197 6.635118-4.423412V-6.784558C6.635118-6.953923 6.635118-7.023661 6.525529-7.023661C6.485679-7.023661 6.445828-7.023661 6.366127-6.90411L5.867995-6.166874C5.549191-6.485679 5.011208-7.023661 4.024907-7.023661C2.171856-7.023661 .557908-5.449564 .557908-3.407223S2.15193 .219178 4.044832 .219178C4.772105 .219178 5.569116-.039851 5.907846-.627646Z"/>
<path id="g2-73" d="M2.241594-6.027397C2.241594-6.386052 2.271482-6.495641 3.058531-6.495641H3.317559V-6.804483C2.968867-6.774595 2.181818-6.774595 1.803238-6.774595C1.414695-6.774595 .627646-6.774595 .278954-6.804483V-6.495641H.537983C1.325031-6.495641 1.354919-6.386052 1.354919-6.027397V-.777086C1.354919-.418431 1.325031-.308842 .537983-.308842H.278954V0C.627646-.029888 1.414695-.029888 1.793275-.029888C2.181818-.029888 2.968867-.029888 3.317559 0V-.308842H3.058531C2.271482-.308842 2.241594-.418431 2.241594-.777086V-6.027397Z"/>
<path id="g2-79" d="M7.183064-3.377335C7.183064-5.409714 5.678705-7.023661 3.865504-7.023661C2.082192-7.023661 .557908-5.429639 .557908-3.377335C.557908-1.334994 2.092154 .219178 3.865504 .219178C5.678705 .219178 7.183064-1.364882 7.183064-3.377335ZM3.875467-.039851C2.919054-.039851 1.58406-.916563 1.58406-3.516812C1.58406-6.097136 3.038605-6.774595 3.865504-6.774595C4.732254-6.774595 6.156912-6.067248 6.156912-3.516812C6.156912-.876712 4.79203-.039851 3.875467-.039851Z"/>
<path id="g2-97" d="M3.317559-.757161C3.35741-.358655 3.626401 .059776 4.094645 .059776C4.303861 .059776 4.911582-.079701 4.911582-.886675V-1.444583H4.662516V-.886675C4.662516-.308842 4.41345-.249066 4.303861-.249066C3.975093-.249066 3.935243-.697385 3.935243-.747198V-2.739726C3.935243-3.158157 3.935243-3.5467 3.576588-3.915318C3.188045-4.303861 2.689913-4.463263 2.211706-4.463263C1.39477-4.463263 .707347-3.995019 .707347-3.337484C.707347-3.038605 .9066-2.86924 1.165629-2.86924C1.444583-2.86924 1.62391-3.068493 1.62391-3.327522C1.62391-3.447073 1.574097-3.775841 1.115816-3.785803C1.384807-4.134496 1.872976-4.244085 2.191781-4.244085C2.67995-4.244085 3.247821-3.855542 3.247821-2.968867V-2.600249C2.739726-2.570361 2.042341-2.540473 1.414695-2.241594C.667497-1.902864 .418431-1.384807 .418431-.946451C.418431-.139477 1.384807 .109589 2.012453 .109589C2.669988 .109589 3.128269-.288917 3.317559-.757161ZM3.247821-2.391034V-1.39477C3.247821-.448319 2.530511-.109589 2.082192-.109589C1.594022-.109589 1.185554-.458281 1.185554-.956413C1.185554-1.504359 1.603985-2.331258 3.247821-2.391034Z"/>
<path id="g2-100" d="M3.785803-.547945V.109589L5.250311 0V-.308842C4.552927-.308842 4.473225-.37858 4.473225-.86675V-6.914072L3.038605-6.804483V-6.495641C3.73599-6.495641 3.815691-6.425903 3.815691-5.937733V-3.785803C3.526775-4.144458 3.098381-4.403487 2.560399-4.403487C1.384807-4.403487 .33873-3.427148 .33873-2.141968C.33873-.876712 1.315068 .109589 2.450809 .109589C3.088418 .109589 3.536737-.229141 3.785803-.547945ZM3.785803-3.217933V-1.175592C3.785803-.996264 3.785803-.976339 3.676214-.806974C3.377335-.328767 2.929016-.109589 2.500623-.109589C2.052304-.109589 1.693649-.368618 1.454545-.747198C1.195517-1.155666 1.165629-1.723537 1.165629-2.132005C1.165629-2.500623 1.185554-3.098381 1.474471-3.5467C1.683686-3.855542 2.062267-4.184309 2.600249-4.184309C2.948941-4.184309 3.367372-4.034869 3.676214-3.58655C3.785803-3.417186 3.785803-3.39726 3.785803-3.217933Z"/>
<path id="g2-101" d="M1.115816-2.510585C1.175592-3.995019 2.012453-4.244085 2.351183-4.244085C3.377335-4.244085 3.476961-2.899128 3.476961-2.510585H1.115816ZM1.105853-2.30137H3.88543C4.104608-2.30137 4.134496-2.30137 4.134496-2.510585C4.134496-3.496887 3.596513-4.463263 2.351183-4.463263C1.195517-4.463263 .278954-3.437111 .278954-2.191781C.278954-.856787 1.325031 .109589 2.470735 .109589C3.686177 .109589 4.134496-.996264 4.134496-1.185554C4.134496-1.285181 4.054795-1.305106 4.004981-1.305106C3.915318-1.305106 3.895392-1.24533 3.875467-1.165629C3.526775-.139477 2.630137-.139477 2.530511-.139477C2.032379-.139477 1.633873-.438356 1.404732-.806974C1.105853-1.285181 1.105853-1.942715 1.105853-2.30137Z"/>
<path id="g2-104" d="M1.09589-.757161C1.09589-.308842 .986301-.308842 .318804-.308842V0C.667497-.009963 1.175592-.029888 1.444583-.029888C1.703611-.029888 2.221669-.009963 2.560399 0V-.308842C1.892902-.308842 1.783313-.308842 1.783313-.757161V-2.590286C1.783313-3.626401 2.49066-4.184309 3.128269-4.184309C3.755915-4.184309 3.865504-3.646326 3.865504-3.078456V-.757161C3.865504-.308842 3.755915-.308842 3.088418-.308842V0C3.437111-.009963 3.945205-.029888 4.214197-.029888C4.473225-.029888 4.991283-.009963 5.330012 0V-.308842C4.811955-.308842 4.562889-.308842 4.552927-.607721V-2.510585C4.552927-3.367372 4.552927-3.676214 4.244085-4.034869C4.104608-4.204234 3.775841-4.403487 3.198007-4.403487C2.361146-4.403487 1.92279-3.805729 1.753425-3.427148V-6.914072L.318804-6.804483V-6.495641C1.016189-6.495641 1.09589-6.425903 1.09589-5.937733V-.757161Z"/>
<path id="g2-109" d="M1.09589-3.427148V-.757161C1.09589-.308842 .986301-.308842 .318804-.308842V0C.667497-.009963 1.175592-.029888 1.444583-.029888C1.703611-.029888 2.221669-.009963 2.560399 0V-.308842C1.892902-.308842 1.783313-.308842 1.783313-.757161V-2.590286C1.783313-3.626401 2.49066-4.184309 3.128269-4.184309C3.755915-4.184309 3.865504-3.646326 3.865504-3.078456V-.757161C3.865504-.308842 3.755915-.308842 3.088418-.308842V0C3.437111-.009963 3.945205-.029888 4.214197-.029888C4.473225-.029888 4.991283-.009963 5.330012 0V-.308842C4.662516-.308842 4.552927-.308842 4.552927-.757161V-2.590286C4.552927-3.626401 5.260274-4.184309 5.897883-4.184309C6.525529-4.184309 6.635118-3.646326 6.635118-3.078456V-.757161C6.635118-.308842 6.525529-.308842 5.858032-.308842V0C6.206725-.009963 6.714819-.029888 6.983811-.029888C7.242839-.029888 7.760897-.009963 8.099626 0V-.308842C7.581569-.308842 7.332503-.308842 7.32254-.607721V-2.510585C7.32254-3.367372 7.32254-3.676214 7.013699-4.034869C6.874222-4.204234 6.545455-4.403487 5.967621-4.403487C5.13076-4.403487 4.692403-3.805729 4.523039-3.427148C4.383562-4.293898 3.646326-4.403487 3.198007-4.403487C2.470735-4.403487 2.002491-3.975093 1.723537-3.35741V-4.403487L.318804-4.293898V-3.985056C1.016189-3.985056 1.09589-3.915318 1.09589-3.427148Z"/>
<path id="g2-111" d="M4.692403-2.132005C4.692403-3.407223 3.696139-4.463263 2.49066-4.463263C1.24533-4.463263 .278954-3.377335 .278954-2.132005C.278954-.846824 1.315068 .109589 2.480697 .109589C3.686177 .109589 4.692403-.86675 4.692403-2.132005ZM2.49066-.139477C2.062267-.139477 1.62391-.348692 1.354919-.806974C1.105853-1.24533 1.105853-1.853051 1.105853-2.211706C1.105853-2.600249 1.105853-3.138232 1.344956-3.576588C1.613948-4.034869 2.082192-4.244085 2.480697-4.244085C2.919054-4.244085 3.347447-4.024907 3.606476-3.596513S3.865504-2.590286 3.865504-2.211706C3.865504-1.853051 3.865504-1.315068 3.646326-.876712C3.427148-.428394 2.988792-.139477 2.49066-.139477Z"/>
<path id="g2-112" d="M1.713574-3.745953V-4.403487L.278954-4.293898V-3.985056C.986301-3.985056 1.05604-3.92528 1.05604-3.486924V1.175592C1.05604 1.62391 .946451 1.62391 .278954 1.62391V1.932752C.617684 1.92279 1.135741 1.902864 1.39477 1.902864C1.663761 1.902864 2.171856 1.92279 2.520548 1.932752V1.62391C1.853051 1.62391 1.743462 1.62391 1.743462 1.175592V-.498132V-.587796C1.793275-.428394 2.211706 .109589 2.968867 .109589C4.154421 .109589 5.190535-.86675 5.190535-2.15193C5.190535-3.417186 4.224159-4.403487 3.108344-4.403487C2.331258-4.403487 1.912827-3.965131 1.713574-3.745953ZM1.743462-1.135741V-3.35741C2.032379-3.865504 2.520548-4.154421 3.028643-4.154421C3.755915-4.154421 4.363636-3.277709 4.363636-2.15193C4.363636-.946451 3.666252-.109589 2.929016-.109589C2.530511-.109589 2.15193-.308842 1.882939-.71731C1.743462-.926526 1.743462-.936488 1.743462-1.135741Z"/>
<path id="g2-115" d="M2.072229-1.932752C2.291407-1.892902 3.108344-1.733499 3.108344-1.016189C3.108344-.508095 2.759651-.109589 1.982565-.109589C1.145704-.109589 .787049-.67746 .597758-1.524284C.56787-1.653798 .557908-1.693649 .458281-1.693649C.328767-1.693649 .328767-1.62391 .328767-1.444583V-.129514C.328767 .039851 .328767 .109589 .438356 .109589C.488169 .109589 .498132 .099626 .687422-.089664C.707347-.109589 .707347-.129514 .886675-.318804C1.325031 .099626 1.77335 .109589 1.982565 .109589C3.128269 .109589 3.58655-.557908 3.58655-1.275218C3.58655-1.803238 3.287671-2.102117 3.16812-2.221669C2.839352-2.540473 2.450809-2.620174 2.032379-2.699875C1.474471-2.809465 .806974-2.938979 .806974-3.516812C.806974-3.865504 1.066002-4.273973 1.92279-4.273973C3.01868-4.273973 3.068493-3.377335 3.088418-3.068493C3.098381-2.978829 3.188045-2.978829 3.20797-2.978829C3.337484-2.978829 3.337484-3.028643 3.337484-3.217933V-4.224159C3.337484-4.393524 3.337484-4.463263 3.227895-4.463263C3.178082-4.463263 3.158157-4.463263 3.028643-4.343711C2.998755-4.303861 2.899128-4.214197 2.859278-4.184309C2.480697-4.463263 2.072229-4.463263 1.92279-4.463263C.707347-4.463263 .328767-3.795766 .328767-3.237858C.328767-2.889166 .488169-2.610212 .757161-2.391034C1.075965-2.132005 1.354919-2.072229 2.072229-1.932752Z"/>
<path id="g2-116" d="M1.723537-3.985056H3.148194V-4.293898H1.723537V-6.127024H1.474471C1.464508-5.310087 1.165629-4.244085 .18929-4.204234V-3.985056H1.036115V-1.235367C1.036115-.009963 1.96264 .109589 2.321295 .109589C3.028643 .109589 3.307597-.597758 3.307597-1.235367V-1.803238H3.058531V-1.255293C3.058531-.518057 2.759651-.139477 2.391034-.139477C1.723537-.139477 1.723537-1.046077 1.723537-1.215442V-3.985056Z"/>
<path id="g2-121" d="M4.134496-3.347447C4.393524-3.975093 4.901619-3.985056 5.061021-3.985056V-4.293898C4.83188-4.273973 4.542964-4.26401 4.313823-4.26401C4.134496-4.26401 3.666252-4.283935 3.447073-4.293898V-3.985056C3.755915-3.975093 3.915318-3.805729 3.915318-3.556663C3.915318-3.457036 3.905355-3.437111 3.855542-3.317559L2.849315-.86675L1.743462-3.5467C1.703611-3.646326 1.683686-3.686177 1.683686-3.726027C1.683686-3.985056 2.052304-3.985056 2.241594-3.985056V-4.293898C1.982565-4.283935 1.325031-4.26401 1.155666-4.26401C.886675-4.26401 .488169-4.273973 .18929-4.293898V-3.985056C.667497-3.985056 .856787-3.985056 .996264-3.636364L2.49066 0C2.440847 .129514 2.30137 .458281 2.241594 .587796C2.022416 1.135741 1.743462 1.823163 1.105853 1.823163C1.05604 1.823163 .826899 1.823163 .637609 1.643836C.946451 1.603985 1.026152 1.384807 1.026152 1.225405C1.026152 .966376 .836862 .806974 .607721 .806974C.408468 .806974 .18929 .936488 .18929 1.235367C.18929 1.683686 .607721 2.042341 1.105853 2.042341C1.733499 2.042341 2.141968 1.474471 2.381071 .9066L4.134496-3.347447Z"/>
<path id="g1-60" d="M6.724782-4.961395C6.844334-5.021171 6.914072-5.070984 6.914072-5.180573S6.824408-5.379826 6.714819-5.379826C6.684932-5.379826 6.665006-5.379826 6.535492-5.310087L1.016189-2.709838C.9066-2.660025 .826899-2.610212 .826899-2.49066S.9066-2.321295 1.016189-2.271482L6.535492 .328767C6.665006 .398506 6.684932 .398506 6.714819 .398506C6.824408 .398506 6.914072 .308842 6.914072 .199253S6.844334 .039851 6.724782-.019925L1.494396-2.49066L6.724782-4.961395Z"/>
<path id="g1-62" d="M6.724782-2.271482C6.834371-2.321295 6.914072-2.371108 6.914072-2.49066S6.834371-2.660025 6.724782-2.709838L1.205479-5.310087C1.075965-5.379826 1.05604-5.379826 1.026152-5.379826C.916563-5.379826 .826899-5.290162 .826899-5.180573C.826899-5.090909 .876712-5.031133 1.016189-4.961395L6.246575-2.49066L1.016189-.019925C.876712 .049813 .826899 .109589 .826899 .199253C.826899 .308842 .916563 .398506 1.026152 .398506C1.05604 .398506 1.075965 .398506 1.205479 .328767L6.724782-2.271482Z"/>
<path id="g1-115" d="M3.895392-3.726027C3.616438-3.716065 3.417186-3.496887 3.417186-3.277709C3.417186-3.138232 3.506849-2.988792 3.726027-2.988792S4.184309-3.158157 4.184309-3.5467C4.184309-3.995019 3.755915-4.403487 2.998755-4.403487C1.683686-4.403487 1.315068-3.387298 1.315068-2.948941C1.315068-2.171856 2.052304-2.022416 2.34122-1.96264C2.859278-1.863014 3.377335-1.753425 3.377335-1.205479C3.377335-.946451 3.148194-.109589 1.952677-.109589C1.8132-.109589 1.046077-.109589 .816936-.637609C1.195517-.587796 1.444583-.886675 1.444583-1.165629C1.444583-1.39477 1.285181-1.514321 1.075965-1.514321C.816936-1.514321 .518057-1.305106 .518057-.856787C.518057-.288917 1.085928 .109589 1.942715 .109589C3.556663 .109589 3.945205-1.09589 3.945205-1.544209C3.945205-1.902864 3.755915-2.15193 3.636364-2.271482C3.367372-2.550436 3.078456-2.600249 2.6401-2.689913C2.281445-2.769614 1.882939-2.839352 1.882939-3.287671C1.882939-3.576588 2.122042-4.184309 2.998755-4.184309C3.247821-4.184309 3.745953-4.11457 3.895392-3.726027Z"/>
</defs>
<g id="page1">
<g stroke-miterlimit="10" transform="translate(54.32968,158.578943)scale(0.996264,-0.996264)">
<g fill="#000" stroke="#000">
<g stroke-width="0.4">
<g transform="matrix(0.8,0.0,0.0,0.8,61.45808,38.6958)">
<g stroke="none" transform="scale(-1.00375,1.00375)translate(54.32968,158.578943)scale(-1,-1)">
<g fill="#000">
<g stroke="none"/>
</g>
</g>
</g>
<g fill="#8080ff">
<g stroke="#000">
<g fill="#8080ff">
<g stroke="#000">
<path d="M -7.96681 111.53516 L -14.79546 111.53516 L -14.79546 93.32535 L -7.96681 93.32535 Z M -14.79546 93.32535"/>
</g>
</g>
<g transform="matrix(0.8,0.0,0.0,0.8,-11.38113,102.43025)">
<g stroke="none" transform="scale(-1.00375,1.00375)translate(54.32968,158.578943)scale(-1,-1)">
<g fill="#000">
<g stroke="none"/>
</g>
</g>
</g>
</g>
</g>
<g fill="#ffc080">
<g stroke="#000">
<g fill="#ffc080">
<g stroke="#000">
<path d="M -7.96681 79.66797 L -14.79546 79.66797 L -14.79546 56.9057 L -7.96681 56.9057 Z M -14.79546 56.9057"/>
</g>
</g>
<g transform="matrix(0.8,0.0,0.0,0.8,-11.38113,68.28683)">
<g stroke="none" transform="scale(-1.00375,1.00375)translate(54.32968,158.578943)scale(-1,-1)">
<g fill="#000">
<g stroke="none"/>
</g>
</g>
</g>
</g>
</g>
<g fill="#0f0">
<g stroke="#000">
<g fill="#0f0">
<g stroke="#000">
<path d="M -7.96681 147.95482 L -14.79546 147.95482 L -14.79546 125.19255 L -7.96681 125.19255 Z M -14.79546 125.19255"/>
</g>
</g>
<g transform="matrix(0.8,0.0,0.0,0.8,-11.38113,136.57368)">
<g stroke="none" transform="scale(-1.00375,1.00375)translate(54.32968,158.578943)scale(-1,-1)">
<g fill="#000">
<g stroke="none"/>
</g>
</g>
</g>
</g>
</g>
<g transform="matrix(0.8,0.0,0.0,0.8,-22.76227,49.77635)">
<g stroke="none" transform="scale(-1.00375,1.00375)translate(54.32968,158.578943)scale(-1,-1)">
<g fill="#000">
<g stroke="none">
<use x="54.32968" y="158.578943" xlink:href="#g1-60"/>
<use x="62.078428" y="158.578943" xlink:href="#g2-71"/>
<use x="69.896353" y="158.578943" xlink:href="#g2-79"/>
<use x="77.645101" y="158.578943" xlink:href="#g1-62"/>
</g>
</g>
</g>
</g>
<g transform="matrix(0.8,0.0,0.0,0.8,-31.86703,150.5072)">
<g stroke="none" transform="scale(-1.00375,1.00375)translate(54.32968,158.578943)scale(-1,-1)">
<g fill="#000">
<g stroke="none">
<use x="59.370455" y="158.578943" xlink:href="#g2-111"/>
<use x="64.351794" y="158.578943" xlink:href="#g2-47"/>
<use x="69.333133" y="158.578943" xlink:href="#g2-112"/>
<use x="74.86795" y="158.578943" xlink:href="#g2-58"/>
</g>
</g>
</g>
</g>
<g transform="matrix(0.8,0.0,0.0,0.8,-22.76227,149.77388)">
<g stroke="none" transform="scale(-1.00375,1.00375)translate(54.32968,158.578943)scale(-1,-1)">
<g fill="#000">
<g stroke="none">
<use x="66.704083" y="158.578943" xlink:href="#g2-73"/>
</g>
</g>
</g>
</g>
<path d="M -11.38188 79.83214 L -11.38185 92.77025" fill="none"/>
<g transform="matrix(0.0,1.0,-1.0,0.0,-11.38185,92.97025)">
<g stroke-dasharray="none" stroke-dashoffset="0.0">
 <g stroke-linecap="round">
 <g stroke-linejoin="round">
 <path d=" M -2.07999 2.39998 C -1.69998 0.95998 -0.85318 0.28 0.0 0.0 C -0.85318 -0.28 -1.69998 -0.95998 -2.07999 -2.39998  " fill="none"/>
 </g>
 </g>
 </g>
</g>
<path d="M -11.38199 111.70102 L -11.38188 124.63913" fill="none"/>
<g transform="matrix(0.0,1.0,-1.0,0.0,-11.38188,124.83913)">
<g stroke-dasharray="none" stroke-dashoffset="0.0">
 <g stroke-linecap="round">
 <g stroke-linejoin="round">
 <path d=" M -2.07999 2.39998 C -1.69998 0.95998 -0.85318 0.28 0.0 0.0 C -0.85318 -0.28 -1.69998 -0.95998 -2.07999 -2.39998  " fill="none"/>
 </g>
 </g>
 </g>
</g>
<path d="M -14.79532 61.45807 L -7.96693 61.45807" fill="none"/>
<path d="M -14.79532 66.01047 L -7.96693 66.01047" fill="none"/>
<path d="M -14.79532 70.5632 L -7.96693 70.5632" fill="none"/>
<path d="M -14.79532 75.11559 L -7.96693 75.11559" fill="none"/>
<g transform="matrix(0.8,0.0,0.0,0.8,-22.76227,56.60428)">
<g stroke="none" transform="scale(-1.00375,1.00375)translate(54.32968,158.578943)scale(-1,-1)">
<g fill="#000">
<g stroke="none">
<use x="66.012235" y="158.578943" xlink:href="#g2-48"/>
</g>
</g>
</g>
</g>
<g transform="matrix(0.8,0.0,0.0,0.8,-22.76227,61.15666)">
<g stroke="none" transform="scale(-1.00375,1.00375)translate(54.32968,158.578943)scale(-1,-1)">
<g fill="#000">
<g stroke="none">
<use x="66.012235" y="158.578943" xlink:href="#g2-48"/>
</g>
</g>
</g>
</g>
<g transform="matrix(0.8,0.0,0.0,0.8,-22.76227,65.70906)">
<g stroke="none" transform="scale(-1.00375,1.00375)translate(54.32968,158.578943)scale(-1,-1)">
<g fill="#000">
<g stroke="none">
<use x="66.012235" y="158.578943" xlink:href="#g2-48"/>
</g>
</g>
</g>
</g>
<g transform="matrix(0.8,0.0,0.0,0.8,-22.76227,70.26144)">
<g stroke="none" transform="scale(-1.00375,1.00375)translate(54.32968,158.578943)scale(-1,-1)">
<g fill="#000">
<g stroke="none">
<use x="66.012235" y="158.578943" xlink:href="#g2-48"/>
</g>
</g>
</g>
</g>
<g transform="matrix(0.8,0.0,0.0,0.8,-22.76227,74.81383)">
<g stroke="none" transform="scale(-1.00375,1.00375)translate(54.32968,158.578943)scale(-1,-1)">
<g fill="#000">
<g stroke="none">
<use x="66.012235" y="158.578943" xlink:href="#g2-49"/>
</g>
</g>
</g>
</g>
<path d="M -14.79532 129.74492 L -7.96693 129.74492" fill="none"/>
<path d="M -14.79532 134.2973 L -7.96693 134.2973" fill="none"/>
<path d="M -14.79532 138.85005 L -7.96693 138.85005" fill="none"/>
<path d="M -14.79532 143.40244 L -7.96693 143.40244" fill="none"/>
<g fill="#000" stroke="#000">
<path d="M -14.79532 134.2973 M -14.79532 134.2973 L -14.79532 138.85005 L -7.96693 138.85005 L -7.96693 134.2973 Z M -7.96693 138.85005"/>
</g>
<g stroke-dasharray="3.0,3.0" stroke-dashoffset="0.0">
<path d="M -7.51158 136.57368 L 0.0 136.57368 L 0.0 136.57368 L 0.0 45.52455 L 11.38113 45.52455 L 11.38113 56.50569" fill="none"/>
<g transform="matrix(0.0,1.0,-1.0,0.0,11.38113,56.70569)">
<g stroke-dasharray="none" stroke-dashoffset="0.0">
 <g stroke-linecap="round">
 <g stroke-linejoin="round">
 <path d=" M -2.07999 2.39998 C -1.69998 0.95998 -0.85318 0.28 0.0 0.0 C -0.85318 -0.28 -1.69998 -0.95998 -2.07999 -2.39998  " fill="none"/>
 </g>
 </g>
 </g>
</g>
</g>
<g fill="#8080ff">
<g stroke="#000">
<g fill="#8080ff">
<g stroke="#000">
<path d="M 14.79546 111.53516 L 7.96681 111.53516 L 7.96681 93.32535 L 14.79546 93.32535 Z M 7.96681 93.32535"/>
</g>
</g>
<g transform="matrix(0.8,0.0,0.0,0.8,11.38113,102.43025)">
<g stroke="none" transform="scale(-1.00375,1.00375)translate(54.32968,158.578943)scale(-1,-1)">
<g fill="#000">
<g stroke="none"/>
</g>
</g>
</g>
</g>
</g>
<g fill="#ffc080">
<g stroke="#000">
<g fill="#ffc080">
<g stroke="#000">
<path d="M 14.79546 79.66797 L 7.96681 79.66797 L 7.96681 56.9057 L 14.79546 56.9057 Z M 7.96681 56.9057"/>
</g>
</g>
<g transform="matrix(0.8,0.0,0.0,0.8,11.38113,68.28683)">
<g stroke="none" transform="scale(-1.00375,1.00375)translate(54.32968,158.578943)scale(-1,-1)">
<g fill="#000">
<g stroke="none"/>
</g>
</g>
</g>
</g>
</g>
<g fill="#0f0">
<g stroke="#000">
<g fill="#0f0">
<g stroke="#000">
<path d="M 14.79546 147.95482 L 7.96681 147.95482 L 7.96681 125.19255 L 14.79546 125.19255 Z M 7.96681 125.19255"/>
</g>
</g>
<g transform="matrix(0.8,0.0,0.0,0.8,11.38113,136.57368)">
<g stroke="none" transform="scale(-1.00375,1.00375)translate(54.32968,158.578943)scale(-1,-1)">
<g fill="#000">
<g stroke="none"/>
</g>
</g>
</g>
</g>
</g>
<g transform="matrix(0.8,0.0,0.0,0.8,0.0,150.78499)">
<g stroke="none" transform="scale(-1.00375,1.00375)translate(54.32968,158.578943)scale(-1,-1)">
<g fill="#000">
<g stroke="none">
<use x="61.86113" y="158.578943" xlink:href="#g2-97"/>
<use x="66.842469" y="158.578943" xlink:href="#g2-109"/>
</g>
</g>
</g>
</g>
<path d="M 11.38188 79.83214 L 11.38185 92.77025" fill="none"/>
<g transform="matrix(0.0,1.0,-1.0,0.0,11.38185,92.97025)">
<g stroke-dasharray="none" stroke-dashoffset="0.0">
 <g stroke-linecap="round">
 <g stroke-linejoin="round">
 <path d=" M -2.07999 2.39998 C -1.69998 0.95998 -0.85318 0.28 0.0 0.0 C -0.85318 -0.28 -1.69998 -0.95998 -2.07999 -2.39998  " fill="none"/>
 </g>
 </g>
 </g>
</g>
<path d="M -7.8072 102.43677 L 7.40721 102.43645" fill="none"/>
<g transform="translate(7.60721,102.43645)">
<g stroke-dasharray="none" stroke-dashoffset="0.0">
 <g stroke-linecap="round">
 <g stroke-linejoin="round">
 <path d=" M -2.07999 2.39998 C -1.69998 0.95998 -0.85318 0.28 0.0 0.0 C -0.85318 -0.28 -1.69998 -0.95998 -2.07999 -2.39998  " fill="none"/>
 </g>
 </g>
 </g>
</g>
<path d="M 11.38199 111.70102 L 11.38188 124.63913" fill="none"/>
<g transform="matrix(0.0,1.0,-1.0,0.0,11.38188,124.83913)">
<g stroke-dasharray="none" stroke-dashoffset="0.0">
 <g stroke-linecap="round">
 <g stroke-linejoin="round">
 <path d=" M -2.07999 2.39998 C -1.69998 0.95998 -0.85318 0.28 0.0 0.0 C -0.85318 -0.28 -1.69998 -0.95998 -2.07999 -2.39998  " fill="none"/>
 </g>
 </g>
 </g>
</g>
<path d="M 7.96693 61.45807 L 14.79532 61.45807" fill="none"/>
<path d="M 7.96693 66.01047 L 14.79532 66.01047" fill="none"/>
<path d="M 7.96693 70.5632 L 14.79532 70.5632" fill="none"/>
<path d="M 7.96693 75.11559 L 14.79532 75.11559" fill="none"/>
<g transform="matrix(0.8,0.0,0.0,0.8,0.0,56.60428)">
<g stroke="none" transform="scale(-1.00375,1.00375)translate(54.32968,158.578943)scale(-1,-1)">
<g fill="#000">
<g stroke="none">
<use x="66.012235" y="158.578943" xlink:href="#g2-48"/>
</g>
</g>
</g>
</g>
<g transform="matrix(0.8,0.0,0.0,0.8,0.0,61.15666)">
<g stroke="none" transform="scale(-1.00375,1.00375)translate(54.32968,158.578943)scale(-1,-1)">
<g fill="#000">
<g stroke="none">
<use x="66.012235" y="158.578943" xlink:href="#g2-48"/>
</g>
</g>
</g>
</g>
<g transform="matrix(0.8,0.0,0.0,0.8,0.0,65.70906)">
<g stroke="none" transform="scale(-1.00375,1.00375)translate(54.32968,158.578943)scale(-1,-1)">
<g fill="#000">
<g stroke="none">
<use x="66.012235" y="158.578943" xlink:href="#g2-49"/>
</g>
</g>
</g>
</g>
<g transform="matrix(0.8,0.0,0.0,0.8,0.0,70.26144)">
<g stroke="none" transform="scale(-1.00375,1.00375)translate(54.32968,158.578943)scale(-1,-1)">
<g fill="#000">
<g stroke="none">
<use x="66.012235" y="158.578943" xlink:href="#g2-48"/>
</g>
</g>
</g>
</g>
<g transform="matrix(0.8,0.0,0.0,0.8,0.0,74.81383)">
<g stroke="none" transform="scale(-1.00375,1.00375)translate(54.32968,158.578943)scale(-1,-1)">
<g fill="#000">
<g stroke="none">
<use x="66.012235" y="158.578943" xlink:href="#g2-48"/>
</g>
</g>
</g>
</g>
<path d="M 7.96693 129.74492 L 14.79532 129.74492" fill="none"/>
<path d="M 7.96693 134.2973 L 14.79532 134.2973" fill="none"/>
<path d="M 7.96693 138.85005 L 14.79532 138.85005" fill="none"/>
<path d="M 7.96693 143.40244 L 14.79532 143.40244" fill="none"/>
<g fill="#000" stroke="#000">
<path d="M 7.96693 129.74492 M 7.96693 129.74492 L 7.96693 134.2973 L 14.79532 134.2973 L 14.79532 129.74492 Z M 14.79532 134.2973"/>
</g>
<g stroke-dasharray="3.0,3.0" stroke-dashoffset="0.0">
<path d="M 15.25067 136.57368 L 22.76227 136.57368 L 22.76227 136.57368 L 22.76227 45.52455 L 34.1434 45.52455 L 34.1434 56.50569" fill="none"/>
<g transform="matrix(0.0,1.0,-1.0,0.0,34.1434,56.70569)">
<g stroke-dasharray="none" stroke-dashoffset="0.0">
 <g stroke-linecap="round">
 <g stroke-linejoin="round">
 <path d=" M -2.07999 2.39998 C -1.69998 0.95998 -0.85318 0.28 0.0 0.0 C -0.85318 -0.28 -1.69998 -0.95998 -2.07999 -2.39998  " fill="none"/>
 </g>
 </g>
 </g>
</g>
</g>
<g fill="#8080ff">
<g stroke="#000">
<g fill="#8080ff">
<g stroke="#000">
<path d="M 37.55772 111.53516 L 30.72908 111.53516 L 30.72908 93.32535 L 37.55772 93.32535 Z M 30.72908 93.32535"/>
</g>
</g>
<g transform="matrix(0.8,0.0,0.0,0.8,34.1434,102.43025)">
<g stroke="none" transform="scale(-1.00375,1.00375)translate(54.32968,158.578943)scale(-1,-1)">
<g fill="#000">
<g stroke="none"/>
</g>
</g>
</g>
</g>
</g>
<g fill="#ffc080">
<g stroke="#000">
<g fill="#ffc080">
<g stroke="#000">
<path d="M 37.55772 79.66797 L 30.72908 79.66797 L 30.72908 56.9057 L 37.55772 56.9057 Z M 30.72908 56.9057"/>
</g>
</g>
<g transform="matrix(0.8,0.0,0.0,0.8,34.1434,68.28683)">
<g stroke="none" transform="scale(-1.00375,1.00375)translate(54.32968,158.578943)scale(-1,-1)">
<g fill="#000">
<g stroke="none"/>
</g>
</g>
</g>
</g>
</g>
<g fill="#0f0">
<g stroke="#000">
<g fill="#0f0">
<g stroke="#000">
<path d="M 37.55772 147.95482 L 30.72908 147.95482 L 30.72908 125.19255 L 37.55772 125.19255 Z M 30.72908 125.19255"/>
</g>
</g>
<g transform="matrix(0.8,0.0,0.0,0.8,34.1434,136.57368)">
<g stroke="none" transform="scale(-1.00375,1.00375)translate(54.32968,158.578943)scale(-1,-1)">
<g fill="#000">
<g stroke="none"/>
</g>
</g>
</g>
</g>
</g>
<g transform="matrix(0.8,0.0,0.0,0.8,22.76227,150.04689)">
<g stroke="none" transform="scale(-1.00375,1.00375)translate(54.32968,158.578943)scale(-1,-1)">
<g fill="#000">
<g stroke="none">
<use x="64.075057" y="158.578943" xlink:href="#g2-97"/>
<use x="69.056396" y="158.578943" xlink:href="#g2-116"/>
</g>
</g>
</g>
</g>
<path d="M 34.14606 79.83214 L 34.1456 92.77026" fill="none"/>
<g transform="matrix(-0.00002,0.99998,-0.99998,-0.00002,34.1456,92.97025)">
<g stroke-dasharray="none" stroke-dashoffset="0.0">
 <g stroke-linecap="round">
 <g stroke-linejoin="round">
 <path d=" M -2.07999 2.39998 C -1.69998 0.95998 -0.85318 0.28 0.0 0.0 C -0.85318 -0.28 -1.69998 -0.95998 -2.07999 -2.39998  " fill="none"/>
 </g>
 </g>
 </g>
</g>
<path d="M 34.14603 111.70102 L 34.1457 124.63914" fill="none"/>
<g transform="matrix(-0.00002,0.99998,-0.99998,-0.00002,34.1457,124.83913)">
<g stroke-dasharray="none" stroke-dashoffset="0.0">
 <g stroke-linecap="round">
 <g stroke-linejoin="round">
 <path d=" M -2.07999 2.39998 C -1.69998 0.95998 -0.85318 0.28 0.0 0.0 C -0.85318 -0.28 -1.69998 -0.95998 -2.07999 -2.39998  " fill="none"/>
 </g>
 </g>
 </g>
</g>
<path d="M 14.95624 102.43677 L 30.17068 102.43645" fill="none"/>
<g transform="translate(30.37068,102.43645)">
<g stroke-dasharray="none" stroke-dashoffset="0.0">
 <g stroke-linecap="round">
 <g stroke-linejoin="round">
 <path d=" M -2.07999 2.39998 C -1.69998 0.95998 -0.85318 0.28 0.0 0.0 C -0.85318 -0.28 -1.69998 -0.95998 -2.07999 -2.39998  " fill="none"/>
 </g>
 </g>
 </g>
</g>
<path d="M 30.72922 61.45807 L 37.5576 61.45807" fill="none"/>
<path d="M 30.72922 66.01047 L 37.5576 66.01047" fill="none"/>
<path d="M 30.72922 70.5632 L 37.5576 70.5632" fill="none"/>
<path d="M 30.72922 75.11559 L 37.5576 75.11559" fill="none"/>
<g transform="matrix(0.8,0.0,0.0,0.8,22.76227,56.60428)">
<g stroke="none" transform="scale(-1.00375,1.00375)translate(54.32968,158.578943)scale(-1,-1)">
<g fill="#000">
<g stroke="none">
<use x="66.012235" y="158.578943" xlink:href="#g2-48"/>
</g>
</g>
</g>
</g>
<g transform="matrix(0.8,0.0,0.0,0.8,22.76227,61.15666)">
<g stroke="none" transform="scale(-1.00375,1.00375)translate(54.32968,158.578943)scale(-1,-1)">
<g fill="#000">
<g stroke="none">
<use x="66.012235" y="158.578943" xlink:href="#g2-49"/>
</g>
</g>
</g>
</g>
<g transform="matrix(0.8,0.0,0.0,0.8,22.76227,65.70906)">
<g stroke="none" transform="scale(-1.00375,1.00375)translate(54.32968,158.578943)scale(-1,-1)">
<g fill="#000">
<g stroke="none">
<use x="66.012235" y="158.578943" xlink:href="#g2-48"/>
</g>
</g>
</g>
</g>
<g transform="matrix(0.8,0.0,0.0,0.8,22.76227,70.26144)">
<g stroke="none" transform="scale(-1.00375,1.00375)translate(54.32968,158.578943)scale(-1,-1)">
<g fill="#000">
<g stroke="none">
<use x="66.012235" y="158.578943" xlink:href="#g2-48"/>
</g>
</g>
</g>
</g>
<g transform="matrix(0.8,0.0,0.0,0.8,22.76227,74.81383)">
<g stroke="none" transform="scale(-1.00375,1.00375)translate(54.32968,158.578943)scale(-1,-1)">
<g fill="#000">
<g stroke="none">
<use x="66.012235" y="158.578943" xlink:href="#g2-48"/>
</g>
</g>
</g>
</g>
<path d="M 30.72922 129.74492 L 37.5576 129.74492" fill="none"/>
<path d="M 30.72922 134.2973 L 37.5576 134.2973" fill="none"/>
<path d="M 30.72922 138.85005 L 37.5576 138.85005" fill="none"/>
<path d="M 30.72922 143.40244 L 37.5576 143.40244" fill="none"/>
<g fill="#000" stroke="#000">
<path d="M 30.72922 143.40244 M 30.72922 143.40244 L 30.72922 147.95482 L 37.5576 147.95482 L 37.5576 143.40244 Z M 37.5576 147.95482"/>
</g>
<g stroke-dasharray="3.0,3.0" stroke-dashoffset="0.0">
<path d="M 38.01295 136.57368 L 45.52455 136.57368 L 45.52455 136.57368 L 45.52455 45.52455 L 56.90569 45.52455 L 56.90569 56.50569" fill="none"/>
<g transform="matrix(0.0,1.0,-1.0,0.0,56.90569,56.70569)">
<g stroke-dasharray="none" stroke-dashoffset="0.0">
 <g stroke-linecap="round">
 <g stroke-linejoin="round">
 <path d=" M -2.07999 2.39998 C -1.69998 0.95998 -0.85318 0.28 0.0 0.0 C -0.85318 -0.28 -1.69998 -0.95998 -2.07999 -2.39998  " fill="none"/>
 </g>
 </g>
 </g>
</g>
</g>
<g fill="#8080ff">
<g stroke="#000">
<g fill="#8080ff">
<g stroke="#000">
<path d="M 60.32 111.53516 L 53.49136 111.53516 L 53.49136 93.32535 L 60.32 93.32535 Z M 53.49136 93.32535"/>
</g>
</g>
<g transform="matrix(0.8,0.0,0.0,0.8,56.90569,102.43025)">
<g stroke="none" transform="scale(-1.00375,1.00375)translate(54.32968,158.578943)scale(-1,-1)">
<g fill="#000">
<g stroke="none"/>
</g>
</g>
</g>
</g>
</g>
<g fill="#ffc080">
<g stroke="#000">
<g fill="#ffc080">
<g stroke="#000">
<path d="M 60.32 79.66797 L 53.49136 79.66797 L 53.49136 56.9057 L 60.32 56.9057 Z M 53.49136 56.9057"/>
</g>
</g>
<g transform="matrix(0.8,0.0,0.0,0.8,56.90569,68.28683)">
<g stroke="none" transform="scale(-1.00375,1.00375)translate(54.32968,158.578943)scale(-1,-1)">
<g fill="#000">
<g stroke="none"/>
</g>
</g>
</g>
</g>
</g>
<g fill="#0f0">
<g stroke="#000">
<g fill="#0f0">
<g stroke="#000">
<path d="M 60.32 147.95482 L 53.49136 147.95482 L 53.49136 125.19255 L 60.32 125.19255 Z M 53.49136 125.19255"/>
</g>
</g>
<g transform="matrix(0.8,0.0,0.0,0.8,56.90569,136.57368)">
<g stroke="none" transform="scale(-1.00375,1.00375)translate(54.32968,158.578943)scale(-1,-1)">
<g fill="#000">
<g stroke="none"/>
</g>
</g>
</g>
</g>
</g>
<g transform="matrix(0.8,0.0,0.0,0.8,45.52455,149.72943)">
<g stroke="none" transform="scale(-1.00375,1.00375)translate(54.32968,158.578943)scale(-1,-1)">
<g fill="#000">
<g stroke="none">
<use x="56.879795" y="158.578943" xlink:href="#g2-104"/>
<use x="62.414612" y="158.578943" xlink:href="#g2-111"/>
<use x="67.395951" y="158.578943" xlink:href="#g2-109"/>
<use x="75.698176" y="158.578943" xlink:href="#g2-101"/>
</g>
</g>
</g>
</g>
<path d="M 56.91025 79.83214 L 56.90936 92.77026" fill="none"/>
<g transform="matrix(-0.00005,0.99998,-0.99998,-0.00005,56.90936,92.97025)">
<g stroke-dasharray="none" stroke-dashoffset="0.0">
 <g stroke-linecap="round">
 <g stroke-linejoin="round">
 <path d=" M -2.07999 2.39998 C -1.69998 0.95998 -0.85318 0.28 0.0 0.0 C -0.85318 -0.28 -1.69998 -0.95998 -2.07999 -2.39998  " fill="none"/>
 </g>
 </g>
 </g>
</g>
<path d="M 56.9102 111.70102 L 56.90955 124.63914" fill="none"/>
<g transform="matrix(-0.00005,0.99998,-0.99998,-0.00005,56.90955,124.83913)">
<g stroke-dasharray="none" stroke-dashoffset="0.0">
 <g stroke-linecap="round">
 <g stroke-linejoin="round">
 <path d=" M -2.07999 2.39998 C -1.69998 0.95998 -0.85318 0.28 0.0 0.0 C -0.85318 -0.28 -1.69998 -0.95998 -2.07999 -2.39998  " fill="none"/>
 </g>
 </g>
 </g>
</g>
<path d="M 37.71971 102.43677 L 52.93416 102.43645" fill="none"/>
<g transform="translate(53.13416,102.43645)">
<g stroke-dasharray="none" stroke-dashoffset="0.0">
 <g stroke-linecap="round">
 <g stroke-linejoin="round">
 <path d=" M -2.07999 2.39998 C -1.69998 0.95998 -0.85318 0.28 0.0 0.0 C -0.85318 -0.28 -1.69998 -0.95998 -2.07999 -2.39998  " fill="none"/>
 </g>
 </g>
 </g>
</g>
<path d="M 53.49149 61.45807 L 60.31989 61.45807" fill="none"/>
<path d="M 53.49149 66.01047 L 60.31989 66.01047" fill="none"/>
<path d="M 53.49149 70.5632 L 60.31989 70.5632" fill="none"/>
<path d="M 53.49149 75.11559 L 60.31989 75.11559" fill="none"/>
<g transform="matrix(0.8,0.0,0.0,0.8,45.52455,56.60428)">
<g stroke="none" transform="scale(-1.00375,1.00375)translate(54.32968,158.578943)scale(-1,-1)">
<g fill="#000">
<g stroke="none">
<use x="66.012235" y="158.578943" xlink:href="#g2-48"/>
</g>
</g>
</g>
</g>
<g transform="matrix(0.8,0.0,0.0,0.8,45.52455,61.15666)">
<g stroke="none" transform="scale(-1.00375,1.00375)translate(54.32968,158.578943)scale(-1,-1)">
<g fill="#000">
<g stroke="none">
<use x="66.012235" y="158.578943" xlink:href="#g2-48"/>
</g>
</g>
</g>
</g>
<g transform="matrix(0.8,0.0,0.0,0.8,45.52455,65.70906)">
<g stroke="none" transform="scale(-1.00375,1.00375)translate(54.32968,158.578943)scale(-1,-1)">
<g fill="#000">
<g stroke="none">
<use x="66.012235" y="158.578943" xlink:href="#g2-48"/>
</g>
</g>
</g>
</g>
<g transform="matrix(0.8,0.0,0.0,0.8,45.52455,70.26144)">
<g stroke="none" transform="scale(-1.00375,1.00375)translate(54.32968,158.578943)scale(-1,-1)">
<g fill="#000">
<g stroke="none">
<use x="66.012235" y="158.578943" xlink:href="#g2-48"/>
</g>
</g>
</g>
</g>
<g transform="matrix(0.8,0.0,0.0,0.8,45.52455,74.81383)">
<g stroke="none" transform="scale(-1.00375,1.00375)translate(54.32968,158.578943)scale(-1,-1)">
<g fill="#000">
<g stroke="none">
<use x="66.012235" y="158.578943" xlink:href="#g2-49"/>
</g>
</g>
</g>
</g>
<path d="M 53.49149 129.74492 L 60.31989 129.74492" fill="none"/>
<path d="M 53.49149 134.2973 L 60.31989 134.2973" fill="none"/>
<path d="M 53.49149 138.85005 L 60.31989 138.85005" fill="none"/>
<path d="M 53.49149 143.40244 L 60.31989 143.40244" fill="none"/>
<g fill="#000" stroke="#000">
<path d="M 53.49149 138.85005 M 53.49149 138.85005 L 53.49149 143.40244 L 60.31989 143.40244 L 60.31989 138.85005 Z M 60.31989 143.40244"/>
</g>
<g fill="#8080ff">
<g stroke="#000">
<g fill="#8080ff">
<g stroke="#000">
<path d="M 83.08229 111.53516 L 76.25365 111.53516 L 76.25365 93.32535 L 83.08229 93.32535 Z M 76.25365 93.32535"/>
</g>
</g>
<g transform="matrix(0.8,0.0,0.0,0.8,79.66797,102.43025)">
<g stroke="none" transform="scale(-1.00375,1.00375)translate(54.32968,158.578943)scale(-1,-1)">
<g fill="#000">
<g stroke="none"/>
</g>
</g>
</g>
</g>
</g>
<g fill="#ffc080">
<g stroke="#000">
<g fill="#ffc080">
<g stroke="#000">
<path d="M 83.08229 79.66797 L 76.25365 79.66797 L 76.25365 56.9057 L 83.08229 56.9057 Z M 76.25365 56.9057"/>
</g>
</g>
<g transform="matrix(0.8,0.0,0.0,0.8,79.66797,68.28683)">
<g stroke="none" transform="scale(-1.00375,1.00375)translate(54.32968,158.578943)scale(-1,-1)">
<g fill="#000">
<g stroke="none"/>
</g>
</g>
</g>
</g>
</g>
<g fill="#0f0">
<g stroke="#000">
<g fill="#0f0">
<g stroke="#000">
<path d="M 83.08229 147.95482 L 76.25365 147.95482 L 76.25365 125.19255 L 83.08229 125.19255 Z M 76.25365 125.19255"/>
</g>
</g>
<g transform="matrix(0.8,0.0,0.0,0.8,79.66797,136.57368)">
<g stroke="none" transform="scale(-1.00375,1.00375)translate(54.32968,158.578943)scale(-1,-1)">
<g fill="#000">
<g stroke="none"/>
</g>
</g>
</g>
</g>
</g>
<g transform="matrix(0.8,0.0,0.0,0.8,56.9057,150.5072)">
<g stroke="none" transform="scale(-1.00375,1.00375)translate(54.32968,158.578943)scale(-1,-1)">
<g fill="#000">
<g stroke="none">
<use x="70.361161" y="158.578943" xlink:href="#g2-116"/>
<use x="74.235535" y="158.578943" xlink:href="#g2-111"/>
<use x="79.493622" y="158.578943" xlink:href="#g2-100"/>
<use x="85.028439" y="158.578943" xlink:href="#g2-97"/>
<use x="89.73303" y="158.578943" xlink:href="#g2-121"/>
</g>
</g>
</g>
</g>
<path d="M 79.67442 79.83214 L 79.67328 92.77026" fill="none"/>
<g transform="matrix(-0.00008,0.99998,-0.99998,-0.00008,79.67328,92.97025)">
<g stroke-dasharray="none" stroke-dashoffset="0.0">
 <g stroke-linecap="round">
 <g stroke-linejoin="round">
 <path d=" M -2.07999 2.39998 C -1.69998 0.95998 -0.85318 0.28 0.0 0.0 C -0.85318 -0.28 -1.69998 -0.95998 -2.07999 -2.39998  " fill="none"/>
 </g>
 </g>
 </g>
</g>
<path d="M 79.67441 111.70102 L 79.67357 124.63914" fill="none"/>
<g transform="matrix(-0.00005,0.99998,-0.99998,-0.00005,79.67357,124.83913)">
<g stroke-dasharray="none" stroke-dashoffset="0.0">
 <g stroke-linecap="round">
 <g stroke-linejoin="round">
 <path d=" M -2.07999 2.39998 C -1.69998 0.95998 -0.85318 0.28 0.0 0.0 C -0.85318 -0.28 -1.69998 -0.95998 -2.07999 -2.39998  " fill="none"/>
 </g>
 </g>
 </g>
</g>
<path d="M 60.48318 102.43677 L 75.69765 102.43645" fill="none"/>
<g transform="translate(75.89764,102.43645)">
<g stroke-dasharray="none" stroke-dashoffset="0.0">
 <g stroke-linecap="round">
 <g stroke-linejoin="round">
 <path d=" M -2.07999 2.39998 C -1.69998 0.95998 -0.85318 0.28 0.0 0.0 C -0.85318 -0.28 -1.69998 -0.95998 -2.07999 -2.39998  " fill="none"/>
 </g>
 </g>
 </g>
</g>
<path d="M 76.25377 61.45807 L 83.08217 61.45807" fill="none"/>
<path d="M 76.25377 66.01047 L 83.08217 66.01047" fill="none"/>
<path d="M 76.25377 70.5632 L 83.08217 70.5632" fill="none"/>
<path d="M 76.25377 75.11559 L 83.08217 75.11559" fill="none"/>
<g transform="matrix(0.8,0.0,0.0,0.8,68.28683,56.60428)">
<g stroke="none" transform="scale(-1.00375,1.00375)translate(54.32968,158.578943)scale(-1,-1)">
<g fill="#000">
<g stroke="none">
<use x="66.012235" y="158.578943" xlink:href="#g2-48"/>
</g>
</g>
</g>
</g>
<g transform="matrix(0.8,0.0,0.0,0.8,68.28683,61.15666)">
<g stroke="none" transform="scale(-1.00375,1.00375)translate(54.32968,158.578943)scale(-1,-1)">
<g fill="#000">
<g stroke="none">
<use x="66.012235" y="158.578943" xlink:href="#g2-48"/>
</g>
</g>
</g>
</g>
<g transform="matrix(0.8,0.0,0.0,0.8,68.28683,65.70906)">
<g stroke="none" transform="scale(-1.00375,1.00375)translate(54.32968,158.578943)scale(-1,-1)">
<g fill="#000">
<g stroke="none">
<use x="66.012235" y="158.578943" xlink:href="#g2-48"/>
</g>
</g>
</g>
</g>
<g transform="matrix(0.8,0.0,0.0,0.8,68.28683,70.26144)">
<g stroke="none" transform="scale(-1.00375,1.00375)translate(54.32968,158.578943)scale(-1,-1)">
<g fill="#000">
<g stroke="none">
<use x="66.012235" y="158.578943" xlink:href="#g2-49"/>
</g>
</g>
</g>
</g>
<g transform="matrix(0.8,0.0,0.0,0.8,68.28683,74.81383)">
<g stroke="none" transform="scale(-1.00375,1.00375)translate(54.32968,158.578943)scale(-1,-1)">
<g fill="#000">
<g stroke="none">
<use x="66.012235" y="158.578943" xlink:href="#g2-48"/>
</g>
</g>
</g>
</g>
<path d="M 76.25377 129.74492 L 83.08217 129.74492" fill="none"/>
<path d="M 76.25377 134.2973 L 83.08217 134.2973" fill="none"/>
<path d="M 76.25377 138.85005 L 83.08217 138.85005" fill="none"/>
<path d="M 76.25377 143.40244 L 83.08217 143.40244" fill="none"/>
<g stroke-dasharray="3.0,3.0" stroke-dashoffset="0.0">
<path d="M 60.77524 136.57368 L 68.28683 136.57368 L 68.28683 136.57368 L 68.28683 45.52455 L 79.66797 45.52455 L 79.66797 56.50569" fill="none"/>
<g transform="matrix(0.0,1.0,-1.0,0.0,79.66797,56.70569)">
<g stroke-dasharray="none" stroke-dashoffset="0.0">
 <g stroke-linecap="round">
 <g stroke-linejoin="round">
 <path d=" M -2.07999 2.39998 C -1.69998 0.95998 -0.85318 0.28 0.0 0.0 C -0.85318 -0.28 -1.69998 -0.95998 -2.07999 -2.39998  " fill="none"/>
 </g>
 </g>
 </g>
</g>
</g>
<g fill="#000" stroke="#000">
<path d="M 76.25377 134.2973 M 76.25377 134.2973 L 76.25377 129.74492 L 83.08217 129.74492 L 83.08217 134.2973 Z M 83.08217 129.74492"/>
</g>
<g stroke-dasharray="3.0,3.0" stroke-dashoffset="0.0">
<path d="M 83.53752 136.57368 L 91.04912 136.57368 L 91.04912 136.57368 L 91.04912 45.52455 L 102.43025 45.52455 L 102.43025 56.50569" fill="none"/>
<g transform="matrix(0.0,1.0,-1.0,0.0,102.43025,56.70569)">
<g stroke-dasharray="none" stroke-dashoffset="0.0">
 <g stroke-linecap="round">
 <g stroke-linejoin="round">
 <path d=" M -2.07999 2.39998 C -1.69998 0.95998 -0.85318 0.28 0.0 0.0 C -0.85318 -0.28 -1.69998 -0.95998 -2.07999 -2.39998  " fill="none"/>
 </g>
 </g>
 </g>
</g>
</g>
<g fill="#8080ff">
<g stroke="#000">
<g fill="#8080ff">
<g stroke="#000">
<path d="M 105.84457 111.53516 L 99.01593 111.53516 L 99.01593 93.32535 L 105.84457 93.32535 Z M 99.01593 93.32535"/>
</g>
</g>
<g transform="matrix(0.8,0.0,0.0,0.8,102.43025,102.43025)">
<g stroke="none" transform="scale(-1.00375,1.00375)translate(54.32968,158.578943)scale(-1,-1)">
<g fill="#000">
<g stroke="none"/>
</g>
</g>
</g>
</g>
</g>
<g fill="#ffc080">
<g stroke="#000">
<g fill="#ffc080">
<g stroke="#000">
<path d="M 105.84457 79.66797 L 99.01593 79.66797 L 99.01593 56.9057 L 105.84457 56.9057 Z M 99.01593 56.9057"/>
</g>
</g>
<g transform="matrix(0.8,0.0,0.0,0.8,102.43025,68.28683)">
<g stroke="none" transform="scale(-1.00375,1.00375)translate(54.32968,158.578943)scale(-1,-1)">
<g fill="#000">
<g stroke="none"/>
</g>
</g>
</g>
</g>
</g>
<g fill="#0f0">
<g stroke="#000">
<g fill="#0f0">
<g stroke="#000">
<path d="M 105.84457 147.95482 L 99.01593 147.95482 L 99.01593 125.19255 L 105.84457 125.19255 Z M 99.01593 125.19255"/>
</g>
</g>
<g transform="matrix(0.8,0.0,0.0,0.8,102.43025,136.57368)">
<g stroke="none" transform="scale(-1.00375,1.00375)translate(54.32968,158.578943)scale(-1,-1)">
<g fill="#000">
<g stroke="none"/>
</g>
</g>
</g>
</g>
</g>
<g transform="matrix(0.8,0.0,0.0,0.8,79.66798,150.82466)">
<g stroke="none" transform="scale(-1.00375,1.00375)translate(54.32968,158.578943)scale(-1,-1)">
<g fill="#000">
<g stroke="none">
<use x="65.767273" y="158.578943" xlink:href="#g1-60"/>
<use x="73.516021" y="158.578943" xlink:href="#g2-115"/>
<use x="77.445739" y="158.578943" xlink:href="#g2-116"/>
<use x="81.320113" y="158.578943" xlink:href="#g2-111"/>
<use x="86.301452" y="158.578943" xlink:href="#g2-112"/>
<use x="91.836269" y="158.578943" xlink:href="#g1-62"/>
</g>
</g>
</g>
</g>
<path d="M 102.43861 79.83214 L 102.43706 92.77026" fill="none"/>
<g transform="matrix(-0.00009,0.99998,-0.99998,-0.00009,102.43704,92.97025)">
<g stroke-dasharray="none" stroke-dashoffset="0.0">
 <g stroke-linecap="round">
 <g stroke-linejoin="round">
 <path d=" M -2.07999 2.39998 C -1.69998 0.95998 -0.85318 0.28 0.0 0.0 C -0.85318 -0.28 -1.69998 -0.95998 -2.07999 -2.39998  " fill="none"/>
 </g>
 </g>
 </g>
</g>
<path d="M 102.43843 111.70102 L 102.4374 124.63914" fill="none"/>
<g transform="matrix(-0.00008,0.99998,-0.99998,-0.00008,102.4374,124.83913)">
<g stroke-dasharray="none" stroke-dashoffset="0.0">
 <g stroke-linecap="round">
 <g stroke-linejoin="round">
 <path d=" M -2.07999 2.39998 C -1.69998 0.95998 -0.85318 0.28 0.0 0.0 C -0.85318 -0.28 -1.69998 -0.95998 -2.07999 -2.39998  " fill="none"/>
 </g>
 </g>
 </g>
</g>
<path d="M 84.22334 102.43562 L 98.46114 102.43663" fill="none"/>
<g transform="matrix(0.99998,0.00005,-0.00005,0.99998,98.66112,102.43663)">
<g stroke-dasharray="none" stroke-dashoffset="0.0">
 <g stroke-linecap="round">
 <g stroke-linejoin="round">
 <path d=" M -2.07999 2.39998 C -1.69998 0.95998 -0.85318 0.28 0.0 0.0 C -0.85318 -0.28 -1.69998 -0.95998 -2.07999 -2.39998  " fill="none"/>
 </g>
 </g>
 </g>
</g>
<path d="M 99.01605 61.45807 L 105.84445 61.45807" fill="none"/>
<path d="M 99.01605 66.01047 L 105.84445 66.01047" fill="none"/>
<path d="M 99.01605 70.5632 L 105.84445 70.5632" fill="none"/>
<path d="M 99.01605 75.11559 L 105.84445 75.11559" fill="none"/>
<g transform="matrix(0.8,0.0,0.0,0.8,91.04912,56.60428)">
<g stroke="none" transform="scale(-1.00375,1.00375)translate(54.32968,158.578943)scale(-1,-1)">
<g fill="#000">
<g stroke="none">
<use x="66.012235" y="158.578943" xlink:href="#g2-48"/>
</g>
</g>
</g>
</g>
<g transform="matrix(0.8,0.0,0.0,0.8,91.04912,61.15666)">
<g stroke="none" transform="scale(-1.00375,1.00375)translate(54.32968,158.578943)scale(-1,-1)">
<g fill="#000">
<g stroke="none">
<use x="66.012235" y="158.578943" xlink:href="#g2-49"/>
</g>
</g>
</g>
</g>
<g transform="matrix(0.8,0.0,0.0,0.8,91.04912,65.70906)">
<g stroke="none" transform="scale(-1.00375,1.00375)translate(54.32968,158.578943)scale(-1,-1)">
<g fill="#000">
<g stroke="none">
<use x="66.012235" y="158.578943" xlink:href="#g2-48"/>
</g>
</g>
</g>
</g>
<g transform="matrix(0.8,0.0,0.0,0.8,91.04912,70.26144)">
<g stroke="none" transform="scale(-1.00375,1.00375)translate(54.32968,158.578943)scale(-1,-1)">
<g fill="#000">
<g stroke="none">
<use x="66.012235" y="158.578943" xlink:href="#g2-48"/>
</g>
</g>
</g>
</g>
<g transform="matrix(0.8,0.0,0.0,0.8,91.04912,74.81383)">
<g stroke="none" transform="scale(-1.00375,1.00375)translate(54.32968,158.578943)scale(-1,-1)">
<g fill="#000">
<g stroke="none">
<use x="66.012235" y="158.578943" xlink:href="#g2-48"/>
</g>
</g>
</g>
</g>
<path d="M 99.01605 129.74492 L 105.84445 129.74492" fill="none"/>
<path d="M 99.01605 134.2973 L 105.84445 134.2973" fill="none"/>
<path d="M 99.01605 138.85005 L 105.84445 138.85005" fill="none"/>
<path d="M 99.01605 143.40244 L 105.84445 143.40244" fill="none"/>
<g fill="#000" stroke="#000">
<path d="M 99.01605 125.19254 M 99.01605 125.19254 L 99.01605 129.74492 L 105.84445 129.74492 L 105.84445 125.19254 Z M 105.84445 129.74492"/>
</g>
<g transform="matrix(0.8,0.0,0.0,0.8,97.87787,101.3858)">
<g stroke="none" transform="scale(-1.00375,1.00375)translate(54.32968,158.578943)scale(-1,-1)">
<g fill="#000">
<g stroke="none">
<use x="62.974356" y="158.578943" xlink:href="#g1-115"/>
<use x="67.644344" y="160.267056" xlink:href="#g0-116"/>
</g>
</g>
</g>
</g>
</g>
</g>
</g>
</g>
</svg>