<?xml version="1.0" encoding="UTF-8" standalone="no"?>
<!DOCTYPE svg PUBLIC "-//W3C//DTD SVG 1.1//EN"
 "http://www.w3.org/Graphics/SVG/1.1/DTD/svg11.dtd">
<!-- Generated by graphviz version 14.1.1 (20251213.1925)
 -->
<!-- Title: NLP_Pipeline Pages: 1 -->
<svg width="1130pt" height="605pt"
 viewBox="0.00 0.00 1130.00 605.00" xmlns="http://www.w3.org/2000/svg" xmlns:xlink="http://www.w3.org/1999/xlink">
<g id="graph0" class="graph" transform="scale(1 1) rotate(0) translate(54 550.5)">
<title>NLP_Pipeline</title>
<polygon fill="white" stroke="none" points="-54,54 -54,-550.5 1075.99,-550.5 1075.99,54 -54,54"/>
<g id="clust1" class="cluster">
<title>cluster_lexical</title>
<path fill="#e8f0ff" stroke="#cccccc" d="M20,-329C20,-329 358,-329 358,-329 364,-329 370,-335 370,-341 370,-341 370,-413.5 370,-413.5 370,-419.5 364,-425.5 358,-425.5 358,-425.5 20,-425.5 20,-425.5 14,-425.5 8,-419.5 8,-413.5 8,-413.5 8,-341 8,-341 8,-335 14,-329 20,-329"/>
<text xml:space="preserve" text-anchor="middle" x="189" y="-410.1" font-family="Helvetica,sans-Serif" font-size="12.00">Lexical processing</text>
</g>
<g id="clust2" class="cluster">
<title>cluster_structural</title>
<path fill="#fff4d6" stroke="#cccccc" d="M251,-161C251,-161 665,-161 665,-161 671,-161 677,-167 677,-173 677,-173 677,-245.5 677,-245.5 677,-251.5 671,-257.5 665,-257.5 665,-257.5 251,-257.5 251,-257.5 245,-257.5 239,-251.5 239,-245.5 239,-245.5 239,-173 239,-173 239,-167 245,-161 251,-161"/>
<text xml:space="preserve" text-anchor="middle" x="458" y="-242.1" font-family="Helvetica,sans-Serif" font-size="12.00">Structural representation</text>
</g>
<g id="clust3" class="cluster">
<title>cluster_algorithm</title>
<path fill="#d6ebd6" stroke="#cccccc" d="M697,-8C697,-8 897,-8 897,-8 903,-8 909,-14 909,-20 909,-20 909,-413.5 909,-413.5 909,-419.5 903,-425.5 897,-425.5 897,-425.5 697,-425.5 697,-425.5 691,-425.5 685,-419.5 685,-413.5 685,-413.5 685,-20 685,-20 685,-14 691,-8 697,-8"/>
<text xml:space="preserve" text-anchor="middle" x="797" y="-410.1" font-family="Helvetica,sans-Serif" font-size="12.00">Algorithm</text>
</g>
<!-- Characters -->
<g id="node1" class="node">
<title>Characters</title>
<path fill="#1f3a8a" stroke="#1f3a8a" d="M78.25,-373C78.25,-373 27.75,-373 27.75,-373 21.75,-373 15.75,-367 15.75,-361 15.75,-361 15.75,-349 15.75,-349 15.75,-343 21.75,-337 27.75,-337 27.75,-337 78.25,-337 78.25,-337 84.25,-337 90.25,-343 90.25,-349 90.25,-349 90.25,-361 90.25,-361 90.25,-367 84.25,-373 78.25,-373"/>
<text xml:space="preserve" text-anchor="middle" x="53" y="-350.73" font-family="Helvetica,sans-Serif" font-size="12.00" fill="#ffffff">Characters</text>
</g>
<!-- Tokens -->
<g id="node2" class="node">
<title>Tokens</title>
<path fill="#1f3a8a" stroke="#1f3a8a" d="M194.12,-373C194.12,-373 163.88,-373 163.88,-373 157.88,-373 151.88,-367 151.88,-361 151.88,-361 151.88,-349 151.88,-349 151.88,-343 157.88,-337 163.88,-337 163.88,-337 194.12,-337 194.12,-337 200.12,-337 206.12,-343 206.12,-349 206.12,-349 206.12,-361 206.12,-361 206.12,-367 200.12,-373 194.12,-373"/>
<text xml:space="preserve" text-anchor="middle" x="179" y="-350.73" font-family="Helvetica,sans-Serif" font-size="12.00" fill="#ffffff">Tokens</text>
</g>
<!-- Characters&#45;&gt;Tokens -->
<g id="edge1" class="edge">
<title>Characters&#45;&gt;Tokens</title>
<path fill="none" stroke="#1f3a8a" d="M90.46,-355C106.53,-355 125.26,-355 141.35,-355"/>
<polygon fill="#1f3a8a" stroke="#1f3a8a" points="140.97,-358.15 149.97,-355 140.97,-351.85 140.97,-358.15"/>
<text xml:space="preserve" text-anchor="middle" x="121.06" y="-361.05" font-family="Helvetica,sans-Serif" font-size="11.00">data flow</text>
</g>
<!-- TaggedTokens -->
<g id="node3" class="node">
<title>TaggedTokens</title>
<path fill="#1f3a8a" stroke="#1f3a8a" d="M350,-373C350,-373 280,-373 280,-373 274,-373 268,-367 268,-361 268,-361 268,-349 268,-349 268,-343 274,-337 280,-337 280,-337 350,-337 350,-337 356,-337 362,-343 362,-349 362,-349 362,-361 362,-361 362,-367 356,-373 350,-373"/>
<text xml:space="preserve" text-anchor="middle" x="315" y="-350.73" font-family="Helvetica,sans-Serif" font-size="12.00" fill="#ffffff">TaggedTokens</text>
</g>
<!-- Tokens&#45;&gt;TaggedTokens -->
<g id="edge2" class="edge">
<title>Tokens&#45;&gt;TaggedTokens</title>
<path fill="none" stroke="#1f3a8a" d="M206.52,-355C221.19,-355 239.8,-355 257.45,-355"/>
<polygon fill="#1f3a8a" stroke="#1f3a8a" points="257.18,-358.15 266.18,-355 257.18,-351.85 257.18,-358.15"/>
<text xml:space="preserve" text-anchor="middle" x="237.06" y="-361.05" font-family="Helvetica,sans-Serif" font-size="11.00">data flow</text>
</g>
<!-- SyntaxTree -->
<g id="node5" class="node">
<title>SyntaxTree</title>
<path fill="#e9bc55" stroke="#e9bc55" d="M311,-205C311,-205 259,-205 259,-205 253,-205 247,-199 247,-193 247,-193 247,-181 247,-181 247,-175 253,-169 259,-169 259,-169 311,-169 311,-169 317,-169 323,-175 323,-181 323,-181 323,-193 323,-193 323,-199 317,-205 311,-205"/>
<text xml:space="preserve" text-anchor="middle" x="285" y="-182.72" font-family="Helvetica,sans-Serif" font-size="12.00">Syntax tree</text>
</g>
<!-- Tokens&#45;&gt;SyntaxTree -->
<g id="edge9" class="edge">
<title>Tokens&#45;&gt;SyntaxTree</title>
<path fill="none" stroke="#1f3a8a" d="M190.14,-336.55C208.83,-307.28 246.58,-248.16 268.4,-213.99"/>
<polygon fill="#1f3a8a" stroke="#1f3a8a" points="270.84,-216.02 273.03,-206.74 265.53,-212.63 270.84,-216.02"/>
<text xml:space="preserve" text-anchor="middle" x="256.93" y="-268.55" font-family="Helvetica,sans-Serif" font-size="11.00">data flow</text>
</g>
<!-- TaggedTokens&#45;&gt;SyntaxTree -->
<g id="edge10" class="edge">
<title>TaggedTokens&#45;&gt;SyntaxTree</title>
<path fill="none" stroke="#1f3a8a" d="M311.85,-336.55C306.65,-307.78 296.24,-250.17 290.02,-215.76"/>
<polygon fill="#1f3a8a" stroke="#1f3a8a" points="293.13,-215.25 288.43,-206.96 286.93,-216.37 293.13,-215.25"/>
<text xml:space="preserve" text-anchor="middle" x="322.65" y="-268.55" font-family="Helvetica,sans-Serif" font-size="11.00">data flow</text>
</g>
<!-- EntityRelations -->
<g id="node4" class="node">
<title>EntityRelations</title>
<path fill="#e9bc55" stroke="#e9bc55" d="M489.62,-205C489.62,-205 396.38,-205 396.38,-205 390.38,-205 384.38,-199 384.38,-193 384.38,-193 384.38,-181 384.38,-181 384.38,-175 390.38,-169 396.38,-169 396.38,-169 489.62,-169 489.62,-169 495.62,-169 501.62,-175 501.62,-181 501.62,-181 501.62,-193 501.62,-193 501.62,-199 495.62,-205 489.62,-205"/>
<text xml:space="preserve" text-anchor="middle" x="443" y="-182.72" font-family="Helvetica,sans-Serif" font-size="12.00">Entity relationships</text>
</g>
<!-- KnowledgeBase -->
<g id="node6" class="node">
<title>KnowledgeBase</title>
<path fill="#e9bc55" stroke="#e9bc55" d="M657,-205C657,-205 575,-205 575,-205 569,-205 563,-199 563,-193 563,-193 563,-181 563,-181 563,-175 569,-169 575,-169 575,-169 657,-169 657,-169 663,-169 669,-175 669,-181 669,-181 669,-193 669,-193 669,-199 663,-205 657,-205"/>
<text xml:space="preserve" text-anchor="middle" x="616" y="-182.72" font-family="Helvetica,sans-Serif" font-size="12.00">Knowledge base</text>
</g>
<!-- EntityRelations&#45;&gt;KnowledgeBase -->
<g id="edge4" class="edge">
<title>EntityRelations&#45;&gt;KnowledgeBase</title>
<path fill="none" stroke="#1f3a8a" d="M502.05,-187C518.35,-187 536.09,-187 552.62,-187"/>
<polygon fill="#1f3a8a" stroke="#1f3a8a" points="552.21,-190.15 561.21,-187 552.21,-183.85 552.21,-190.15"/>
<text xml:space="preserve" text-anchor="middle" x="532.31" y="-193.05" font-family="Helvetica,sans-Serif" font-size="11.00">data flow</text>
</g>
<!-- SyntaxTree&#45;&gt;EntityRelations -->
<g id="edge3" class="edge">
<title>SyntaxTree&#45;&gt;EntityRelations</title>
<path fill="none" stroke="#1f3a8a" d="M323.25,-187C338.52,-187 356.58,-187 373.99,-187"/>
<polygon fill="#1f3a8a" stroke="#1f3a8a" points="373.63,-190.15 382.63,-187 373.62,-183.85 373.63,-190.15"/>
<text xml:space="preserve" text-anchor="middle" x="353.69" y="-193.05" font-family="Helvetica,sans-Serif" font-size="11.00">data flow</text>
</g>
<!-- fst_pos -->
<g id="node8" class="node">
<title>fst_pos</title>
<path fill="#73af59" stroke="#99cc99" d="M777.12,-205C777.12,-205 704.88,-205 704.88,-205 698.88,-205 692.88,-199 692.88,-193 692.88,-193 692.88,-181 692.88,-181 692.88,-175 698.88,-169 704.88,-169 704.88,-169 777.12,-169 777.12,-169 783.12,-169 789.12,-175 789.12,-181 789.12,-181 789.12,-193 789.12,-193 789.12,-199 783.12,-205 777.12,-205"/>
<text xml:space="preserve" text-anchor="middle" x="741" y="-182.72" font-family="Helvetica,sans-Serif" font-size="12.00">Part&#45;of&#45;Speech</text>
</g>
<!-- SyntaxTree&#45;&gt;fst_pos -->
<g id="edge13" class="edge">
<title>SyntaxTree&#45;&gt;fst_pos</title>
<path fill="none" stroke="#99cc99" stroke-width="2" stroke-dasharray="5,2" d="M301.13,-205.23C317.69,-222.44 345.18,-247.1 375,-257.38 439.29,-279.53 619.26,-285.87 681,-257.38 699.89,-248.65 715.04,-230.73 725.38,-215.15"/>
<polygon fill="#99cc99" stroke="#99cc99" stroke-width="2" points="727.79,-217.24 729.88,-207.94 722.44,-213.91 727.79,-217.24"/>
<text xml:space="preserve" text-anchor="middle" x="474" y="-268.55" font-family="Helvetica,sans-Serif" font-size="11.00">algorithmic influence</text>
</g>
<!-- KB_fanout -->
<!-- KnowledgeBase&#45;&gt;KB_fanout -->
<g id="edge14" class="edge">
<title>KnowledgeBase&#45;&gt;KB_fanout</title>
<path fill="none" stroke="#99cc99" stroke-width="2" stroke-dasharray="5,2" d="M596.33,-205.43C576.37,-221.99 543.81,-246.02 511,-257.5 492.05,-264.13 434.55,-250.69 421,-265.5 416.95,-269.93 417.49,-274.13 421,-279 472.29,-350.27 594.47,-354.79 633.09,-354.36"/>
<polygon fill="#99cc99" stroke="#99cc99" stroke-width="2" points="632.95,-357.51 641.86,-354.1 632.77,-351.22 632.95,-357.51"/>
</g>
<!-- fst_regex -->
<g id="node7" class="node">
<title>fst_regex</title>
<path fill="#73af59" stroke="#99cc99" d="M845.12,-373C845.12,-373 748.88,-373 748.88,-373 742.88,-373 736.88,-367 736.88,-361 736.88,-361 736.88,-349 736.88,-349 736.88,-343 742.88,-337 748.88,-337 748.88,-337 845.12,-337 845.12,-337 851.12,-337 857.12,-343 857.12,-349 857.12,-349 857.12,-361 857.12,-361 857.12,-367 851.12,-373 845.12,-373"/>
<text xml:space="preserve" text-anchor="middle" x="797" y="-350.73" font-family="Helvetica,sans-Serif" font-size="12.00">Regular expression</text>
</g>
<!-- fst_regex&#45;&gt;Tokens -->
<g id="edge11" class="edge">
<title>fst_regex&#45;&gt;Tokens</title>
<path fill="none" stroke="#99cc99" stroke-width="2" stroke-dasharray="5,2" d="M769.42,-373.36C741.64,-390.67 696.85,-415.4 654,-425.38 568.51,-445.27 341.13,-456.36 259,-425.38 236,-416.7 215.31,-398.06 200.74,-382.14"/>
<polygon fill="#99cc99" stroke="#99cc99" stroke-width="2" points="203.19,-380.16 194.89,-375.46 198.45,-384.31 203.19,-380.16"/>
<text xml:space="preserve" text-anchor="middle" x="606" y="-436.55" font-family="Helvetica,sans-Serif" font-size="11.00">algorithmic influence</text>
</g>
<!-- fst_regex&#45;&gt;TaggedTokens -->
<g id="edge12" class="edge">
<title>fst_regex&#45;&gt;TaggedTokens</title>
<path fill="none" stroke="#99cc99" stroke-width="2" stroke-dasharray="5,2" d="M769.42,-373.36C741.64,-390.67 696.85,-415.4 654,-425.38 550.92,-449.36 429.28,-407.07 363.37,-378.32"/>
<polygon fill="#99cc99" stroke="#99cc99" stroke-width="2" points="364.77,-375.49 355.27,-374.71 362.21,-381.25 364.77,-375.49"/>
<text xml:space="preserve" text-anchor="middle" x="454" y="-436.55" font-family="Helvetica,sans-Serif" font-size="11.00">algorithmic influence</text>
</g>
<!-- fst_regex&#45;&gt;fst_pos -->
<!-- fst_logic -->
<g id="node9" class="node">
<title>fst_logic</title>
<path fill="#73af59" stroke="#99cc99" d="M889,-205C889,-205 819,-205 819,-205 813,-205 807,-199 807,-193 807,-193 807,-181 807,-181 807,-175 813,-169 819,-169 819,-169 889,-169 889,-169 895,-169 901,-175 901,-181 901,-181 901,-193 901,-193 901,-199 895,-205 889,-205"/>
<text xml:space="preserve" text-anchor="middle" x="854" y="-182.72" font-family="Helvetica,sans-Serif" font-size="12.00">Logic compiler</text>
</g>
<!-- fst_regex&#45;&gt;fst_logic -->
<!-- fst_ie -->
<g id="node10" class="node">
<title>fst_ie</title>
<path fill="#73af59" stroke="#99cc99" d="M846,-52C846,-52 746,-52 746,-52 740,-52 734,-46 734,-40 734,-40 734,-28 734,-28 734,-22 740,-16 746,-16 746,-16 846,-16 846,-16 852,-16 858,-22 858,-28 858,-28 858,-40 858,-40 858,-46 852,-52 846,-52"/>
<text xml:space="preserve" text-anchor="middle" x="796" y="-29.73" font-family="Helvetica,sans-Serif" font-size="12.00">Information extractor</text>
</g>
<!-- fst_pos&#45;&gt;fst_ie -->
<!-- fst_logic&#45;&gt;fst_ie -->
<!-- KB_fanout&#45;&gt;fst_logic -->
<g id="edge16" class="edge">
<title>KB_fanout&#45;&gt;fst_logic</title>
<path fill="none" stroke="#99cc99" stroke-width="2" stroke-dasharray="5,2" d="M644.91,-353.96C641.22,-352.46 523.29,-303.99 560.5,-265.5 578.85,-246.52 774.38,-269.3 798,-257.5 816.02,-248.5 830.18,-230.72 839.75,-215.4"/>
<polygon fill="#99cc99" stroke="#99cc99" stroke-width="2" points="842.29,-217.29 844.11,-207.93 836.85,-214.12 842.29,-217.29"/>
<text xml:space="preserve" text-anchor="middle" x="609.25" y="-268.55" font-family="Helvetica,sans-Serif" font-size="11.00">algorithmic influence</text>
</g>
<!-- KB_fanout&#45;&gt;fst_ie -->
<g id="edge15" class="edge">
<title>KB_fanout&#45;&gt;fst_ie</title>
<path fill="none" stroke="#99cc99" stroke-width="2" stroke-dasharray="5,2" d="M645.05,-353.95C646.16,-352.98 664.05,-337.29 681,-329 776.78,-282.16 846.83,-343.4 910,-257.5 958.31,-191.8 874.3,-102.69 826.17,-59.92"/>
<polygon fill="#99cc99" stroke="#99cc99" stroke-width="2" points="828.5,-57.77 819.64,-54.23 824.36,-62.52 828.5,-57.77"/>
<text xml:space="preserve" text-anchor="middle" x="973.24" y="-183.3" font-family="Helvetica,sans-Serif" font-size="11.00">algorithmic influence</text>
</g>
</g>
</svg>
