<?xml version="1.0" encoding="UTF-8"?>
<svg xmlns="http://www.w3.org/2000/svg" version="1.1" viewBox="0 0 1050 700">
  <!-- Generator: Adobe Illustrator 29.0.0, SVG Export Plug-In . SVG Version: 2.1.0 Build 186)  -->
  <defs>
    <style>
      .st0 {
        fill: #c41a22;
      }

      .st1 {
        fill: #d8d6bf;
      }

      .st2 {
        fill: #231f20;
      }

      .st3 {
        fill: #8a0204;
      }
    </style>
  </defs>
  <g id="Layer_2">
    <rect class="st1" y="397.2912" width="206.5201" height="56.4444"/>
    <path class="st1" d="M57.3086,97.2912h992.531v300H0v-242.6914c0-31.6295,25.6791-57.3086,57.3086-57.3086Z"/>
    <path class="st3" d="M52.1852,397h997.6545v302H0v-249.8148c0-28.8018,23.3834-52.1852,52.1852-52.1852Z"/>
  </g>
  <g id="Layer_3">
    <path class="st1" d="M263.7992,431.4941l-181.6794.5059-17.4007-17.3524v-17.6476h178.7273c7.9483,7.9483,12.4046,12.4046,20.3529,20.3529v14.1412Z"/>
    <path class="st3" d="M263.7992,131.7853l-181.6794.5059-17.4007-17.3524v-17.6476h178.7273c7.9483,7.9483,12.4046,12.4046,20.3529,20.3529v14.1412Z"/>
    <g>
      <path class="st0" d="M69.5541,55.0094h-4.835v-16.8504h4.9081c3.7857,0,5.5936,1.7092,5.5936,4.3715,0,1.7577-.9779,2.9057-2.4422,3.5163,1.8793.5858,3.1258,1.8069,3.1258,4.0544,0,3.3207-2.3929,4.9083-6.3503,4.9083ZM69.4572,40.6257h-1.6361v4.4685h1.4897c1.9047,0,2.9065-.8546,2.9065-2.295,0-1.3435-.8062-2.1735-2.7602-2.1735ZM69.5064,47.3902h-1.6853v5.1522h1.733c2.0527,0,3.2483-.8546,3.2483-2.539,0-1.71-1.1478-2.6131-3.296-2.6131Z"/>
      <path class="st0" d="M83.0592,55.2534c-3.1989,0-5.5187-2.2952-5.5187-6.1294s2.3435-6.154,5.5442-6.154c3.2229,0,5.5664,2.3198,5.5664,6.154s-2.3675,6.1294-5.592,6.1294ZM83.0592,45.3876c-1.733,0-2.6615,1.5383-2.6615,3.7364,0,2.1488.9523,3.7364,2.6615,3.7364,1.8079,0,2.7348-1.5391,2.7348-3.7364,0-2.1734-.9762-3.7364-2.7348-3.7364Z"/>
      <path class="st0" d="M95.0032,55.2287c-1.7108,0-3.4694-.5366-4.5918-1.1472l.3911-2.4422c1.2688.83,2.8318,1.392,4.2978,1.392,1.2703,0,1.9539-.4642,1.9539-1.2211,0-.8307-.5135-1.1726-2.3945-1.6361-2.857-.733-4.0527-1.5628-4.0527-3.7124,0-2.0265,1.6122-3.4677,4.3469-3.4677,1.5374,0,2.9542.2934,4.1276.8307l-.3912,2.4422c-1.1718-.6597-2.5646-1.0747-3.7364-1.0747-1.0987,0-1.6361.415-1.6361,1.0747,0,.6345.4389.9762,2.1973,1.4406,3.0527.7815,4.2501,1.6122,4.2501,3.8342,0,2.3198-1.6615,3.687-4.7619,3.687Z"/>
      <path class="st0" d="M106.7673,55.2049c-2.3198,0-3.8827-.8546-3.8827-3.5408v-6.0569h-1.6615v-2.393h1.6615v-3.7364l2.881-.4396v4.176h2.4184l.3657,2.393h-2.7841v5.568c0,.9523.4404,1.4651,1.563,1.4651.3419,0,.6599-.0239.9285-.0979l.3657,2.467c-.4627.0977-1,.1955-1.8554.1955Z"/>
      <path class="st0" d="M115.6297,55.2534c-3.1989,0-5.5187-2.2952-5.5187-6.1294s2.3435-6.154,5.5442-6.154c3.2227,0,5.5664,2.3198,5.5664,6.154s-2.3675,6.1294-5.592,6.1294ZM115.6297,45.3876c-1.733,0-2.6615,1.5383-2.6615,3.7364,0,2.1488.9523,3.7364,2.6615,3.7364,1.8079,0,2.7348-1.5391,2.7348-3.7364,0-2.1734-.9762-3.7364-2.7348-3.7364Z"/>
      <path class="st0" d="M130.5993,55.0094v-7.717c0-1.0256-.4404-1.7338-1.5137-1.7338-.9285,0-1.8316.5858-2.6871,1.4897v7.961h-2.9303v-11.7953h2.4915l.2686,1.6608c1.0987-1.0503,2.3435-1.9049,3.9305-1.9049,2.1988,0,3.3707,1.3427,3.3707,3.5408v8.4985h-2.9303Z"/>
      <path class="st0" d="M148.55,55.3026c-4.0783,0-6.7399-2.4183-6.7399-6.8137v-10.33h3.2229v10.159c0,2.5646,1.1718,4.176,3.5409,4.176,2.3928,0,3.5902-1.5143,3.5902-4.1029v-10.2321h3.2483v10.2569c0,4.4685-2.7841,6.8868-6.8622,6.8868Z"/>
      <path class="st0" d="M165.3765,55.0094v-7.717c0-1.0256-.4404-1.7338-1.5137-1.7338-.9285,0-1.8316.5858-2.6871,1.4897v7.961h-2.9303v-11.7953h2.4915l.2686,1.6608c1.0987-1.0503,2.3437-1.9049,3.9305-1.9049,2.1989,0,3.3707,1.3427,3.3707,3.5408v8.4985h-2.9303Z"/>
      <path class="st0" d="M172.8494,41.2363c-.9779,0-1.7585-.6845-1.7585-1.6607,0-1.0018.7807-1.71,1.7585-1.71.9523,0,1.733.7082,1.733,1.71,0,.9762-.7807,1.6607-1.733,1.6607ZM171.3595,55.0094v-11.7953h2.9303v11.7953h-2.9303Z"/>
      <path class="st0" d="M183.3018,55.0577h-2.8572l-4.1276-11.6242,3.0767-.3903,2.6377,8.3759,2.5408-8.2051h2.9047l-4.1752,11.8436Z"/>
      <path class="st0" d="M194.0691,55.2534c-3.2976,0-5.7637-1.8802-5.7637-6.1294,0-3.8342,2.296-6.154,5.3725-6.154,3.5408,0,5.1276,2.6617,5.1276,6.007,0,.2449-.0238.5374-.0238.7082h-7.5952c.1462,2.3206,1.3927,3.2968,3.1989,3.2968,1.5153,0,2.7602-.5612,4.0544-1.4651l.3419,2.296c-1.2704.8792-2.8079,1.4406-4.7126,1.4406ZM191.2357,47.8536h4.7128c-.1941-1.8308-.9271-2.857-2.3437-2.857-1.1718,0-2.1496.9523-2.3691,2.857Z"/>
      <path class="st0" d="M204.1065,48.2448v6.7645h-2.9303v-11.7953h2.4915l.3657,2.3691c.7807-1.3681,1.9541-2.5153,3.7857-2.6131l.4627,2.9057c-1.8302.1224-3.3453,1.0995-4.1753,2.3691Z"/>
      <path class="st0" d="M213.9452,55.2287c-1.7092,0-3.4677-.5366-4.5903-1.1472l.3912-2.4422c1.2688.83,2.8316,1.392,4.2976,1.392,1.2704,0,1.9541-.4642,1.9541-1.2211,0-.8307-.5135-1.1726-2.3945-1.6361-2.8572-.733-4.0529-1.5628-4.0529-3.7124,0-2.0265,1.6123-3.4677,4.3471-3.4677,1.5374,0,2.9541.2934,4.1275.8307l-.3911,2.4422c-1.1718-.6597-2.5646-1.0747-3.7364-1.0747-1.0987,0-1.6361.415-1.6361,1.0747,0,.6345.4388.9762,2.1973,1.4406,3.0527.7815,4.2499,1.6122,4.2499,3.8342,0,2.3198-1.6615,3.687-4.7634,3.687Z"/>
      <path class="st0" d="M222.6407,41.2363c-.9779,0-1.7585-.6845-1.7585-1.6607,0-1.0018.7807-1.71,1.7585-1.71.9523,0,1.733.7082,1.733,1.71,0,.9762-.7807,1.6607-1.733,1.6607ZM221.1508,55.0094v-11.7953h2.9305v11.7953h-2.9305Z"/>
      <path class="st0" d="M231.6749,55.2049c-2.3198,0-3.8826-.8546-3.8826-3.5408v-6.0569h-1.6617v-2.393h1.6617v-3.7364l2.881-.4396v4.176h2.4183l.3657,2.393h-2.7839v5.568c0,.9523.4404,1.4651,1.5628,1.4651.3419,0,.6599-.0239.9287-.0979l.3657,2.467c-.4627.0977-1.0002.1955-1.8556.1955Z"/>
      <path class="st0" d="M241.2958,55.6445c-1.0493,2.9057-2.3929,3.8095-4.6649,3.8095-.5121,0-.8046-.0492-1.0733-.1224l-.3912-2.4174c.3912.0977.8062.171,1.3675.171.8554,0,1.5391-.3904,1.9047-1.2458l.2688-.7815-4.2738-11.6242,3.0527-.3903,2.7346,8.4005,2.6379-8.2297h2.9064l-4.4694,12.4304Z"/>
      <path class="st2" d="M270.6274,55.0094l-1.1003-14.3837-5.835,14.4813h-1.3198l-5.8606-14.4813-1.0987,14.3837h-1.563l1.3421-16.8504h2.0763l5.7875,14.7015,5.8129-14.7015h2.0511l1.3435,16.8504h-1.6361Z"/>
      <path class="st2" d="M280.4932,55.2534c-3.0289,0-5.2023-2.0511-5.2023-6.0315,0-3.7126,2.1496-6.0078,4.9829-6.0078,3.1498,0,4.6634,2.5886,4.6634,5.7875v.3419h-8.0341c.0493,2.8572,1.3675,4.5179,3.6872,4.5179,1.5391,0,2.8826-.6836,4.0781-1.7092l.2449,1.4651c-1.1478.977-2.6377,1.6361-4.42,1.6361ZM276.9761,48.0739h6.3012c-.1464-2.0757-1.148-3.5654-3.0036-3.5654-1.8077,0-3.005,1.3427-3.2976,3.5654Z"/>
      <path class="st2" d="M291.5561,55.2049c-1.8062,0-3.0034-.7084-3.0034-2.8334v-7.5458h-1.7823v-1.3675h1.7823v-4.005l1.5868-.2688v4.2738h2.6617l.2209,1.3675h-2.8826v7.2772c0,1.1726.4643,1.6855,1.7092,1.6855.3673,0,.8061-.0733,1.0749-.1225l.2447,1.3435c-.3417.0977-.9285.1955-1.6122.1955Z"/>
      <path class="st2" d="M297.6599,47.7567v7.2526h-1.6105v-11.5512h1.1957l.3672,2.3691c.8539-1.2942,2.1973-2.5646,4.1022-2.6131l.2686,1.5137c-1.9047.1224-3.5408,1.4899-4.3232,3.029Z"/>
      <path class="st2" d="M308.4782,55.2534c-2.9542,0-5.1769-2.1982-5.1769-6.0078,0-3.8334,2.272-6.0315,5.1769-6.0315,3.005,0,5.2517,2.1981,5.2517,6.0315,0,3.8096-2.296,6.0078-5.2517,6.0078ZM308.4782,44.5816c-2.2944,0-3.5408,1.9293-3.5408,4.6641,0,2.6625,1.2703,4.6403,3.5408,4.6403,2.3451,0,3.59-1.9047,3.59-4.6403,0-2.6615-1.2688-4.6641-3.59-4.6641Z"/>
      <path class="st2" d="M321.3981,55.1556c-1.148,0-2.1734-.2195-3.005-.5612v4.6156l-1.6105.2688v-16.0206h1.2449l.2686,1.6608c.9031-1.0256,2.0511-1.9049,3.7365-1.9049,2.5153,0,4.6395,1.8316,4.6395,5.6898,0,4.2253-2.4661,6.2516-5.274,6.2516ZM321.8608,44.6547c-1.3673,0-2.4168.8061-3.4677,2.0757v6.3741c.9047.4398,1.7585.6838,2.9557.6838,2.075,0,3.6872-1.5876,3.6872-4.8113,0-2.8079-1.3435-4.3223-3.1752-4.3223Z"/>
      <path class="st2" d="M334.218,55.2534c-2.9541,0-5.1768-2.1982-5.1768-6.0078,0-3.8334,2.272-6.0315,5.1768-6.0315,3.005,0,5.2517,2.1981,5.2517,6.0315,0,3.8096-2.2958,6.0078-5.2517,6.0078ZM334.218,44.5816c-2.2942,0-3.5408,1.9293-3.5408,4.6641,0,2.6625,1.2704,4.6403,3.5408,4.6403,2.3453,0,3.5902-1.9047,3.5902-4.6403,0-2.6615-1.2688-4.6641-3.5902-4.6641Z"/>
      <path class="st2" d="M342.6925,55.0094v-17.2409l1.5884-.2934v17.5342h-1.5884Z"/>
      <path class="st2" d="M349.213,40.6988c-.6343,0-1.1718-.5374-1.1718-1.1726,0-.6345.5374-1.1718,1.1718-1.1718s1.148.5373,1.148,1.1718c0,.6351-.5137,1.1726-1.148,1.1726ZM348.4069,55.0094v-11.5512h1.5884v11.5512h-1.5884Z"/>
      <path class="st2" d="M357.492,55.2049c-1.8062,0-3.0036-.7084-3.0036-2.8334v-7.5458h-1.7823v-1.3675h1.7823v-4.005l1.5868-.2688v4.2738h2.6617l.2211,1.3675h-2.8828v7.2772c0,1.1726.4643,1.6855,1.7092,1.6855.3673,0,.8062-.0733,1.0749-.1225l.2449,1.3435c-.3419.0977-.9285.1955-1.6122.1955Z"/>
      <path class="st2" d="M369.0447,55.0094l-.2688-1.5384c-1.0747,1.001-2.4183,1.7825-4.0783,1.7825-2.0032,0-3.4438-1.0987-3.4438-3.1506,0-2.71,2.1973-3.9804,7.4236-4.4933v-.7568c0-1.563-.9285-2.2219-2.3929-2.2219-1.3675,0-2.711.4148-3.9814,1.0254l-.2193-1.4412c1.3435-.586,2.6615-1.001,4.2976-1.001,2.5646,0,3.8827,1.1965,3.8827,3.5656v8.2297h-1.2195ZM368.6774,48.88c-4.5426.4635-5.8114,1.563-5.8114,3.1258,0,1.245.854,1.8802,2.075,1.8802,1.2449,0,2.6138-.6836,3.7364-1.7338v-3.2722Z"/>
      <path class="st2" d="M381.4257,55.0094v-7.961c0-1.4897-.6838-2.3937-2.1498-2.3937-1.2211,0-2.466.7576-3.7364,2.0026v8.3521h-1.6105v-11.5512h1.2449l.2688,1.7092c1.2703-1.1232,2.5884-1.9533,4.1514-1.9533,2.2958,0,3.4438,1.3189,3.4438,3.5408v8.2544h-1.6122Z"/>
      <path class="st2" d="M399.4717,55.3265c-4.5662,0-7.6429-3.5162-7.6429-8.7178,0-5.1778,3.1258-8.7671,7.7653-8.7671,1.9049,0,3.4677.5614,4.7382,1.4406l-.2686,1.7092c-1.3181-.9525-2.7841-1.6361-4.4933-1.6361-3.7126,0-6.0084,2.9311-6.0084,7.2041,0,4.3232,2.3212,7.2289,5.983,7.2289,1.8077,0,3.4438-.7084,4.8111-1.7585l.2449,1.6122c-1.2703.9525-3.1258,1.6846-5.1292,1.6846Z"/>
      <path class="st2" d="M412.0722,55.2534c-2.9542,0-5.1769-2.1982-5.1769-6.0078,0-3.8334,2.272-6.0315,5.1769-6.0315,3.005,0,5.2517,2.1981,5.2517,6.0315,0,3.8096-2.296,6.0078-5.2517,6.0078ZM412.0722,44.5816c-2.2944,0-3.5408,1.9293-3.5408,4.6641,0,2.6625,1.2704,4.6403,3.5408,4.6403,2.3451,0,3.5902-1.9047,3.5902-4.6403,0-2.6615-1.2688-4.6641-3.5902-4.6641Z"/>
      <path class="st2" d="M420.5468,55.0094v-17.2409l1.5884-.2934v17.5342h-1.5884Z"/>
      <path class="st2" d="M426.261,55.0094v-17.2409l1.5884-.2934v17.5342h-1.5884Z"/>
      <path class="st2" d="M436.2986,55.2534c-3.029,0-5.2023-2.0511-5.2023-6.0315,0-3.7126,2.1496-6.0078,4.9829-6.0078,3.1498,0,4.6634,2.5886,4.6634,5.7875v.3419h-8.0341c.0493,2.8572,1.3673,4.5179,3.6872,4.5179,1.5391,0,2.8826-.6836,4.0781-1.7092l.2449,1.4651c-1.148.977-2.6377,1.6361-4.42,1.6361ZM432.7815,48.0739h6.301c-.1462-2.0757-1.1478-3.5654-3.0034-3.5654-1.8077,0-3.005,1.3427-3.2976,3.5654Z"/>
      <path class="st2" d="M447.7526,59.4048c-2.9795,0-5.2754-1.001-5.2754-3.0036,0-1.1726.9047-2.1734,2.6377-3.0527-.5866-.3665-.8538-.7813-.8538-1.2211,0-.5858.3896-1.0739,1.1464-1.5383-1.2688-.6351-2.1242-1.8562-2.1242-3.443,0-2.4422,2.0272-3.9321,4.2738-3.9321,1.148,0,2.1496.3419,2.9303.977l2.8826-.9285.2688,1.5876-2.3214.2441c.3911.586.6105,1.2704.6105,2.0519,0,2.4414-2.0257,3.9311-4.3215,3.9311-.3419,0-.6837-.0238-1.0256-.0977-.4897.2686-.733.562-.733.8307,0,.4643.4643.6353,2.5886,1.0256l.8553.171c2.5632.4642,3.9559,1.2211,3.9559,2.9303,0,2.2227-2.5153,3.4678-5.4949,3.4678ZM446.3853,53.8614c-1.5884.733-2.3198,1.5145-2.3198,2.4422,0,1.1963,1.5137,1.8802,3.7841,1.8802,2.3451,0,3.8588-.9031,3.8588-2.0511,0-.9039-.733-1.392-2.7839-1.7823l-1.1226-.1955c-.5866-.1224-.9779-.171-1.4166-.2934ZM447.557,44.4106c-1.6361,0-2.6871,1.1965-2.6871,2.7841,0,1.4897,1.051,2.6862,2.7364,2.6862s2.7347-1.1719,2.7347-2.7348c0-1.5391-1.1241-2.7356-2.7841-2.7356Z"/>
      <path class="st2" d="M460.2751,55.2534c-3.0288,0-5.2023-2.0511-5.2023-6.0315,0-3.7126,2.1496-6.0078,4.983-6.0078,3.1496,0,4.6633,2.5886,4.6633,5.7875v.3419h-8.034c.0492,2.8572,1.3673,4.5179,3.687,4.5179,1.5391,0,2.8826-.6836,4.0783-1.7092l.2449,1.4651c-1.148.977-2.6377,1.6361-4.4202,1.6361ZM456.7582,48.0739h6.301c-.1462-2.0757-1.148-3.5654-3.0034-3.5654-1.8079,0-3.005,1.3427-3.2976,3.5654Z"/>
    </g>
  </g>
</svg>