<svg xmlns="http://www.w3.org/2000/svg" xmlns:ev="http://www.w3.org/2001/xml-events" xmlns:xlink="http://www.w3.org/1999/xlink" baseProfile="full" height="500px" version="1.1" width="900px"><defs><marker id="id8" markerHeight="10" markerWidth="10" orient="auto" refX="5" refY="3"><path d="M0,0 L0,6 L6,3 z" fill="#2E4053"/></marker></defs><rect fill="#D6EAF8" height="40" stroke="#2E4053" stroke-width="2" width="70" x="650" y="120"/><text alignment-baseline="middle" fill="#2E4053" font-family="sans-serif" font-size="18px" font-weight="bold" text-anchor="middle" x="685" y="145">Q</text><rect fill="#AED6F1" height="60" stroke="#2E4053" stroke-width="2" width="20" x="180" y="80"/><text alignment-baseline="middle" fill="#2E4053" font-family="sans-serif" font-size="12px" font-weight="bold" text-anchor="middle" x="190" y="155">k1</text><rect fill="#F9E79F" height="60" stroke="#2E4053" stroke-width="2" width="20" x="380" y="80"/><text alignment-baseline="middle" fill="#2E4053" font-family="sans-serif" font-size="12px" font-weight="bold" text-anchor="middle" x="390" y="155">v1</text><line marker-end="url(#id8)" stroke="#2E4053" stroke-width="2" x1="230" x2="350" y1="100" y2="100"/><line marker-end="url(#id8)" stroke="#2E4053" stroke-width="2" x1="650" x2="150" y1="100" y2="100"/><rect fill="#AED6F1" height="60" stroke="#2E4053" stroke-width="2" width="20" x="180" y="160"/><text alignment-baseline="middle" fill="#2E4053" font-family="sans-serif" font-size="12px" font-weight="bold" text-anchor="middle" x="190" y="235">k2</text><rect fill="#F9E79F" height="60" stroke="#2E4053" stroke-width="2" width="20" x="380" y="160"/><text alignment-baseline="middle" fill="#2E4053" font-family="sans-serif" font-size="12px" font-weight="bold" text-anchor="middle" x="390" y="235">v2</text><line marker-end="url(#id8)" stroke="#2E4053" stroke-width="2" x1="230" x2="350" y1="180" y2="180"/><line marker-end="url(#id8)" stroke="#2E4053" stroke-width="2" x1="650" x2="150" y1="180" y2="180"/><rect fill="#AED6F1" height="60" stroke="#2E4053" stroke-width="2" width="20" x="180" y="240"/><text alignment-baseline="middle" fill="#2E4053" font-family="sans-serif" font-size="12px" font-weight="bold" text-anchor="middle" x="190" y="315">k3</text><rect fill="#F9E79F" height="60" stroke="#2E4053" stroke-width="2" width="20" x="380" y="240"/><text alignment-baseline="middle" fill="#2E4053" font-family="sans-serif" font-size="12px" font-weight="bold" text-anchor="middle" x="390" y="315">v3</text><line marker-end="url(#id8)" stroke="#2E4053" stroke-width="2" x1="230" x2="350" y1="260" y2="260"/><line marker-end="url(#id8)" stroke="#2E4053" stroke-width="2" x1="650" x2="150" y1="260" y2="260"/><rect fill="#AED6F1" height="60" stroke="#2E4053" stroke-width="2" width="20" x="180" y="320"/><text alignment-baseline="middle" fill="#2E4053" font-family="sans-serif" font-size="12px" font-weight="bold" text-anchor="middle" x="190" y="395">k4</text><rect fill="#F9E79F" height="60" stroke="#2E4053" stroke-width="2" width="20" x="380" y="320"/><text alignment-baseline="middle" fill="#2E4053" font-family="sans-serif" font-size="12px" font-weight="bold" text-anchor="middle" x="390" y="395">v4</text><line marker-end="url(#id8)" stroke="#2E4053" stroke-width="2" x1="230" x2="350" y1="340" y2="340"/><line marker-end="url(#id8)" stroke="#2E4053" stroke-width="2" x1="650" x2="150" y1="340" y2="340"/><rect fill="#AED6F1" height="60" stroke="#2E4053" stroke-width="2" width="20" x="180" y="400"/><text alignment-baseline="middle" fill="#2E4053" font-family="sans-serif" font-size="12px" font-weight="bold" text-anchor="middle" x="190" y="475">k5</text><rect fill="#F9E79F" height="60" stroke="#2E4053" stroke-width="2" width="20" x="380" y="400"/><text alignment-baseline="middle" fill="#2E4053" font-family="sans-serif" font-size="12px" font-weight="bold" text-anchor="middle" x="390" y="475">v5</text><line marker-end="url(#id8)" stroke="#2E4053" stroke-width="2" x1="230" x2="350" y1="420" y2="420"/><line marker-end="url(#id8)" stroke="#2E4053" stroke-width="2" x1="650" x2="150" y1="420" y2="420"/><rect fill="white" height="40" stroke="#2E4053" stroke-width="2" width="40" x="480" y="220.0"/><text alignment-baseline="middle" fill="#2E4053" font-family="sans-serif" font-size="20px" font-weight="bold" text-anchor="middle" x="500" y="245.0">Σ</text><line marker-end="url(#id8)" stroke="#2E4053" stroke-width="2" x1="430" x2="480" y1="240.0" y2="240.0"/><rect fill="white" height="40" stroke="#2E4053" stroke-width="2" width="80" x="600" y="220.0"/><text alignment-baseline="middle" fill="#2E4053" font-family="sans-serif" font-size="14px" font-weight="bold" text-anchor="middle" x="640" y="245.0">context</text><line marker-end="url(#id8)" stroke="#2E4053" stroke-width="2" x1="520" x2="600" y1="240.0" y2="240.0"/></svg>