<?xml version="1.0" encoding="utf-8" ?>
<svg baseProfile="full" height="900px" version="1.1" width="1400px" xmlns="http://www.w3.org/2000/svg" xmlns:ev="http://www.w3.org/2001/xml-events" xmlns:xlink="http://www.w3.org/1999/xlink"><defs><marker id="id1" markerHeight="10" markerWidth="10" orient="auto" refX="5" refY="5"><path d="M0,0 L10,5 L0,10 z" fill="#1f3a8a" /></marker><marker id="id2" markerHeight="10" markerWidth="10" orient="auto" refX="5" refY="5"><path d="M0,0 L10,5 L0,10 z" fill="#73AF59" /></marker></defs><g id="arrows"><path d="M190.0,108 C 190.0,48 190.0,158 190.0,218" fill="none" marker-end="url(#id1)" stroke="#1f3a8a" stroke-width="2" /><path d="M190.0,218 C 190.0,158 190.0,268 190.0,328" fill="none" marker-end="url(#id1)" stroke="#1f3a8a" stroke-width="2" /><path d="M520.0,168 C 520.0,108 520.0,218 520.0,278" fill="none" marker-end="url(#id1)" stroke="#1f3a8a" stroke-width="2" /><path d="M520.0,278 C 520.0,218 520.0,328 520.0,388" fill="none" marker-end="url(#id1)" stroke="#1f3a8a" stroke-width="2" /><path d="M190.0,218 C 190.0,158 520.0,108 520.0,168" fill="none" marker-end="url(#id1)" stroke="#1f3a8a" stroke-width="2" /><path d="M190.0,328 C 190.0,268 520.0,108 520.0,168" fill="none" marker-end="url(#id1)" stroke="#1f3a8a" stroke-width="2" /><path d="M910.0,158 C 910.0,38 190.0,98 190.0,218" fill="none" marker-end="url(#id2)" stroke="#73AF59" stroke-dasharray="6,4" stroke-width="2" /><path d="M910.0,158 C 910.0,38 190.0,208 190.0,328" fill="none" marker-end="url(#id2)" stroke="#73AF59" stroke-dasharray="6,4" stroke-width="2" /><path d="M520.0,168 C 520.0,48 1190.0,38 1190.0,158" fill="none" marker-end="url(#id2)" stroke="#73AF59" stroke-dasharray="6,4" stroke-width="2" /><path d="M520.0,388 C 520.0,268 910.0,168 910.0,288" fill="none" marker-end="url(#id2)" stroke="#73AF59" stroke-dasharray="6,4" stroke-width="2" /><path d="M520.0,388 C 520.0,268 1190.0,168 1190.0,288" fill="none" marker-end="url(#id2)" stroke="#73AF59" stroke-dasharray="6,4" stroke-width="2" /></g><g id="nodes"><rect fill="#e8f0ff" height="380" rx="18" ry="18" stroke="lightgrey" stroke-width="2" width="260" x="60" y="60" /><text fill="#444" font-family="Helvetica" font-size="20px" x="70" y="90">Lexical processing</text><rect fill="#fff4d6" height="380" rx="18" ry="18" stroke="lightgrey" stroke-width="2" width="320" x="380" y="120" /><text fill="#444" font-family="Helvetica" font-size="20px" x="390" y="150">Structural representation</text><rect fill="#D6EBD6" height="320" rx="18" ry="18" stroke="lightgrey" stroke-width="2" width="520" x="780" y="120" /><text fill="#444" font-family="Helvetica" font-size="20px" x="790" y="150">Algorithm</text><rect fill="#e8f0ff" height="60" rx="12" ry="12" stroke="#1f3a8a" stroke-width="2" width="180" x="100" y="120" /><text fill="#1f3a8a" font-family="Helvetica" font-size="16px" text-anchor="middle" x="190.0" y="155.0">Characters</text><rect fill="#e8f0ff" height="60" rx="12" ry="12" stroke="#1f3a8a" stroke-width="2" width="180" x="100" y="230" /><text fill="#1f3a8a" font-family="Helvetica" font-size="16px" text-anchor="middle" x="190.0" y="265.0">Tokens</text><rect fill="#e8f0ff" height="60" rx="12" ry="12" stroke="#1f3a8a" stroke-width="2" width="180" x="100" y="340" /><text fill="#1f3a8a" font-family="Helvetica" font-size="16px" text-anchor="middle" x="190.0" y="375.0">Tagged tokens</text><rect fill="#fff4d6" height="60" rx="12" ry="12" stroke="#e9bc55" stroke-width="2" width="180" x="430" y="180" /><text fill="#1f3a8a" font-family="Helvetica" font-size="16px" text-anchor="middle" x="520.0" y="215.0">Syntax tree</text><rect fill="#fff4d6" height="60" rx="12" ry="12" stroke="#e9bc55" stroke-width="2" width="180" x="430" y="290" /><text fill="#1f3a8a" font-family="Helvetica" font-size="16px" text-anchor="middle" x="520.0" y="325.0">Entity relationships</text><rect fill="#fff4d6" height="60" rx="12" ry="12" stroke="#e9bc55" stroke-width="2" width="180" x="430" y="400" /><text fill="#1f3a8a" font-family="Helvetica" font-size="16px" text-anchor="middle" x="520.0" y="435.0">Knowledge base</text><rect fill="#73AF59" height="60" rx="12" ry="12" stroke="#99CC99" stroke-width="2" width="180" x="820" y="170" /><text fill="#fff" font-family="Helvetica" font-size="16px" text-anchor="middle" x="910.0" y="205.0">Regular expression</text><rect fill="#73AF59" height="60" rx="12" ry="12" stroke="#99CC99" stroke-width="2" width="180" x="1100" y="170" /><text fill="#fff" font-family="Helvetica" font-size="16px" text-anchor="middle" x="1190.0" y="205.0">Part-of-Speech</text><rect fill="#73AF59" height="60" rx="12" ry="12" stroke="#99CC99" stroke-width="2" width="180" x="820" y="300" /><text fill="#fff" font-family="Helvetica" font-size="16px" text-anchor="middle" x="910.0" y="335.0">Logic compiler</text><rect fill="#73AF59" height="60" rx="12" ry="12" stroke="#99CC99" stroke-width="2" width="180" x="1100" y="300" /><text fill="#fff" font-family="Helvetica" font-size="16px" text-anchor="middle" x="1190.0" y="335.0">Information extractor</text></g><g id="labels"><text fill="white" font-family="Helvetica" font-size="12px" stroke="white" stroke-width="3" text-anchor="middle" x="190.0" y="38">data flow</text><text fill="#1f3a8a" font-family="Helvetica" font-size="12px" text-anchor="middle" x="190.0" y="38">data flow</text><text fill="white" font-family="Helvetica" font-size="12px" stroke="white" stroke-width="3" text-anchor="middle" x="190.0" y="148">data flow</text><text fill="#1f3a8a" font-family="Helvetica" font-size="12px" text-anchor="middle" x="190.0" y="148">data flow</text><text fill="white" font-family="Helvetica" font-size="12px" stroke="white" stroke-width="3" text-anchor="middle" x="520.0" y="98">data flow</text><text fill="#1f3a8a" font-family="Helvetica" font-size="12px" text-anchor="middle" x="520.0" y="98">data flow</text><text fill="white" font-family="Helvetica" font-size="12px" stroke="white" stroke-width="3" text-anchor="middle" x="520.0" y="208">data flow</text><text fill="#1f3a8a" font-family="Helvetica" font-size="12px" text-anchor="middle" x="520.0" y="208">data flow</text><text fill="white" font-family="Helvetica" font-size="12px" stroke="white" stroke-width="3" text-anchor="middle" x="355.0" y="98">data flow</text><text fill="#1f3a8a" font-family="Helvetica" font-size="12px" text-anchor="middle" x="355.0" y="98">data flow</text><text fill="white" font-family="Helvetica" font-size="12px" stroke="white" stroke-width="3" text-anchor="middle" x="355.0" y="98">data flow</text><text fill="#1f3a8a" font-family="Helvetica" font-size="12px" text-anchor="middle" x="355.0" y="98">data flow</text></g></svg>