<?xml version="1.0" encoding="utf-8"?>
<!-- Generator: Adobe Illustrator 18.0.0, SVG Export Plug-In . SVG Version: 6.00 Build 0)  -->
<!DOCTYPE svg PUBLIC "-//W3C//DTD SVG 1.1//EN" "http://www.w3.org/Graphics/SVG/1.1/DTD/svg11.dtd">
<svg version="1.1" id="Icon_Set" xmlns="http://www.w3.org/2000/svg" xmlns:xlink="http://www.w3.org/1999/xlink" x="0px" y="0px"
	 viewBox="0 0 256 256" style="enable-background:new 0 0 256 256;" xml:space="preserve">
<style type="text/css">
	.st0{fill:#484771;}
	.st1{fill:#F1C48B;}
	.st2{fill:#D5E6F7;}
	.st3{fill:#A0D1F2;}
	.st4{fill:#FD919F;}
	.st5{fill:#E0667D;}
	.st6{fill:#504774;}
	.st7{fill:#7BACF1;}
	.st8{fill:#FFFFFF;}
	.st9{fill:#D4E7F8;}
	.st10{fill:#A3D0F1;}
	.st11{fill:#4C4372;}
	.st12{fill:#7BABF3;}
	.st13{fill:#FD919E;}
	.st14{fill:#D3E6F8;}
	.st15{fill:#E8677D;}
	.st16{fill:#A4CFF2;}
</style>
<g>
	<g>
		<circle class="st1" cx="128" cy="128" r="103.873"/>
	</g>
	<g>
		<path class="st2" d="M178.055,185.834H60.932c-2.035,0-3.684-1.649-3.684-3.684v-26.334c0-2.035,1.649-3.684,3.684-3.684h117.124
			c2.035,0,3.684,1.649,3.684,3.684v26.334C181.739,184.185,180.09,185.834,178.055,185.834z"/>
	</g>
	<g>
		<path class="st2" d="M178.055,139.268H60.932c-2.035,0-3.684-1.649-3.684-3.684V109.25c0-2.035,1.649-3.684,3.684-3.684h117.124
			c2.035,0,3.684,1.649,3.684,3.684v26.334C181.739,137.619,180.09,139.268,178.055,139.268z"/>
	</g>
	<g>
		<path class="st2" d="M178.055,92.702H60.932c-2.035,0-3.684-1.649-3.684-3.684V62.684c0-2.035,1.649-3.684,3.684-3.684h117.124
			c2.035,0,3.684,1.649,3.684,3.684v26.334C181.739,91.053,180.09,92.702,178.055,92.702z"/>
	</g>
	<g>
		<path class="st3" d="M178.055,59h-13.982c2.034,0,3.684,1.649,3.684,3.684v26.335c0,2.034-1.649,3.684-3.684,3.684h13.982
			c2.035,0,3.684-1.649,3.684-3.684V62.684C181.739,60.649,180.09,59,178.055,59z"/>
	</g>
	<g>
		<path class="st3" d="M178.055,105.566h-13.982c2.034,0,3.684,1.649,3.684,3.684v26.334c0,2.035-1.649,3.684-3.684,3.684h13.982
			c2.035,0,3.684-1.649,3.684-3.684V109.25C181.739,107.215,180.09,105.566,178.055,105.566z"/>
	</g>
	<g>
		<path class="st3" d="M178.055,152.132h-13.982c2.034,0,3.684,1.649,3.684,3.684v26.335c0,2.035-1.649,3.684-3.684,3.684h13.982
			c2.035,0,3.684-1.649,3.684-3.684v-26.335C181.739,153.782,180.09,152.132,178.055,152.132z"/>
	</g>
	<g>
		<circle class="st4" cx="77.018" cy="75.851" r="5.82"/>
	</g>
	<g>
		<circle class="st4" cx="77.018" cy="122.417" r="5.82"/>
	</g>
	<g>
		<circle class="st4" cx="77.018" cy="168.983" r="5.82"/>
	</g>
	<g>
		<path class="st4" d="M161.969,81.671h-54.825c-3.214,0-5.82-2.606-5.82-5.82l0,0c0-3.214,2.606-5.82,5.82-5.82h54.825
			c3.214,0,5.82,2.606,5.82,5.82l0,0C167.789,79.065,165.184,81.671,161.969,81.671z"/>
	</g>
	<g>
		<path class="st4" d="M161.969,128.237h-54.825c-3.214,0-5.82-2.606-5.82-5.82l0,0c0-3.214,2.606-5.82,5.82-5.82h54.825
			c3.214,0,5.82,2.606,5.82,5.82l0,0C167.789,125.632,165.184,128.237,161.969,128.237z"/>
	</g>
	<g>
		<path class="st4" d="M161.969,174.803h-54.825c-3.214,0-5.82-2.606-5.82-5.82l0,0c0-3.214,2.606-5.82,5.82-5.82h54.825
			c3.214,0,5.82,2.606,5.82,5.82l0,0C167.789,172.198,165.184,174.803,161.969,174.803z"/>
	</g>
	<g>
		<rect x="71.198" y="92.702" class="st12" width="96.591" height="12.864"/>
	</g>
	<g>
		<rect x="71.198" y="139.268" class="st12" width="96.591" height="12.864"/>
	</g>
	<g>
		<rect x="71.198" y="185.834" class="st12" width="24.207" height="11.166"/>
	</g>
	<g>
		<rect x="143.582" y="185.834" class="st12" width="24.207" height="11.166"/>
	</g>
	<g>
		<path class="st6" d="M178.056,95.702H60.932c-3.686,0-6.684-2.998-6.684-6.684V62.684c0-3.686,2.998-6.684,6.684-6.684h117.124
			c3.686,0,6.684,2.998,6.684,6.684v26.335C184.739,92.704,181.741,95.702,178.056,95.702z M60.932,62
			c-0.377,0-0.684,0.307-0.684,0.684v26.335c0,0.377,0.307,0.684,0.684,0.684h117.124c0.377,0,0.684-0.307,0.684-0.684V62.684
			c0-0.377-0.307-0.684-0.684-0.684H60.932z"/>
	</g>
	<g>
		<path class="st6" d="M178.056,188.834H60.932c-3.686,0-6.684-2.998-6.684-6.684v-26.334c0-3.686,2.998-6.685,6.684-6.685h117.124
			c3.686,0,6.684,2.999,6.684,6.685v26.334C184.739,185.836,181.741,188.834,178.056,188.834z M60.932,155.132
			c-0.377,0-0.684,0.307-0.684,0.685v26.334c0,0.377,0.307,0.684,0.684,0.684h117.124c0.377,0,0.684-0.307,0.684-0.684v-26.334
			c0-0.378-0.307-0.685-0.684-0.685H60.932z"/>
	</g>
	<g>
		<path class="st6" d="M167.789,108.566H71.198c-1.657,0-3-1.343-3-3V92.702c0-1.657,1.343-3,3-3h96.591c1.657,0,3,1.343,3,3v12.864
			C170.789,107.224,169.446,108.566,167.789,108.566z M74.198,102.566h90.591v-6.864H74.198V102.566z"/>
	</g>
	<g>
		<path class="st6" d="M167.789,155.132H71.198c-1.657,0-3-1.343-3-3v-12.863c0-1.657,1.343-3,3-3h96.591c1.657,0,3,1.343,3,3
			v12.863C170.789,153.789,169.446,155.132,167.789,155.132z M74.198,149.132h90.591v-6.863H74.198V149.132z"/>
	</g>
	<g>
		<path class="st6" d="M178.056,142.269H60.932c-3.686,0-6.684-2.999-6.684-6.685V109.25c0-3.686,2.998-6.684,6.684-6.684h117.124
			c3.686,0,6.684,2.998,6.684,6.684v26.334C184.739,139.27,181.741,142.269,178.056,142.269z M60.932,108.566
			c-0.377,0-0.684,0.307-0.684,0.684v26.334c0,0.378,0.307,0.685,0.684,0.685h117.124c0.377,0,0.684-0.307,0.684-0.685V109.25
			c0-0.377-0.307-0.684-0.684-0.684H60.932z"/>
	</g>
	<g>
		<path class="st6" d="M77.018,84.671c-4.863,0-8.819-3.957-8.819-8.82s3.956-8.819,8.819-8.819s8.82,3.956,8.82,8.819
			S81.881,84.671,77.018,84.671z M77.018,73.031c-1.555,0-2.819,1.265-2.819,2.819s1.265,2.82,2.819,2.82s2.82-1.266,2.82-2.82
			S78.572,73.031,77.018,73.031z"/>
	</g>
	<g>
		<path class="st6" d="M77.018,131.237c-4.863,0-8.819-3.957-8.819-8.82s3.956-8.82,8.819-8.82s8.82,3.957,8.82,8.82
			S81.881,131.237,77.018,131.237z M77.018,119.597c-1.555,0-2.819,1.266-2.819,2.82s1.265,2.82,2.819,2.82s2.82-1.266,2.82-2.82
			S78.572,119.597,77.018,119.597z"/>
	</g>
	<g>
		<path class="st6" d="M77.018,177.804c-4.863,0-8.819-3.957-8.819-8.82s3.956-8.82,8.819-8.82s8.82,3.957,8.82,8.82
			S81.881,177.804,77.018,177.804z M77.018,166.163c-1.555,0-2.819,1.266-2.819,2.82s1.265,2.82,2.819,2.82s2.82-1.266,2.82-2.82
			S78.572,166.163,77.018,166.163z"/>
	</g>
	<g>
		<path class="st6" d="M161.969,84.671h-54.825c-4.863,0-8.819-3.957-8.819-8.82s3.956-8.819,8.819-8.819h54.825
			c4.863,0,8.82,3.956,8.82,8.819S166.832,84.671,161.969,84.671z M107.144,73.031c-1.555,0-2.819,1.265-2.819,2.819
			s1.265,2.82,2.819,2.82h54.825c1.555,0,2.82-1.266,2.82-2.82s-1.266-2.819-2.82-2.819H107.144z"/>
	</g>
	<g>
		<path class="st6" d="M161.969,131.237h-54.825c-4.863,0-8.819-3.957-8.819-8.82s3.956-8.82,8.819-8.82h54.825
			c4.863,0,8.82,3.957,8.82,8.82S166.832,131.237,161.969,131.237z M107.144,119.597c-1.555,0-2.819,1.266-2.819,2.82
			s1.265,2.82,2.819,2.82h54.825c1.555,0,2.82-1.266,2.82-2.82s-1.266-2.82-2.82-2.82H107.144z"/>
	</g>
	<g>
		<path class="st6" d="M161.969,177.804h-54.825c-4.863,0-8.819-3.957-8.819-8.82s3.956-8.82,8.819-8.82h54.825
			c4.863,0,8.82,3.957,8.82,8.82S166.832,177.804,161.969,177.804z M107.144,166.163c-1.555,0-2.819,1.266-2.819,2.82
			s1.265,2.82,2.819,2.82h54.825c1.555,0,2.82-1.266,2.82-2.82s-1.266-2.82-2.82-2.82H107.144z"/>
	</g>
	<g>
		<path class="st6" d="M95.404,200H71.198c-1.657,0-3-1.343-3-3v-11.166c0-1.657,1.343-3,3-3h24.206c1.657,0,3,1.343,3,3V197
			C98.404,198.657,97.062,200,95.404,200z M74.198,194h18.206v-5.166H74.198V194z"/>
	</g>
	<g>
		<path class="st6" d="M167.789,200h-24.207c-1.657,0-3-1.343-3-3v-11.166c0-1.657,1.343-3,3-3h24.207c1.657,0,3,1.343,3,3V197
			C170.789,198.657,169.446,200,167.789,200z M146.582,194h18.207v-5.166h-18.207V194z"/>
	</g>
	<g>
		<circle class="st2" cx="181.739" cy="165.987" r="31.013"/>
	</g>
	<g>
		<path class="st6" d="M181.739,200c-18.755,0-34.013-15.258-34.013-34.013s15.258-34.014,34.013-34.014
			s34.013,15.259,34.013,34.014S200.494,200,181.739,200z M181.739,137.974c-15.446,0-28.013,12.566-28.013,28.014
			c0,15.446,12.566,28.013,28.013,28.013s28.013-12.566,28.013-28.013C209.752,150.54,197.186,137.974,181.739,137.974z"/>
	</g>
	<g>
		<path class="st4" d="M191.8,160.033h-20.121c-1.798,0-3.255,1.458-3.255,3.255v19.024c0,1.798,1.457,3.255,3.255,3.255H191.8
			c1.798,0,3.255-1.457,3.255-3.255v-19.024C195.055,161.49,193.598,160.033,191.8,160.033z"/>
	</g>
	<g>
		<path class="st6" d="M185.11,177.73l-1.398-4.529c0.956-0.66,1.566-1.786,1.499-3.051c-0.094-1.767-1.563-3.214-3.331-3.283
			c-1.984-0.078-3.616,1.507-3.616,3.473c0,1.187,0.596,2.234,1.504,2.861l-1.399,4.529c-0.154,0.499,0.219,1.006,0.742,1.006h5.258
			C184.891,178.736,185.264,178.23,185.11,177.73z"/>
	</g>
	<g>
		<path class="st6" d="M191.8,188.567h-20.121c-3.449,0-6.256-2.806-6.256-6.255v-19.024c0-3.449,2.807-6.256,6.256-6.256H191.8
			c3.449,0,6.256,2.807,6.256,6.256v19.024C198.056,185.762,195.249,188.567,191.8,188.567z M171.679,163.032
			c-0.141,0-0.256,0.115-0.256,0.256v19.024c0,0.141,0.115,0.255,0.256,0.255H191.8c0.141,0,0.256-0.114,0.256-0.255v-19.024
			c0-0.141-0.115-0.256-0.256-0.256H171.679z"/>
	</g>
	<g>
		<path class="st6" d="M174.123,163.032c-1.657,0-3-1.343-3-3v-8.256c0-5.854,4.763-10.616,10.616-10.616c1.657,0,3,1.343,3,3
			s-1.343,3-3,3c-2.545,0-4.616,2.071-4.616,4.616v8.256C177.123,161.689,175.78,163.032,174.123,163.032z"/>
	</g>
	<g>
		<path class="st6" d="M189.355,163.032c-1.657,0-3-1.343-3-3v-8.256c0-2.545-2.071-4.616-4.616-4.616c-1.657,0-3-1.343-3-3
			s1.343-3,3-3c5.854,0,10.616,4.763,10.616,10.616v8.256C192.355,161.689,191.013,163.032,189.355,163.032z"/>
	</g>
</g>
</svg>
